<mxfile host="app.diagrams.net" agent="Mozilla/5.0 (Macintosh; Intel Mac OS X 10_15_7) AppleWebKit/537.36 (KHTML, like Gecko) Chrome/141.0.0.0 Safari/537.36" version="28.2.5" pages="6">
  <diagram id="qaz9n3oNpfZRe3ziCwYH" name="UC MAIN">
    <mxGraphModel dx="2010" dy="1832" grid="1" gridSize="10" guides="1" tooltips="1" connect="1" arrows="1" fold="1" page="1" pageScale="1" pageWidth="827" pageHeight="1169" math="0" shadow="0">
      <root>
        <mxCell id="0" />
        <mxCell id="1" parent="0" />
        <mxCell id="sOlVFL8N_paAjGiAzF4n-43" style="edgeStyle=orthogonalEdgeStyle;rounded=0;orthogonalLoop=1;jettySize=auto;html=1;exitX=1;exitY=0.3333333333333333;exitDx=0;exitDy=0;exitPerimeter=0;entryX=0;entryY=0.5;entryDx=0;entryDy=0;strokeColor=#CC0000;" edge="1" parent="1" source="sOlVFL8N_paAjGiAzF4n-1" target="sOlVFL8N_paAjGiAzF4n-19">
          <mxGeometry relative="1" as="geometry">
            <Array as="points">
              <mxPoint x="-380" y="-510" />
              <mxPoint x="-380" y="-775" />
            </Array>
          </mxGeometry>
        </mxCell>
        <mxCell id="sOlVFL8N_paAjGiAzF4n-44" style="edgeStyle=orthogonalEdgeStyle;rounded=0;orthogonalLoop=1;jettySize=auto;html=1;exitX=1;exitY=0.3333333333333333;exitDx=0;exitDy=0;exitPerimeter=0;entryX=0;entryY=0.5;entryDx=0;entryDy=0;strokeColor=#CC0000;" edge="1" parent="1" source="sOlVFL8N_paAjGiAzF4n-1" target="sOlVFL8N_paAjGiAzF4n-2">
          <mxGeometry relative="1" as="geometry">
            <Array as="points">
              <mxPoint x="-380" y="-510" />
              <mxPoint x="-380" y="-825" />
            </Array>
          </mxGeometry>
        </mxCell>
        <mxCell id="sOlVFL8N_paAjGiAzF4n-48" style="edgeStyle=orthogonalEdgeStyle;rounded=0;orthogonalLoop=1;jettySize=auto;html=1;exitX=1;exitY=0.3333333333333333;exitDx=0;exitDy=0;exitPerimeter=0;entryX=0;entryY=0.5;entryDx=0;entryDy=0;strokeColor=#CC0000;" edge="1" parent="1" source="sOlVFL8N_paAjGiAzF4n-1" target="sOlVFL8N_paAjGiAzF4n-45">
          <mxGeometry relative="1" as="geometry">
            <Array as="points">
              <mxPoint x="-380" y="-510" />
              <mxPoint x="-380" y="-355" />
            </Array>
          </mxGeometry>
        </mxCell>
        <mxCell id="sOlVFL8N_paAjGiAzF4n-49" style="edgeStyle=orthogonalEdgeStyle;rounded=0;orthogonalLoop=1;jettySize=auto;html=1;exitX=1;exitY=0.3333333333333333;exitDx=0;exitDy=0;exitPerimeter=0;entryX=0;entryY=0.5;entryDx=0;entryDy=0;strokeColor=#CC0000;" edge="1" parent="1" source="sOlVFL8N_paAjGiAzF4n-1" target="sOlVFL8N_paAjGiAzF4n-15">
          <mxGeometry relative="1" as="geometry">
            <Array as="points">
              <mxPoint x="-380" y="-510" />
              <mxPoint x="-380" y="-405" />
            </Array>
          </mxGeometry>
        </mxCell>
        <mxCell id="sOlVFL8N_paAjGiAzF4n-79" style="edgeStyle=orthogonalEdgeStyle;rounded=0;orthogonalLoop=1;jettySize=auto;html=1;exitX=1;exitY=0.3333333333333333;exitDx=0;exitDy=0;exitPerimeter=0;entryX=0;entryY=0.5;entryDx=0;entryDy=0;strokeColor=#CC0000;" edge="1" parent="1" source="sOlVFL8N_paAjGiAzF4n-1" target="sOlVFL8N_paAjGiAzF4n-4">
          <mxGeometry relative="1" as="geometry">
            <Array as="points">
              <mxPoint x="-100" y="-510" />
            </Array>
          </mxGeometry>
        </mxCell>
        <mxCell id="sOlVFL8N_paAjGiAzF4n-80" style="edgeStyle=orthogonalEdgeStyle;rounded=0;orthogonalLoop=1;jettySize=auto;html=1;exitX=1;exitY=0.3333333333333333;exitDx=0;exitDy=0;exitPerimeter=0;entryX=0;entryY=0.5;entryDx=0;entryDy=0;strokeColor=#CC0000;" edge="1" parent="1" source="sOlVFL8N_paAjGiAzF4n-1" target="sOlVFL8N_paAjGiAzF4n-3">
          <mxGeometry relative="1" as="geometry">
            <Array as="points">
              <mxPoint x="-380" y="-510" />
              <mxPoint x="-380" y="-615" />
            </Array>
          </mxGeometry>
        </mxCell>
        <mxCell id="sOlVFL8N_paAjGiAzF4n-81" style="edgeStyle=orthogonalEdgeStyle;rounded=0;orthogonalLoop=1;jettySize=auto;html=1;exitX=1;exitY=0.3333333333333333;exitDx=0;exitDy=0;exitPerimeter=0;entryX=0;entryY=0.5;entryDx=0;entryDy=0;strokeColor=#CC0000;" edge="1" parent="1" source="sOlVFL8N_paAjGiAzF4n-1" target="sOlVFL8N_paAjGiAzF4n-5">
          <mxGeometry relative="1" as="geometry">
            <Array as="points">
              <mxPoint x="-380" y="-510" />
              <mxPoint x="-380" y="-565" />
            </Array>
          </mxGeometry>
        </mxCell>
        <mxCell id="sOlVFL8N_paAjGiAzF4n-82" style="edgeStyle=orthogonalEdgeStyle;rounded=0;orthogonalLoop=1;jettySize=auto;html=1;exitX=1;exitY=0.3333333333333333;exitDx=0;exitDy=0;exitPerimeter=0;entryX=0;entryY=0.5;entryDx=0;entryDy=0;strokeColor=#CC0000;" edge="1" parent="1" source="sOlVFL8N_paAjGiAzF4n-1" target="sOlVFL8N_paAjGiAzF4n-17">
          <mxGeometry relative="1" as="geometry">
            <Array as="points">
              <mxPoint x="-380" y="-510" />
              <mxPoint x="-380" y="-455" />
            </Array>
          </mxGeometry>
        </mxCell>
        <mxCell id="sOlVFL8N_paAjGiAzF4n-83" style="edgeStyle=orthogonalEdgeStyle;rounded=0;orthogonalLoop=1;jettySize=auto;html=1;exitX=1;exitY=0.3333333333333333;exitDx=0;exitDy=0;exitPerimeter=0;entryX=0;entryY=0.5;entryDx=0;entryDy=0;strokeColor=#CC0000;" edge="1" parent="1" source="sOlVFL8N_paAjGiAzF4n-1" target="sOlVFL8N_paAjGiAzF4n-34">
          <mxGeometry relative="1" as="geometry">
            <Array as="points">
              <mxPoint x="-380" y="-510" />
              <mxPoint x="-380" y="-715" />
            </Array>
          </mxGeometry>
        </mxCell>
        <mxCell id="sOlVFL8N_paAjGiAzF4n-1" value="Admin" style="shape=umlActor;verticalLabelPosition=bottom;verticalAlign=top;html=1;outlineConnect=0;strokeColor=#CC0000;" vertex="1" parent="1">
          <mxGeometry x="-460" y="-530" width="30" height="60" as="geometry" />
        </mxCell>
        <mxCell id="sOlVFL8N_paAjGiAzF4n-2" value="&lt;p style=&quot;white-space-collapse: preserve;&quot; dir=&quot;auto&quot;&gt;Recruit and Hire&lt;/p&gt;" style="ellipse;whiteSpace=wrap;html=1;" vertex="1" parent="1">
          <mxGeometry x="-100" y="-850" width="180" height="50" as="geometry" />
        </mxCell>
        <mxCell id="sOlVFL8N_paAjGiAzF4n-3" value="&lt;p style=&quot;white-space-collapse: preserve;&quot; dir=&quot;auto&quot;&gt;Manage Employee Profiles&lt;/p&gt;" style="ellipse;whiteSpace=wrap;html=1;" vertex="1" parent="1">
          <mxGeometry x="-100" y="-640" width="180" height="50" as="geometry" />
        </mxCell>
        <mxCell id="sOlVFL8N_paAjGiAzF4n-4" value="&lt;p style=&quot;white-space-collapse: preserve;&quot; dir=&quot;auto&quot;&gt;Generate HR Reports&lt;/p&gt;" style="ellipse;whiteSpace=wrap;html=1;" vertex="1" parent="1">
          <mxGeometry x="-100" y="-540" width="180" height="50" as="geometry" />
        </mxCell>
        <mxCell id="sOlVFL8N_paAjGiAzF4n-5" value="&lt;p style=&quot;white-space-collapse: preserve;&quot; dir=&quot;auto&quot;&gt;Payroll Management&lt;/p&gt;" style="ellipse;whiteSpace=wrap;html=1;" vertex="1" parent="1">
          <mxGeometry x="-100" y="-590" width="180" height="50" as="geometry" />
        </mxCell>
        <mxCell id="sOlVFL8N_paAjGiAzF4n-10" value="Factory Director" style="shape=umlActor;verticalLabelPosition=bottom;verticalAlign=top;html=1;outlineConnect=0;strokeColor=#000099;" vertex="1" parent="1">
          <mxGeometry x="-320" y="-650" width="30" height="60" as="geometry" />
        </mxCell>
        <mxCell id="sOlVFL8N_paAjGiAzF4n-15" value="&lt;p style=&quot;white-space-collapse: preserve;&quot; dir=&quot;auto&quot;&gt;Manage leave Request&lt;/p&gt;" style="ellipse;whiteSpace=wrap;html=1;" vertex="1" parent="1">
          <mxGeometry x="-106" y="-430" width="180" height="50" as="geometry" />
        </mxCell>
        <mxCell id="sOlVFL8N_paAjGiAzF4n-96" style="edgeStyle=orthogonalEdgeStyle;rounded=0;orthogonalLoop=1;jettySize=auto;html=1;exitX=0;exitY=0.3333333333333333;exitDx=0;exitDy=0;exitPerimeter=0;entryX=1;entryY=0.5;entryDx=0;entryDy=0;strokeColor=#FF0000;" edge="1" parent="1" source="sOlVFL8N_paAjGiAzF4n-16" target="sOlVFL8N_paAjGiAzF4n-19">
          <mxGeometry relative="1" as="geometry">
            <Array as="points">
              <mxPoint x="300" y="-616" />
              <mxPoint x="300" y="-775" />
            </Array>
          </mxGeometry>
        </mxCell>
        <mxCell id="sOlVFL8N_paAjGiAzF4n-97" style="edgeStyle=orthogonalEdgeStyle;rounded=0;orthogonalLoop=1;jettySize=auto;html=1;exitX=0;exitY=0.3333333333333333;exitDx=0;exitDy=0;exitPerimeter=0;entryX=1;entryY=0.5;entryDx=0;entryDy=0;strokeColor=#FF0000;" edge="1" parent="1" source="sOlVFL8N_paAjGiAzF4n-16" target="sOlVFL8N_paAjGiAzF4n-2">
          <mxGeometry relative="1" as="geometry">
            <Array as="points">
              <mxPoint x="300" y="-616" />
              <mxPoint x="300" y="-825" />
            </Array>
          </mxGeometry>
        </mxCell>
        <mxCell id="sOlVFL8N_paAjGiAzF4n-98" style="edgeStyle=orthogonalEdgeStyle;rounded=0;orthogonalLoop=1;jettySize=auto;html=1;exitX=0;exitY=0.3333333333333333;exitDx=0;exitDy=0;exitPerimeter=0;entryX=1;entryY=0.5;entryDx=0;entryDy=0;strokeColor=#FF0000;" edge="1" parent="1" source="sOlVFL8N_paAjGiAzF4n-16" target="sOlVFL8N_paAjGiAzF4n-34">
          <mxGeometry relative="1" as="geometry">
            <Array as="points">
              <mxPoint x="300" y="-616" />
              <mxPoint x="300" y="-715" />
            </Array>
          </mxGeometry>
        </mxCell>
        <mxCell id="sOlVFL8N_paAjGiAzF4n-99" style="edgeStyle=orthogonalEdgeStyle;rounded=0;orthogonalLoop=1;jettySize=auto;html=1;exitX=0;exitY=0.3333333333333333;exitDx=0;exitDy=0;exitPerimeter=0;strokeColor=#FF0000;" edge="1" parent="1" source="sOlVFL8N_paAjGiAzF4n-16" target="sOlVFL8N_paAjGiAzF4n-4">
          <mxGeometry relative="1" as="geometry">
            <Array as="points">
              <mxPoint x="300" y="-616" />
              <mxPoint x="300" y="-515" />
            </Array>
          </mxGeometry>
        </mxCell>
        <mxCell id="sOlVFL8N_paAjGiAzF4n-100" style="edgeStyle=orthogonalEdgeStyle;rounded=0;orthogonalLoop=1;jettySize=auto;html=1;exitX=0;exitY=0.3333333333333333;exitDx=0;exitDy=0;exitPerimeter=0;entryX=1;entryY=0.5;entryDx=0;entryDy=0;strokeColor=#FF0000;" edge="1" parent="1" source="sOlVFL8N_paAjGiAzF4n-16" target="sOlVFL8N_paAjGiAzF4n-3">
          <mxGeometry relative="1" as="geometry" />
        </mxCell>
        <mxCell id="sOlVFL8N_paAjGiAzF4n-101" style="edgeStyle=orthogonalEdgeStyle;rounded=0;orthogonalLoop=1;jettySize=auto;html=1;exitX=0;exitY=0.3333333333333333;exitDx=0;exitDy=0;exitPerimeter=0;entryX=1;entryY=0.5;entryDx=0;entryDy=0;strokeColor=#FF0000;" edge="1" parent="1" source="sOlVFL8N_paAjGiAzF4n-16" target="sOlVFL8N_paAjGiAzF4n-5">
          <mxGeometry relative="1" as="geometry">
            <Array as="points">
              <mxPoint x="300" y="-616" />
              <mxPoint x="300" y="-565" />
            </Array>
          </mxGeometry>
        </mxCell>
        <mxCell id="sOlVFL8N_paAjGiAzF4n-102" style="edgeStyle=orthogonalEdgeStyle;rounded=0;orthogonalLoop=1;jettySize=auto;html=1;exitX=0;exitY=0.3333333333333333;exitDx=0;exitDy=0;exitPerimeter=0;entryX=1;entryY=0.5;entryDx=0;entryDy=0;strokeColor=#FF0000;" edge="1" parent="1" source="sOlVFL8N_paAjGiAzF4n-16" target="sOlVFL8N_paAjGiAzF4n-20">
          <mxGeometry relative="1" as="geometry">
            <Array as="points">
              <mxPoint x="300" y="-616" />
              <mxPoint x="300" y="-665" />
            </Array>
          </mxGeometry>
        </mxCell>
        <mxCell id="sOlVFL8N_paAjGiAzF4n-103" style="edgeStyle=orthogonalEdgeStyle;rounded=0;orthogonalLoop=1;jettySize=auto;html=1;exitX=0;exitY=0.3333333333333333;exitDx=0;exitDy=0;exitPerimeter=0;entryX=1;entryY=0.5;entryDx=0;entryDy=0;strokeColor=#FF0000;" edge="1" parent="1" source="sOlVFL8N_paAjGiAzF4n-16" target="sOlVFL8N_paAjGiAzF4n-15">
          <mxGeometry relative="1" as="geometry">
            <Array as="points">
              <mxPoint x="300" y="-616" />
              <mxPoint x="300" y="-405" />
            </Array>
          </mxGeometry>
        </mxCell>
        <mxCell id="sOlVFL8N_paAjGiAzF4n-104" style="edgeStyle=orthogonalEdgeStyle;rounded=0;orthogonalLoop=1;jettySize=auto;html=1;exitX=0;exitY=0.3333333333333333;exitDx=0;exitDy=0;exitPerimeter=0;entryX=1;entryY=0.5;entryDx=0;entryDy=0;strokeColor=#FF0000;" edge="1" parent="1" source="sOlVFL8N_paAjGiAzF4n-16" target="sOlVFL8N_paAjGiAzF4n-45">
          <mxGeometry relative="1" as="geometry">
            <Array as="points">
              <mxPoint x="300" y="-616" />
              <mxPoint x="300" y="-355" />
            </Array>
          </mxGeometry>
        </mxCell>
        <mxCell id="sOlVFL8N_paAjGiAzF4n-16" value="&lt;p style=&quot;white-space: pre-wrap;&quot; dir=&quot;auto&quot;&gt;Factory Manager&lt;/p&gt;" style="shape=umlActor;verticalLabelPosition=bottom;verticalAlign=top;html=1;outlineConnect=0;" vertex="1" parent="1">
          <mxGeometry x="340" y="-636" width="30" height="60" as="geometry" />
        </mxCell>
        <mxCell id="sOlVFL8N_paAjGiAzF4n-17" value="&lt;p style=&quot;white-space-collapse: preserve;&quot; dir=&quot;auto&quot;&gt;Performance Evaluation&lt;/p&gt;" style="ellipse;whiteSpace=wrap;html=1;" vertex="1" parent="1">
          <mxGeometry x="-100" y="-480" width="180" height="50" as="geometry" />
        </mxCell>
        <mxCell id="sOlVFL8N_paAjGiAzF4n-46" style="edgeStyle=orthogonalEdgeStyle;rounded=0;orthogonalLoop=1;jettySize=auto;html=1;exitX=1;exitY=0.3333333333333333;exitDx=0;exitDy=0;exitPerimeter=0;entryX=1;entryY=0.5;entryDx=0;entryDy=0;" edge="1" parent="1" source="sOlVFL8N_paAjGiAzF4n-18" target="sOlVFL8N_paAjGiAzF4n-19">
          <mxGeometry relative="1" as="geometry">
            <Array as="points">
              <mxPoint x="150" y="-930" />
              <mxPoint x="150" y="-775" />
            </Array>
          </mxGeometry>
        </mxCell>
        <mxCell id="sOlVFL8N_paAjGiAzF4n-47" style="edgeStyle=orthogonalEdgeStyle;rounded=0;orthogonalLoop=1;jettySize=auto;html=1;exitX=1;exitY=0.3333333333333333;exitDx=0;exitDy=0;exitPerimeter=0;entryX=1;entryY=0.5;entryDx=0;entryDy=0;" edge="1" parent="1" source="sOlVFL8N_paAjGiAzF4n-18" target="sOlVFL8N_paAjGiAzF4n-2">
          <mxGeometry relative="1" as="geometry" />
        </mxCell>
        <mxCell id="sOlVFL8N_paAjGiAzF4n-18" value="Candidate" style="shape=umlActor;verticalLabelPosition=bottom;verticalAlign=top;html=1;outlineConnect=0;" vertex="1" parent="1">
          <mxGeometry x="-25" y="-950" width="30" height="60" as="geometry" />
        </mxCell>
        <mxCell id="sOlVFL8N_paAjGiAzF4n-19" value="&lt;p style=&quot;white-space-collapse: preserve;&quot; dir=&quot;auto&quot;&gt;Send Notifications&lt;/p&gt;" style="ellipse;whiteSpace=wrap;html=1;" vertex="1" parent="1">
          <mxGeometry x="-100" y="-800" width="180" height="50" as="geometry" />
        </mxCell>
        <mxCell id="sOlVFL8N_paAjGiAzF4n-20" value="&lt;p style=&quot;white-space-collapse: preserve;&quot; dir=&quot;auto&quot;&gt;Manage Line Assignment&lt;/p&gt;" style="ellipse;whiteSpace=wrap;html=1;" vertex="1" parent="1">
          <mxGeometry x="-100" y="-690" width="180" height="50" as="geometry" />
        </mxCell>
        <mxCell id="sOlVFL8N_paAjGiAzF4n-21" value="" style="endArrow=classic;html=1;rounded=0;exitX=1;exitY=0.3333333333333333;exitDx=0;exitDy=0;exitPerimeter=0;entryX=0;entryY=0.5;entryDx=0;entryDy=0;strokeColor=#CC0000;" edge="1" parent="1" source="sOlVFL8N_paAjGiAzF4n-1" target="sOlVFL8N_paAjGiAzF4n-20">
          <mxGeometry width="50" height="50" relative="1" as="geometry">
            <mxPoint x="150" y="-360" as="sourcePoint" />
            <mxPoint x="200" y="-410" as="targetPoint" />
            <Array as="points">
              <mxPoint x="-380" y="-510" />
              <mxPoint x="-380" y="-590" />
              <mxPoint x="-380" y="-660" />
            </Array>
          </mxGeometry>
        </mxCell>
        <mxCell id="sOlVFL8N_paAjGiAzF4n-27" value="&lt;p style=&quot;white-space: pre-wrap;&quot; dir=&quot;auto&quot;&gt;Manager&lt;/p&gt;" style="shape=umlActor;verticalLabelPosition=bottom;verticalAlign=top;html=1;outlineConnect=0;" vertex="1" parent="1">
          <mxGeometry x="220" y="-480" width="30" height="60" as="geometry" />
        </mxCell>
        <mxCell id="sOlVFL8N_paAjGiAzF4n-34" value="&lt;p style=&quot;white-space-collapse: preserve;&quot; dir=&quot;auto&quot;&gt;Forecast HR Budget&lt;/p&gt;" style="ellipse;whiteSpace=wrap;html=1;" vertex="1" parent="1">
          <mxGeometry x="-100" y="-740" width="180" height="50" as="geometry" />
        </mxCell>
        <mxCell id="sOlVFL8N_paAjGiAzF4n-45" value="&lt;p style=&quot;white-space-collapse: preserve;&quot; dir=&quot;auto&quot;&gt;Time Attendance&lt;/p&gt;" style="ellipse;whiteSpace=wrap;html=1;" vertex="1" parent="1">
          <mxGeometry x="-106" y="-380" width="180" height="50" as="geometry" />
        </mxCell>
        <mxCell id="sOlVFL8N_paAjGiAzF4n-71" value="&lt;p style=&quot;white-space: pre-wrap;&quot; dir=&quot;auto&quot;&gt;Leader&lt;/p&gt;" style="shape=umlActor;verticalLabelPosition=bottom;verticalAlign=top;html=1;outlineConnect=0;" vertex="1" parent="1">
          <mxGeometry x="-240" y="-350" width="30" height="60" as="geometry" />
        </mxCell>
        <mxCell id="sOlVFL8N_paAjGiAzF4n-74" value="" style="endArrow=classic;html=1;rounded=0;entryX=1;entryY=0.5;entryDx=0;entryDy=0;exitX=0;exitY=0.3333333333333333;exitDx=0;exitDy=0;exitPerimeter=0;" edge="1" parent="1" source="sOlVFL8N_paAjGiAzF4n-27" target="sOlVFL8N_paAjGiAzF4n-4">
          <mxGeometry width="50" height="50" relative="1" as="geometry">
            <mxPoint x="190" y="-580" as="sourcePoint" />
            <mxPoint x="240" y="-630" as="targetPoint" />
          </mxGeometry>
        </mxCell>
        <mxCell id="sOlVFL8N_paAjGiAzF4n-75" value="" style="endArrow=classic;html=1;rounded=0;entryX=1;entryY=0.5;entryDx=0;entryDy=0;exitX=0;exitY=0.3333333333333333;exitDx=0;exitDy=0;exitPerimeter=0;" edge="1" parent="1" source="sOlVFL8N_paAjGiAzF4n-27" target="sOlVFL8N_paAjGiAzF4n-5">
          <mxGeometry width="50" height="50" relative="1" as="geometry">
            <mxPoint x="190" y="-580" as="sourcePoint" />
            <mxPoint x="240" y="-630" as="targetPoint" />
          </mxGeometry>
        </mxCell>
        <mxCell id="sOlVFL8N_paAjGiAzF4n-76" value="" style="endArrow=classic;html=1;rounded=0;entryX=1;entryY=0.5;entryDx=0;entryDy=0;exitX=0;exitY=0.3333333333333333;exitDx=0;exitDy=0;exitPerimeter=0;" edge="1" parent="1" source="sOlVFL8N_paAjGiAzF4n-27" target="sOlVFL8N_paAjGiAzF4n-15">
          <mxGeometry width="50" height="50" relative="1" as="geometry">
            <mxPoint x="190" y="-580" as="sourcePoint" />
            <mxPoint x="240" y="-630" as="targetPoint" />
          </mxGeometry>
        </mxCell>
        <mxCell id="sOlVFL8N_paAjGiAzF4n-77" value="" style="endArrow=classic;html=1;rounded=0;entryX=1;entryY=0.5;entryDx=0;entryDy=0;exitX=0;exitY=0.3333333333333333;exitDx=0;exitDy=0;exitPerimeter=0;" edge="1" parent="1" source="sOlVFL8N_paAjGiAzF4n-27" target="sOlVFL8N_paAjGiAzF4n-45">
          <mxGeometry width="50" height="50" relative="1" as="geometry">
            <mxPoint x="190" y="-480" as="sourcePoint" />
            <mxPoint x="240" y="-530" as="targetPoint" />
          </mxGeometry>
        </mxCell>
        <mxCell id="sOlVFL8N_paAjGiAzF4n-78" value="" style="endArrow=classic;html=1;rounded=0;entryX=1;entryY=0.5;entryDx=0;entryDy=0;exitX=0;exitY=0.3333333333333333;exitDx=0;exitDy=0;exitPerimeter=0;" edge="1" parent="1" source="sOlVFL8N_paAjGiAzF4n-27" target="sOlVFL8N_paAjGiAzF4n-17">
          <mxGeometry width="50" height="50" relative="1" as="geometry">
            <mxPoint x="190" y="-480" as="sourcePoint" />
            <mxPoint x="240" y="-530" as="targetPoint" />
          </mxGeometry>
        </mxCell>
        <mxCell id="sOlVFL8N_paAjGiAzF4n-87" value="" style="endArrow=classic;html=1;rounded=0;exitX=1;exitY=0.3333333333333333;exitDx=0;exitDy=0;exitPerimeter=0;entryX=0;entryY=0.5;entryDx=0;entryDy=0;strokeColor=#0000CC;" edge="1" parent="1" source="sOlVFL8N_paAjGiAzF4n-10" target="sOlVFL8N_paAjGiAzF4n-2">
          <mxGeometry width="50" height="50" relative="1" as="geometry">
            <mxPoint x="10" y="-540" as="sourcePoint" />
            <mxPoint x="60" y="-590" as="targetPoint" />
          </mxGeometry>
        </mxCell>
        <mxCell id="sOlVFL8N_paAjGiAzF4n-88" value="" style="endArrow=classic;html=1;rounded=0;entryX=0;entryY=0.5;entryDx=0;entryDy=0;exitX=1;exitY=0.3333333333333333;exitDx=0;exitDy=0;exitPerimeter=0;strokeColor=#0000CC;" edge="1" parent="1" source="sOlVFL8N_paAjGiAzF4n-10" target="sOlVFL8N_paAjGiAzF4n-19">
          <mxGeometry width="50" height="50" relative="1" as="geometry">
            <mxPoint x="10" y="-540" as="sourcePoint" />
            <mxPoint x="60" y="-590" as="targetPoint" />
          </mxGeometry>
        </mxCell>
        <mxCell id="sOlVFL8N_paAjGiAzF4n-89" value="" style="endArrow=classic;html=1;rounded=0;entryX=0;entryY=0.5;entryDx=0;entryDy=0;exitX=1;exitY=0.3333333333333333;exitDx=0;exitDy=0;exitPerimeter=0;strokeColor=#0000CC;" edge="1" parent="1" source="sOlVFL8N_paAjGiAzF4n-10" target="sOlVFL8N_paAjGiAzF4n-4">
          <mxGeometry width="50" height="50" relative="1" as="geometry">
            <mxPoint x="10" y="-540" as="sourcePoint" />
            <mxPoint x="60" y="-590" as="targetPoint" />
          </mxGeometry>
        </mxCell>
        <mxCell id="sOlVFL8N_paAjGiAzF4n-90" value="" style="endArrow=classic;html=1;rounded=0;entryX=0;entryY=0.5;entryDx=0;entryDy=0;exitX=1;exitY=0.3333333333333333;exitDx=0;exitDy=0;exitPerimeter=0;strokeColor=#0000CC;" edge="1" parent="1" source="sOlVFL8N_paAjGiAzF4n-10" target="sOlVFL8N_paAjGiAzF4n-3">
          <mxGeometry width="50" height="50" relative="1" as="geometry">
            <mxPoint x="10" y="-540" as="sourcePoint" />
            <mxPoint x="60" y="-590" as="targetPoint" />
          </mxGeometry>
        </mxCell>
        <mxCell id="sOlVFL8N_paAjGiAzF4n-91" value="" style="endArrow=classic;html=1;rounded=0;entryX=0;entryY=0.5;entryDx=0;entryDy=0;exitX=1;exitY=0.3333333333333333;exitDx=0;exitDy=0;exitPerimeter=0;strokeColor=#0000CC;" edge="1" parent="1" source="sOlVFL8N_paAjGiAzF4n-10" target="sOlVFL8N_paAjGiAzF4n-34">
          <mxGeometry width="50" height="50" relative="1" as="geometry">
            <mxPoint x="10" y="-540" as="sourcePoint" />
            <mxPoint x="60" y="-590" as="targetPoint" />
          </mxGeometry>
        </mxCell>
        <mxCell id="sOlVFL8N_paAjGiAzF4n-92" value="" style="endArrow=classic;html=1;rounded=0;entryX=0;entryY=0.5;entryDx=0;entryDy=0;exitX=1;exitY=0.3333333333333333;exitDx=0;exitDy=0;exitPerimeter=0;strokeColor=#0000CC;" edge="1" parent="1" source="sOlVFL8N_paAjGiAzF4n-10" target="sOlVFL8N_paAjGiAzF4n-5">
          <mxGeometry width="50" height="50" relative="1" as="geometry">
            <mxPoint x="-180" y="-680" as="sourcePoint" />
            <mxPoint x="60" y="-590" as="targetPoint" />
          </mxGeometry>
        </mxCell>
        <mxCell id="sOlVFL8N_paAjGiAzF4n-93" value="" style="endArrow=classic;html=1;rounded=0;entryX=0;entryY=0.5;entryDx=0;entryDy=0;exitX=1;exitY=0.3333333333333333;exitDx=0;exitDy=0;exitPerimeter=0;strokeColor=#0000CC;" edge="1" parent="1" source="sOlVFL8N_paAjGiAzF4n-10" target="sOlVFL8N_paAjGiAzF4n-20">
          <mxGeometry width="50" height="50" relative="1" as="geometry">
            <mxPoint x="10" y="-540" as="sourcePoint" />
            <mxPoint x="60" y="-590" as="targetPoint" />
          </mxGeometry>
        </mxCell>
        <mxCell id="sOlVFL8N_paAjGiAzF4n-106" value="" style="endArrow=classic;html=1;rounded=0;exitX=1;exitY=0.3333333333333333;exitDx=0;exitDy=0;exitPerimeter=0;entryX=0;entryY=0.5;entryDx=0;entryDy=0;" edge="1" parent="1" source="sOlVFL8N_paAjGiAzF4n-71" target="sOlVFL8N_paAjGiAzF4n-15">
          <mxGeometry width="50" height="50" relative="1" as="geometry">
            <mxPoint x="60" y="-360" as="sourcePoint" />
            <mxPoint x="110" y="-410" as="targetPoint" />
          </mxGeometry>
        </mxCell>
        <mxCell id="sOlVFL8N_paAjGiAzF4n-107" value="" style="endArrow=classic;html=1;rounded=0;exitX=1;exitY=0.3333333333333333;exitDx=0;exitDy=0;exitPerimeter=0;entryX=0;entryY=0.5;entryDx=0;entryDy=0;" edge="1" parent="1" source="sOlVFL8N_paAjGiAzF4n-71" target="sOlVFL8N_paAjGiAzF4n-45">
          <mxGeometry width="50" height="50" relative="1" as="geometry">
            <mxPoint x="60" y="-360" as="sourcePoint" />
            <mxPoint x="110" y="-410" as="targetPoint" />
          </mxGeometry>
        </mxCell>
        <mxCell id="sOlVFL8N_paAjGiAzF4n-108" value="&lt;p style=&quot;white-space-collapse: preserve;&quot; dir=&quot;auto&quot;&gt;View Personal Info&lt;/p&gt;" style="ellipse;whiteSpace=wrap;html=1;" vertex="1" parent="1">
          <mxGeometry x="-106" y="-320" width="180" height="50" as="geometry" />
        </mxCell>
        <mxCell id="sOlVFL8N_paAjGiAzF4n-109" value="&lt;p style=&quot;white-space: pre-wrap;&quot; dir=&quot;auto&quot;&gt;Working&lt;/p&gt;" style="shape=umlActor;verticalLabelPosition=bottom;verticalAlign=top;html=1;outlineConnect=0;" vertex="1" parent="1">
          <mxGeometry x="170" y="-350" width="30" height="60" as="geometry" />
        </mxCell>
        <mxCell id="sOlVFL8N_paAjGiAzF4n-110" value="" style="endArrow=classic;html=1;rounded=0;exitX=0;exitY=0.3333333333333333;exitDx=0;exitDy=0;exitPerimeter=0;entryX=1;entryY=0.5;entryDx=0;entryDy=0;" edge="1" parent="1" source="sOlVFL8N_paAjGiAzF4n-109" target="sOlVFL8N_paAjGiAzF4n-45">
          <mxGeometry width="50" height="50" relative="1" as="geometry">
            <mxPoint x="60" y="-510" as="sourcePoint" />
            <mxPoint x="110" y="-560" as="targetPoint" />
          </mxGeometry>
        </mxCell>
        <mxCell id="sOlVFL8N_paAjGiAzF4n-111" value="" style="endArrow=classic;html=1;rounded=0;exitX=0;exitY=0.3333333333333333;exitDx=0;exitDy=0;exitPerimeter=0;entryX=1;entryY=0.5;entryDx=0;entryDy=0;" edge="1" parent="1" source="sOlVFL8N_paAjGiAzF4n-109" target="sOlVFL8N_paAjGiAzF4n-108">
          <mxGeometry width="50" height="50" relative="1" as="geometry">
            <mxPoint x="60" y="-510" as="sourcePoint" />
            <mxPoint x="110" y="-560" as="targetPoint" />
          </mxGeometry>
        </mxCell>
      </root>
    </mxGraphModel>
  </diagram>
  <diagram id="1nhOi-4C_KXkCrRRlusR" name="Module tuyen dung">
    <mxGraphModel dx="946" dy="530" grid="1" gridSize="10" guides="1" tooltips="1" connect="1" arrows="1" fold="1" page="1" pageScale="1" pageWidth="827" pageHeight="1169" math="0" shadow="0">
      <root>
        <mxCell id="0" />
        <mxCell id="1" parent="0" />
        <mxCell id="GvOiqfEZXlfg57Uise7G-1" value="Factory Director" style="shape=umlActor;verticalLabelPosition=bottom;verticalAlign=top;html=1;outlineConnect=0;strokeColor=#000099;" vertex="1" parent="1">
          <mxGeometry x="150" y="25" width="30" height="60" as="geometry" />
        </mxCell>
        <mxCell id="0_hIgpqLk685m8wObYcz-16" value="" style="edgeStyle=orthogonalEdgeStyle;rounded=0;orthogonalLoop=1;jettySize=auto;html=1;entryX=0.5;entryY=0;entryDx=0;entryDy=0;" edge="1" parent="1" source="0_hIgpqLk685m8wObYcz-1" target="0_hIgpqLk685m8wObYcz-4">
          <mxGeometry relative="1" as="geometry">
            <mxPoint x="430" y="125" as="targetPoint" />
          </mxGeometry>
        </mxCell>
        <mxCell id="0_hIgpqLk685m8wObYcz-1" value="&lt;p style=&quot;white-space-collapse: preserve;&quot; dir=&quot;auto&quot;&gt;Recruit and Hire&lt;/p&gt;" style="ellipse;whiteSpace=wrap;html=1;" vertex="1" parent="1">
          <mxGeometry x="340" y="20" width="180" height="50" as="geometry" />
        </mxCell>
        <mxCell id="0_hIgpqLk685m8wObYcz-2" value="&lt;p style=&quot;white-space: pre-wrap;&quot; dir=&quot;auto&quot;&gt;Factory Manager&lt;/p&gt;" style="shape=umlActor;verticalLabelPosition=bottom;verticalAlign=top;html=1;outlineConnect=0;" vertex="1" parent="1">
          <mxGeometry x="160" y="135" width="30" height="60" as="geometry" />
        </mxCell>
        <mxCell id="0_hIgpqLk685m8wObYcz-7" style="edgeStyle=orthogonalEdgeStyle;rounded=0;orthogonalLoop=1;jettySize=auto;html=1;exitX=0;exitY=0.3333333333333333;exitDx=0;exitDy=0;exitPerimeter=0;entryX=1;entryY=0.5;entryDx=0;entryDy=0;" edge="1" parent="1" source="0_hIgpqLk685m8wObYcz-3" target="0_hIgpqLk685m8wObYcz-1">
          <mxGeometry relative="1" as="geometry" />
        </mxCell>
        <mxCell id="0_hIgpqLk685m8wObYcz-3" value="Candidate" style="shape=umlActor;verticalLabelPosition=bottom;verticalAlign=top;html=1;outlineConnect=0;" vertex="1" parent="1">
          <mxGeometry x="670" y="75" width="30" height="60" as="geometry" />
        </mxCell>
        <mxCell id="0_hIgpqLk685m8wObYcz-4" value="&lt;p style=&quot;white-space-collapse: preserve;&quot; dir=&quot;auto&quot;&gt;Send Notifications&lt;/p&gt;" style="ellipse;whiteSpace=wrap;html=1;" vertex="1" parent="1">
          <mxGeometry x="340" y="145" width="180" height="50" as="geometry" />
        </mxCell>
        <mxCell id="0_hIgpqLk685m8wObYcz-9" value="" style="endArrow=classic;startArrow=classic;html=1;rounded=0;entryX=0;entryY=0.5;entryDx=0;entryDy=0;exitX=1;exitY=0.3333333333333333;exitDx=0;exitDy=0;exitPerimeter=0;" edge="1" parent="1" source="GvOiqfEZXlfg57Uise7G-1" target="0_hIgpqLk685m8wObYcz-1">
          <mxGeometry width="50" height="50" relative="1" as="geometry">
            <mxPoint x="410" y="185" as="sourcePoint" />
            <mxPoint x="460" y="135" as="targetPoint" />
          </mxGeometry>
        </mxCell>
        <mxCell id="0_hIgpqLk685m8wObYcz-10" value="" style="endArrow=classic;startArrow=classic;html=1;rounded=0;entryX=0;entryY=0.5;entryDx=0;entryDy=0;exitX=1;exitY=0.3333333333333333;exitDx=0;exitDy=0;exitPerimeter=0;" edge="1" parent="1" source="0_hIgpqLk685m8wObYcz-2" target="0_hIgpqLk685m8wObYcz-1">
          <mxGeometry width="50" height="50" relative="1" as="geometry">
            <mxPoint x="410" y="185" as="sourcePoint" />
            <mxPoint x="460" y="135" as="targetPoint" />
          </mxGeometry>
        </mxCell>
        <mxCell id="0_hIgpqLk685m8wObYcz-17" value="" style="endArrow=classic;html=1;rounded=0;entryX=0;entryY=0.3333333333333333;entryDx=0;entryDy=0;entryPerimeter=0;exitX=1;exitY=0.5;exitDx=0;exitDy=0;" edge="1" parent="1" source="0_hIgpqLk685m8wObYcz-4" target="0_hIgpqLk685m8wObYcz-3">
          <mxGeometry width="50" height="50" relative="1" as="geometry">
            <mxPoint x="550" y="185" as="sourcePoint" />
            <mxPoint x="600" y="135" as="targetPoint" />
          </mxGeometry>
        </mxCell>
        <mxCell id="0_hIgpqLk685m8wObYcz-22" value="&lt;h1 style=&quot;margin-top: 0px;&quot;&gt;&lt;ol style=&quot;list-style-type: upper-roman; font-size: medium; font-weight: 400;&quot; class=&quot;ol1&quot;&gt;&lt;ol style=&quot;list-style-type: upper-alpha;&quot; class=&quot;ol2&quot;&gt;&lt;ol class=&quot;ol3&quot;&gt;&lt;li style=&quot;margin: 0px; font-variant-numeric: normal; font-variant-east-asian: normal; font-variant-alternates: normal; font-size-adjust: none; font-kerning: auto; font-optical-sizing: auto; font-feature-settings: normal; font-variation-settings: normal; font-variant-position: normal; font-variant-emoji: normal; font-stretch: normal; font-size: 12px; line-height: normal; font-family: Times;&quot; class=&quot;li1&quot;&gt;&lt;b&gt;Recruit and Hire (tuyển dụng)&lt;/b&gt;&lt;b&gt;&lt;/b&gt;&lt;/li&gt;&lt;ol style=&quot;list-style-type: lower-alpha;&quot; class=&quot;ol4&quot;&gt;&lt;li style=&quot;margin: 0px; font-variant-numeric: normal; font-variant-east-asian: normal; font-variant-alternates: normal; font-size-adjust: none; font-kerning: auto; font-optical-sizing: auto; font-feature-settings: normal; font-variation-settings: normal; font-variant-position: normal; font-variant-emoji: normal; font-stretch: normal; font-size: 12px; line-height: normal; font-family: Times;&quot; class=&quot;li1&quot;&gt;&lt;b&gt;Description&lt;/b&gt;: Quản lý quy trình tuyển dụng, từ nộp hồ sơ đến phỏng vấn và phê duyệt.&lt;/li&gt;&lt;li style=&quot;margin: 0px; font-variant-numeric: normal; font-variant-east-asian: normal; font-variant-alternates: normal; font-size-adjust: none; font-kerning: auto; font-optical-sizing: auto; font-feature-settings: normal; font-variation-settings: normal; font-variant-position: normal; font-variant-emoji: normal; font-stretch: normal; font-size: 12px; line-height: normal; font-family: Times;&quot; class=&quot;li1&quot;&gt;&lt;b&gt;Actors&lt;/b&gt;: Candidate, Factory Manager, Factory Director, Admin.&lt;/li&gt;&lt;li style=&quot;margin: 0px; font-variant-numeric: normal; font-variant-east-asian: normal; font-variant-alternates: normal; font-size-adjust: none; font-kerning: auto; font-optical-sizing: auto; font-feature-settings: normal; font-variation-settings: normal; font-variant-position: normal; font-variant-emoji: normal; font-stretch: normal; font-size: 12px; line-height: normal; font-family: Times;&quot; class=&quot;li1&quot;&gt;&lt;b&gt;Preconditions&lt;/b&gt;: Candidate có hồ sơ hợp lệ.&lt;/li&gt;&lt;li style=&quot;margin: 0px; font-variant-numeric: normal; font-variant-east-asian: normal; font-variant-alternates: normal; font-size-adjust: none; font-kerning: auto; font-optical-sizing: auto; font-feature-settings: normal; font-variation-settings: normal; font-variant-position: normal; font-variant-emoji: normal; font-stretch: normal; font-size: 12px; line-height: normal; font-family: Times;&quot; class=&quot;li1&quot;&gt;&lt;b&gt;Main Flow&lt;/b&gt;:&lt;/li&gt;&lt;ol class=&quot;ol3&quot;&gt;&lt;li style=&quot;margin: 0px; font-variant-numeric: normal; font-variant-east-asian: normal; font-variant-alternates: normal; font-size-adjust: none; font-kerning: auto; font-optical-sizing: auto; font-feature-settings: normal; font-variation-settings: normal; font-variant-position: normal; font-variant-emoji: normal; font-stretch: normal; font-size: 12px; line-height: normal; font-family: Times;&quot; class=&quot;li1&quot;&gt;Candidate vào trang web hoặc qua Mobile app và nộp hồ sơ (họ tên, email, file CV).&lt;/li&gt;&lt;li style=&quot;margin: 0px; font-variant-numeric: normal; font-variant-east-asian: normal; font-variant-alternates: normal; font-size-adjust: none; font-kerning: auto; font-optical-sizing: auto; font-feature-settings: normal; font-variation-settings: normal; font-variant-position: normal; font-variant-emoji: normal; font-stretch: normal; font-size: 12px; line-height: normal; font-family: Times;&quot; class=&quot;li1&quot;&gt;Hệ thống lưu hồ sơ vào database (bảng Candidate) và gửi thông báo xác nhận (gọi Use Case Send Notifications).&lt;/li&gt;&lt;li style=&quot;margin: 0px; font-variant-numeric: normal; font-variant-east-asian: normal; font-variant-alternates: normal; font-size-adjust: none; font-kerning: auto; font-optical-sizing: auto; font-feature-settings: normal; font-variation-settings: normal; font-variant-position: normal; font-variant-emoji: normal; font-stretch: normal; font-size: 12px; line-height: normal; font-family: Times;&quot; class=&quot;li1&quot;&gt;Factory Manager xem danh sách ứng viên, lên lịch phỏng vấn.&lt;/li&gt;&lt;li style=&quot;margin: 0px; font-variant-numeric: normal; font-variant-east-asian: normal; font-variant-alternates: normal; font-size-adjust: none; font-kerning: auto; font-optical-sizing: auto; font-feature-settings: normal; font-variation-settings: normal; font-variant-position: normal; font-variant-emoji: normal; font-stretch: normal; font-size: 12px; line-height: normal; font-family: Times;&quot; class=&quot;li1&quot;&gt;Factory Manager thực hiện phỏng vấn và cập nhật trạng thái ứng viên (interviewed, approved, rejected).&lt;/li&gt;&lt;li style=&quot;margin: 0px; font-variant-numeric: normal; font-variant-east-asian: normal; font-variant-alternates: normal; font-size-adjust: none; font-kerning: auto; font-optical-sizing: auto; font-feature-settings: normal; font-variation-settings: normal; font-variant-position: normal; font-variant-emoji: normal; font-stretch: normal; font-size: 12px; line-height: normal; font-family: Times;&quot; class=&quot;li1&quot;&gt;Factory Director duyệt quyết định tuyển dụng (vị trí cấp cao từ Manager trở lên).&lt;/li&gt;&lt;li style=&quot;margin: 0px; font-variant-numeric: normal; font-variant-east-asian: normal; font-variant-alternates: normal; font-size-adjust: none; font-kerning: auto; font-optical-sizing: auto; font-feature-settings: normal; font-variation-settings: normal; font-variant-position: normal; font-variant-emoji: normal; font-stretch: normal; font-size: 12px; line-height: normal; font-family: Times;&quot; class=&quot;li1&quot;&gt;Admin có thể can thiệp để sửa đổi hoặc phê duyệt.&lt;/li&gt;&lt;li style=&quot;margin: 0px; font-variant-numeric: normal; font-variant-east-asian: normal; font-variant-alternates: normal; font-size-adjust: none; font-kerning: auto; font-optical-sizing: auto; font-feature-settings: normal; font-variation-settings: normal; font-variant-position: normal; font-variant-emoji: normal; font-stretch: normal; font-size: 12px; line-height: normal; font-family: Times;&quot; class=&quot;li1&quot;&gt;Hệ thống cập nhật trạng thái ứng viên và thông báo kết quả (gọi Send Notifications).&lt;/li&gt;&lt;/ol&gt;&lt;li style=&quot;margin: 0px; font-variant-numeric: normal; font-variant-east-asian: normal; font-variant-alternates: normal; font-size-adjust: none; font-kerning: auto; font-optical-sizing: auto; font-feature-settings: normal; font-variation-settings: normal; font-variant-position: normal; font-variant-emoji: normal; font-stretch: normal; font-size: 12px; line-height: normal; font-family: Times;&quot; class=&quot;li1&quot;&gt;&lt;b&gt;Alternative Flow&lt;/b&gt;:&lt;/li&gt;&lt;ol class=&quot;ol3&quot;&gt;&lt;li style=&quot;margin: 0px; font-variant-numeric: normal; font-variant-east-asian: normal; font-variant-alternates: normal; font-size-adjust: none; font-kerning: auto; font-optical-sizing: auto; font-feature-settings: normal; font-variation-settings: normal; font-variant-position: normal; font-variant-emoji: normal; font-stretch: normal; font-size: 12px; line-height: normal; font-family: Times;&quot; class=&quot;li1&quot;&gt;A1: Nếu hồ sơ không hợp lệ (thiếu thông tin), hệ thống yêu cầu Candidate bổ sung.&lt;/li&gt;&lt;li style=&quot;margin: 0px; font-variant-numeric: normal; font-variant-east-asian: normal; font-variant-alternates: normal; font-size-adjust: none; font-kerning: auto; font-optical-sizing: auto; font-feature-settings: normal; font-variation-settings: normal; font-variant-position: normal; font-variant-emoji: normal; font-stretch: normal; font-size: 12px; line-height: normal; font-family: Times;&quot; class=&quot;li1&quot;&gt;A2: Nếu Factory Director từ chối, Factory Manager có thể đề xuất lại ứng viên khác.&lt;/li&gt;&lt;/ol&gt;&lt;li style=&quot;margin: 0px; font-variant-numeric: normal; font-variant-east-asian: normal; font-variant-alternates: normal; font-size-adjust: none; font-kerning: auto; font-optical-sizing: auto; font-feature-settings: normal; font-variation-settings: normal; font-variant-position: normal; font-variant-emoji: normal; font-stretch: normal; font-size: 12px; line-height: normal; font-family: Times;&quot; class=&quot;li1&quot;&gt;&lt;b&gt;Postconditions&lt;/b&gt;: Hồ sơ ứng viên được cập nhật, nhân viên mới được thêm vào bảng Employee nếu được tuyển.&lt;/li&gt;&lt;li style=&quot;margin: 0px; font-variant-numeric: normal; font-variant-east-asian: normal; font-variant-alternates: normal; font-size-adjust: none; font-kerning: auto; font-optical-sizing: auto; font-feature-settings: normal; font-variation-settings: normal; font-variant-position: normal; font-variant-emoji: normal; font-stretch: normal; font-size: 12px; line-height: normal; font-family: Times;&quot; class=&quot;li1&quot;&gt;&lt;b&gt;Interactions&lt;/b&gt;:&lt;/li&gt;&lt;ol class=&quot;ol3&quot;&gt;&lt;li style=&quot;margin: 0px; font-variant-numeric: normal; font-variant-east-asian: normal; font-variant-alternates: normal; font-size-adjust: none; font-kerning: auto; font-optical-sizing: auto; font-feature-settings: normal; font-variation-settings: normal; font-variant-position: normal; font-variant-emoji: normal; font-stretch: normal; font-size: 12px; line-height: normal; font-family: Times;&quot; class=&quot;li1&quot;&gt;Candidate &lt;span style=&quot;font-variant-numeric: normal; font-variant-east-asian: normal; font-variant-alternates: normal; font-size-adjust: none; font-kerning: auto; font-optical-sizing: auto; font-feature-settings: normal; font-variation-settings: normal; font-variant-position: normal; font-variant-emoji: normal; font-stretch: normal; line-height: normal; font-family: &amp;quot;Times New Roman&amp;quot;;&quot; class=&quot;s1&quot;&gt;→&lt;/span&gt; Hệ thống: Nộp hồ sơ.&lt;/li&gt;&lt;li style=&quot;margin: 0px; font-variant-numeric: normal; font-variant-east-asian: normal; font-variant-alternates: normal; font-size-adjust: none; font-kerning: auto; font-optical-sizing: auto; font-feature-settings: normal; font-variation-settings: normal; font-variant-position: normal; font-variant-emoji: normal; font-stretch: normal; font-size: 12px; line-height: normal; font-family: Times;&quot; class=&quot;li1&quot;&gt;Factory Manager &lt;span style=&quot;font-variant-numeric: normal; font-variant-east-asian: normal; font-variant-alternates: normal; font-size-adjust: none; font-kerning: auto; font-optical-sizing: auto; font-feature-settings: normal; font-variation-settings: normal; font-variant-position: normal; font-variant-emoji: normal; font-stretch: normal; line-height: normal; font-family: &amp;quot;Times New Roman&amp;quot;;&quot; class=&quot;s1&quot;&gt;→&lt;/span&gt; Hệ thống: Lên lịch, đánh giá ứng viên.&lt;/li&gt;&lt;li style=&quot;margin: 0px; font-variant-numeric: normal; font-variant-east-asian: normal; font-variant-alternates: normal; font-size-adjust: none; font-kerning: auto; font-optical-sizing: auto; font-feature-settings: normal; font-variation-settings: normal; font-variant-position: normal; font-variant-emoji: normal; font-stretch: normal; font-size: 12px; line-height: normal; font-family: Times;&quot; class=&quot;li1&quot;&gt;Factory Director &lt;span style=&quot;font-variant-numeric: normal; font-variant-east-asian: normal; font-variant-alternates: normal; font-size-adjust: none; font-kerning: auto; font-optical-sizing: auto; font-feature-settings: normal; font-variation-settings: normal; font-variant-position: normal; font-variant-emoji: normal; font-stretch: normal; line-height: normal; font-family: &amp;quot;Times New Roman&amp;quot;;&quot; class=&quot;s1&quot;&gt;→&lt;/span&gt; Hệ thống: Duyệt quyết định tuyển dụng.&lt;/li&gt;&lt;li style=&quot;margin: 0px; font-variant-numeric: normal; font-variant-east-asian: normal; font-variant-alternates: normal; font-size-adjust: none; font-kerning: auto; font-optical-sizing: auto; font-feature-settings: normal; font-variation-settings: normal; font-variant-position: normal; font-variant-emoji: normal; font-stretch: normal; font-size: 12px; line-height: normal; font-family: Times;&quot; class=&quot;li1&quot;&gt;Admin &lt;span style=&quot;font-variant-numeric: normal; font-variant-east-asian: normal; font-variant-alternates: normal; font-size-adjust: none; font-kerning: auto; font-optical-sizing: auto; font-feature-settings: normal; font-variation-settings: normal; font-variant-position: normal; font-variant-emoji: normal; font-stretch: normal; line-height: normal; font-family: &amp;quot;Times New Roman&amp;quot;;&quot; class=&quot;s1&quot;&gt;→&lt;/span&gt; Hệ thống: Can thiệp nếu cần.&lt;/li&gt;&lt;/ol&gt;&lt;/ol&gt;&lt;li style=&quot;margin: 0px; font-variant-numeric: normal; font-variant-east-asian: normal; font-variant-alternates: normal; font-size-adjust: none; font-kerning: auto; font-optical-sizing: auto; font-feature-settings: normal; font-variation-settings: normal; font-variant-position: normal; font-variant-emoji: normal; font-stretch: normal; font-size: 12px; line-height: normal; font-family: Times;&quot; class=&quot;li1&quot;&gt;&lt;b&gt;Send Notifications (gởi thông báo)&lt;/b&gt;&lt;b&gt;&lt;/b&gt;&lt;/li&gt;&lt;ol style=&quot;list-style-type: lower-alpha;&quot; class=&quot;ol4&quot;&gt;&lt;li style=&quot;margin: 0px; font-variant-numeric: normal; font-variant-east-asian: normal; font-variant-alternates: normal; font-size-adjust: none; font-kerning: auto; font-optical-sizing: auto; font-feature-settings: normal; font-variation-settings: normal; font-variant-position: normal; font-variant-emoji: normal; font-stretch: normal; font-size: 12px; line-height: normal; font-family: Times;&quot; class=&quot;li1&quot;&gt;&lt;b&gt;Description&lt;/b&gt;: Gửi thông báo đến Candidate hoặc Employee về kết quả tuyển dụng, ca làm, lương, hoặc xác nhận chấm công.&lt;/li&gt;&lt;li style=&quot;margin: 0px; font-variant-numeric: normal; font-variant-east-asian: normal; font-variant-alternates: normal; font-size-adjust: none; font-kerning: auto; font-optical-sizing: auto; font-feature-settings: normal; font-variation-settings: normal; font-variant-position: normal; font-variant-emoji: normal; font-stretch: normal; font-size: 12px; line-height: normal; font-family: Times;&quot; class=&quot;li1&quot;&gt;&lt;b&gt;Actors&lt;/b&gt;: Candidate, Working, Factory Manager, Factory Director, Admin.&lt;/li&gt;&lt;li style=&quot;margin: 0px; font-variant-numeric: normal; font-variant-east-asian: normal; font-variant-alternates: normal; font-size-adjust: none; font-kerning: auto; font-optical-sizing: auto; font-feature-settings: normal; font-variation-settings: normal; font-variant-position: normal; font-variant-emoji: normal; font-stretch: normal; font-size: 12px; line-height: normal; font-family: Times;&quot; class=&quot;li1&quot;&gt;&lt;b&gt;Preconditions&lt;/b&gt;: Hệ thống có thông tin liên lạc của người nhận (email hoặc app).&lt;/li&gt;&lt;li style=&quot;margin: 0px; font-variant-numeric: normal; font-variant-east-asian: normal; font-variant-alternates: normal; font-size-adjust: none; font-kerning: auto; font-optical-sizing: auto; font-feature-settings: normal; font-variation-settings: normal; font-variant-position: normal; font-variant-emoji: normal; font-stretch: normal; font-size: 12px; line-height: normal; font-family: Times;&quot; class=&quot;li1&quot;&gt;&lt;b&gt;Main Flow&lt;/b&gt;:&lt;/li&gt;&lt;ol class=&quot;ol3&quot;&gt;&lt;li style=&quot;margin: 0px; font-variant-numeric: normal; font-variant-east-asian: normal; font-variant-alternates: normal; font-size-adjust: none; font-kerning: auto; font-optical-sizing: auto; font-feature-settings: normal; font-variation-settings: normal; font-variant-position: normal; font-variant-emoji: normal; font-stretch: normal; font-size: 12px; line-height: normal; font-family: Times;&quot; class=&quot;li1&quot;&gt;Hệ thống nhận yêu cầu gửi thông báo từ một Use Case khác (Recruit and Hire, Time Attendance, Payroll Management).&lt;/li&gt;&lt;li style=&quot;margin: 0px; font-variant-numeric: normal; font-variant-east-asian: normal; font-variant-alternates: normal; font-size-adjust: none; font-kerning: auto; font-optical-sizing: auto; font-feature-settings: normal; font-variation-settings: normal; font-variant-position: normal; font-variant-emoji: normal; font-stretch: normal; font-size: 12px; line-height: normal; font-family: Times;&quot; class=&quot;li1&quot;&gt;Factory Manager hoặc Factory Director tạo nội dung thông báo (ví dụ: &quot;Ứng viên được tuyển&quot;, &quot;Ca làm ngày mai&quot;).&lt;/li&gt;&lt;li style=&quot;margin: 0px; font-variant-numeric: normal; font-variant-east-asian: normal; font-variant-alternates: normal; font-size-adjust: none; font-kerning: auto; font-optical-sizing: auto; font-feature-settings: normal; font-variation-settings: normal; font-variant-position: normal; font-variant-emoji: normal; font-stretch: normal; font-size: 12px; line-height: normal; font-family: Times;&quot; class=&quot;li1&quot;&gt;Hệ thống gửi thông báo qua email hoặc in-app (Flutter app) đến Candidate hoặc Working.&lt;/li&gt;&lt;li style=&quot;margin: 0px; font-variant-numeric: normal; font-variant-east-asian: normal; font-variant-alternates: normal; font-size-adjust: none; font-kerning: auto; font-optical-sizing: auto; font-feature-settings: normal; font-variation-settings: normal; font-variant-position: normal; font-variant-emoji: normal; font-stretch: normal; font-size: 12px; line-height: normal; font-family: Times;&quot; class=&quot;li1&quot;&gt;Admin có thể gửi thông báo hệ thống cho tất cả người dùng.&lt;/li&gt;&lt;li style=&quot;margin: 0px; font-variant-numeric: normal; font-variant-east-asian: normal; font-variant-alternates: normal; font-size-adjust: none; font-kerning: auto; font-optical-sizing: auto; font-feature-settings: normal; font-variation-settings: normal; font-variant-position: normal; font-variant-emoji: normal; font-stretch: normal; font-size: 12px; line-height: normal; font-family: Times;&quot; class=&quot;li1&quot;&gt;Hệ thống lưu bản ghi thông báo vào bảng Notification.&lt;/li&gt;&lt;/ol&gt;&lt;li style=&quot;margin: 0px; font-variant-numeric: normal; font-variant-east-asian: normal; font-variant-alternates: normal; font-size-adjust: none; font-kerning: auto; font-optical-sizing: auto; font-feature-settings: normal; font-variation-settings: normal; font-variant-position: normal; font-variant-emoji: normal; font-stretch: normal; font-size: 12px; line-height: normal; font-family: Times;&quot; class=&quot;li1&quot;&gt;&lt;b&gt;Alternative Flow&lt;/b&gt;:&lt;/li&gt;&lt;ol class=&quot;ol3&quot;&gt;&lt;li style=&quot;margin: 0px; font-variant-numeric: normal; font-variant-east-asian: normal; font-variant-alternates: normal; font-size-adjust: none; font-kerning: auto; font-optical-sizing: auto; font-feature-settings: normal; font-variation-settings: normal; font-variant-position: normal; font-variant-emoji: normal; font-stretch: normal; font-size: 12px; line-height: normal; font-family: Times;&quot; class=&quot;li1&quot;&gt;A1: Nếu email không hợp lệ, hệ thống thử gửi qua in-app hoặc ghi log lỗi.&lt;/li&gt;&lt;/ol&gt;&lt;li style=&quot;margin: 0px; font-variant-numeric: normal; font-variant-east-asian: normal; font-variant-alternates: normal; font-size-adjust: none; font-kerning: auto; font-optical-sizing: auto; font-feature-settings: normal; font-variation-settings: normal; font-variant-position: normal; font-variant-emoji: normal; font-stretch: normal; font-size: 12px; line-height: normal; font-family: Times;&quot; class=&quot;li1&quot;&gt;&lt;b&gt;Postconditions&lt;/b&gt;: Thông báo được gửi thành công, lưu vào database.&lt;/li&gt;&lt;li style=&quot;margin: 0px; font-variant-numeric: normal; font-variant-east-asian: normal; font-variant-alternates: normal; font-size-adjust: none; font-kerning: auto; font-optical-sizing: auto; font-feature-settings: normal; font-variation-settings: normal; font-variant-position: normal; font-variant-emoji: normal; font-stretch: normal; font-size: 12px; line-height: normal; font-family: Times;&quot; class=&quot;li1&quot;&gt;&lt;b&gt;Interactions&lt;/b&gt;:&lt;/li&gt;&lt;ol class=&quot;ol3&quot;&gt;&lt;li style=&quot;margin: 0px; font-variant-numeric: normal; font-variant-east-asian: normal; font-variant-alternates: normal; font-size-adjust: none; font-kerning: auto; font-optical-sizing: auto; font-feature-settings: normal; font-variation-settings: normal; font-variant-position: normal; font-variant-emoji: normal; font-stretch: normal; font-size: 12px; line-height: normal; font-family: Times;&quot; class=&quot;li1&quot;&gt;Factory Manager/Factory Director &lt;span style=&quot;font-variant-numeric: normal; font-variant-east-asian: normal; font-variant-alternates: normal; font-size-adjust: none; font-kerning: auto; font-optical-sizing: auto; font-feature-settings: normal; font-variation-settings: normal; font-variant-position: normal; font-variant-emoji: normal; font-stretch: normal; line-height: normal; font-family: &amp;quot;Times New Roman&amp;quot;;&quot; class=&quot;s1&quot;&gt;→&lt;/span&gt; Hệ thống: Tạo nội dung thông báo.&lt;/li&gt;&lt;li style=&quot;margin: 0px; font-variant-numeric: normal; font-variant-east-asian: normal; font-variant-alternates: normal; font-size-adjust: none; font-kerning: auto; font-optical-sizing: auto; font-feature-settings: normal; font-variation-settings: normal; font-variant-position: normal; font-variant-emoji: normal; font-stretch: normal; font-size: 12px; line-height: normal; font-family: Times;&quot; class=&quot;li1&quot;&gt;Hệ thống &lt;span style=&quot;font-variant-numeric: normal; font-variant-east-asian: normal; font-variant-alternates: normal; font-size-adjust: none; font-kerning: auto; font-optical-sizing: auto; font-feature-settings: normal; font-variation-settings: normal; font-variant-position: normal; font-variant-emoji: normal; font-stretch: normal; line-height: normal; font-family: &amp;quot;Times New Roman&amp;quot;;&quot; class=&quot;s1&quot;&gt;→&lt;/span&gt; Candidate/Working: Gửi thông báo.&lt;/li&gt;&lt;li style=&quot;margin: 0px; font-variant-numeric: normal; font-variant-east-asian: normal; font-variant-alternates: normal; font-size-adjust: none; font-kerning: auto; font-optical-sizing: auto; font-feature-settings: normal; font-variation-settings: normal; font-variant-position: normal; font-variant-emoji: normal; font-stretch: normal; font-size: 12px; line-height: normal; font-family: Times;&quot; class=&quot;li1&quot;&gt;Admin &lt;span style=&quot;font-variant-numeric: normal; font-variant-east-asian: normal; font-variant-alternates: normal; font-size-adjust: none; font-kerning: auto; font-optical-sizing: auto; font-feature-settings: normal; font-variation-settings: normal; font-variant-position: normal; font-variant-emoji: normal; font-stretch: normal; line-height: normal; font-family: &amp;quot;Times New Roman&amp;quot;;&quot; class=&quot;s1&quot;&gt;→&lt;/span&gt; Hệ thống: Gửi thông báo toàn cục.&lt;/li&gt;&lt;/ol&gt;&lt;/ol&gt;&lt;/ol&gt;&lt;/ol&gt;&lt;/ol&gt;&lt;/h1&gt;" style="text;html=1;whiteSpace=wrap;overflow=hidden;rounded=0;" vertex="1" parent="1">
          <mxGeometry y="250" width="780" height="610" as="geometry" />
        </mxCell>
        <mxCell id="-jQxCl4c1XgV-yiUYtRW-1" value="Admin" style="shape=umlActor;verticalLabelPosition=bottom;verticalAlign=top;html=1;outlineConnect=0;strokeColor=#CC0000;" vertex="1" parent="1">
          <mxGeometry x="20" y="10" width="30" height="60" as="geometry" />
        </mxCell>
      </root>
    </mxGraphModel>
  </diagram>
  <diagram id="h4SszMxRlyT6yzPLEE8l" name="Module tinh luong">
    <mxGraphModel dx="1183" dy="663" grid="1" gridSize="10" guides="1" tooltips="1" connect="1" arrows="1" fold="1" page="1" pageScale="1" pageWidth="827" pageHeight="1169" math="0" shadow="0">
      <root>
        <mxCell id="0" />
        <mxCell id="1" parent="0" />
        <mxCell id="tMKc-CelzGZNNdJW9Dln-1" value="Admin" style="shape=umlActor;verticalLabelPosition=bottom;verticalAlign=top;html=1;outlineConnect=0;strokeColor=#CC0000;" vertex="1" parent="1">
          <mxGeometry x="90" y="20" width="30" height="60" as="geometry" />
        </mxCell>
        <mxCell id="tMKc-CelzGZNNdJW9Dln-2" value="&lt;p style=&quot;white-space-collapse: preserve;&quot; dir=&quot;auto&quot;&gt;Payroll Management&lt;/p&gt;" style="ellipse;whiteSpace=wrap;html=1;" vertex="1" parent="1">
          <mxGeometry x="205" y="160" width="180" height="50" as="geometry" />
        </mxCell>
        <mxCell id="tMKc-CelzGZNNdJW9Dln-3" value="Factory Director" style="shape=umlActor;verticalLabelPosition=bottom;verticalAlign=top;html=1;outlineConnect=0;strokeColor=#000099;" vertex="1" parent="1">
          <mxGeometry x="210" y="20" width="30" height="60" as="geometry" />
        </mxCell>
        <mxCell id="tMKc-CelzGZNNdJW9Dln-4" value="&lt;p style=&quot;white-space: pre-wrap;&quot; dir=&quot;auto&quot;&gt;Factory Manager&lt;/p&gt;" style="shape=umlActor;verticalLabelPosition=bottom;verticalAlign=top;html=1;outlineConnect=0;" vertex="1" parent="1">
          <mxGeometry x="330" y="20" width="30" height="60" as="geometry" />
        </mxCell>
        <mxCell id="tMKc-CelzGZNNdJW9Dln-5" value="&lt;p style=&quot;white-space-collapse: preserve;&quot; dir=&quot;auto&quot;&gt;Performance Evaluation&lt;/p&gt;" style="ellipse;whiteSpace=wrap;html=1;" vertex="1" parent="1">
          <mxGeometry x="320" y="240" width="180" height="50" as="geometry" />
        </mxCell>
        <mxCell id="tMKc-CelzGZNNdJW9Dln-6" value="&lt;p style=&quot;white-space: pre-wrap;&quot; dir=&quot;auto&quot;&gt;Manager&lt;/p&gt;" style="shape=umlActor;verticalLabelPosition=bottom;verticalAlign=top;html=1;outlineConnect=0;" vertex="1" parent="1">
          <mxGeometry x="400" y="20" width="30" height="60" as="geometry" />
        </mxCell>
        <mxCell id="tMKc-CelzGZNNdJW9Dln-7" value="&lt;p style=&quot;white-space-collapse: preserve;&quot; dir=&quot;auto&quot;&gt;Time Attendance&lt;/p&gt;" style="ellipse;whiteSpace=wrap;html=1;" vertex="1" parent="1">
          <mxGeometry x="100" y="240" width="180" height="50" as="geometry" />
        </mxCell>
        <mxCell id="tMKc-CelzGZNNdJW9Dln-8" value="&lt;p style=&quot;white-space: pre-wrap;&quot; dir=&quot;auto&quot;&gt;Leader&lt;/p&gt;" style="shape=umlActor;verticalLabelPosition=bottom;verticalAlign=top;html=1;outlineConnect=0;" vertex="1" parent="1">
          <mxGeometry x="100" y="320" width="30" height="60" as="geometry" />
        </mxCell>
        <mxCell id="tMKc-CelzGZNNdJW9Dln-9" value="&lt;p style=&quot;white-space: pre-wrap;&quot; dir=&quot;auto&quot;&gt;Working&lt;/p&gt;" style="shape=umlActor;verticalLabelPosition=bottom;verticalAlign=top;html=1;outlineConnect=0;" vertex="1" parent="1">
          <mxGeometry x="260" y="320" width="30" height="60" as="geometry" />
        </mxCell>
        <mxCell id="EYOljKgzX00EuoD1azmv-2" value="&lt;h1 style=&quot;margin-top: 0px;&quot;&gt;&lt;ol style=&quot;list-style-type: upper-roman; font-size: medium; font-weight: 400;&quot; class=&quot;ol1&quot;&gt;&lt;ol style=&quot;list-style-type: upper-alpha;&quot; class=&quot;ol2&quot;&gt;&lt;ol class=&quot;ol3&quot;&gt;&lt;li style=&quot;margin: 0px; font-variant-numeric: normal; font-variant-east-asian: normal; font-variant-alternates: normal; font-size-adjust: none; font-kerning: auto; font-optical-sizing: auto; font-feature-settings: normal; font-variation-settings: normal; font-variant-position: normal; font-variant-emoji: normal; font-stretch: normal; font-size: 12px; line-height: normal; font-family: Times;&quot; class=&quot;li1&quot;&gt;&lt;b&gt;Use Case: Time Attendance (chấm công)&lt;/b&gt;&lt;b&gt;&lt;/b&gt;&lt;/li&gt;&lt;ol style=&quot;list-style-type: lower-alpha;&quot; class=&quot;ol4&quot;&gt;&lt;li style=&quot;margin: 0px; font-variant-numeric: normal; font-variant-east-asian: normal; font-variant-alternates: normal; font-size-adjust: none; font-kerning: auto; font-optical-sizing: auto; font-feature-settings: normal; font-variation-settings: normal; font-variant-position: normal; font-variant-emoji: normal; font-stretch: normal; font-size: 12px; line-height: normal; font-family: Times;&quot; class=&quot;li1&quot;&gt;&lt;b&gt;Description&lt;/b&gt;: Quản lý chấm công bằng quét khuôn mặt, Working thực hiện, Leader xác nhận, Manager duyệt.&lt;/li&gt;&lt;li style=&quot;margin: 0px; font-variant-numeric: normal; font-variant-east-asian: normal; font-variant-alternates: normal; font-size-adjust: none; font-kerning: auto; font-optical-sizing: auto; font-feature-settings: normal; font-variation-settings: normal; font-variant-position: normal; font-variant-emoji: normal; font-stretch: normal; font-size: 12px; line-height: normal; font-family: Times;&quot; class=&quot;li1&quot;&gt;&lt;b&gt;Actors&lt;/b&gt;: Working, Leader, Manager, Factory Manager.&lt;/li&gt;&lt;li style=&quot;margin: 0px; font-variant-numeric: normal; font-variant-east-asian: normal; font-variant-alternates: normal; font-size-adjust: none; font-kerning: auto; font-optical-sizing: auto; font-feature-settings: normal; font-variation-settings: normal; font-variant-position: normal; font-variant-emoji: normal; font-stretch: normal; font-size: 12px; line-height: normal; font-family: Times;&quot; class=&quot;li1&quot;&gt;&lt;b&gt;Preconditions&lt;/b&gt;: Hệ thống quét khuôn mặt được tích hợp, Working có tài khoản.&lt;/li&gt;&lt;li style=&quot;margin: 0px; font-variant-numeric: normal; font-variant-east-asian: normal; font-variant-alternates: normal; font-size-adjust: none; font-kerning: auto; font-optical-sizing: auto; font-feature-settings: normal; font-variation-settings: normal; font-variant-position: normal; font-variant-emoji: normal; font-stretch: normal; font-size: 12px; line-height: normal; font-family: Times;&quot; class=&quot;li1&quot;&gt;&lt;b&gt;Main Flow&lt;/b&gt;:&lt;/li&gt;&lt;ol class=&quot;ol3&quot;&gt;&lt;li style=&quot;margin: 0px; font-variant-numeric: normal; font-variant-east-asian: normal; font-variant-alternates: normal; font-size-adjust: none; font-kerning: auto; font-optical-sizing: auto; font-feature-settings: normal; font-variation-settings: normal; font-variant-position: normal; font-variant-emoji: normal; font-stretch: normal; font-size: 12px; line-height: normal; font-family: Times;&quot; class=&quot;li1&quot;&gt;Working sử dụng web app check-in/check-out.&lt;/li&gt;&lt;li style=&quot;margin: 0px; font-variant-numeric: normal; font-variant-east-asian: normal; font-variant-alternates: normal; font-size-adjust: none; font-kerning: auto; font-optical-sizing: auto; font-feature-settings: normal; font-variation-settings: normal; font-variant-position: normal; font-variant-emoji: normal; font-stretch: normal; font-size: 12px; line-height: normal; font-family: Times;&quot; class=&quot;li1&quot;&gt;Hệ thống ghi nhận thời gian vào/ra, lưu vào bảng Attendance với trạng thái &quot;pending&quot;.&lt;/li&gt;&lt;li style=&quot;margin: 0px; font-variant-numeric: normal; font-variant-east-asian: normal; font-variant-alternates: normal; font-size-adjust: none; font-kerning: auto; font-optical-sizing: auto; font-feature-settings: normal; font-variation-settings: normal; font-variant-position: normal; font-variant-emoji: normal; font-stretch: normal; font-size: 12px; line-height: normal; font-family: Times;&quot; class=&quot;li1&quot;&gt;Leader xem danh sách chấm công trong chuyền, xác nhận tính chính xác (trạng thái: &quot;confirmed&quot;).&lt;/li&gt;&lt;li style=&quot;margin: 0px; font-variant-numeric: normal; font-variant-east-asian: normal; font-variant-alternates: normal; font-size-adjust: none; font-kerning: auto; font-optical-sizing: auto; font-feature-settings: normal; font-variation-settings: normal; font-variant-position: normal; font-variant-emoji: normal; font-stretch: normal; font-size: 12px; line-height: normal; font-family: Times;&quot; class=&quot;li1&quot;&gt;Manager duyệt chấm công đã xác nhận (trạng thái: &quot;approved&quot;) để sử dụng cho tính lương.&lt;/li&gt;&lt;li style=&quot;margin: 0px; font-variant-numeric: normal; font-variant-east-asian: normal; font-variant-alternates: normal; font-size-adjust: none; font-kerning: auto; font-optical-sizing: auto; font-feature-settings: normal; font-variation-settings: normal; font-variant-position: normal; font-variant-emoji: normal; font-stretch: normal; font-size: 12px; line-height: normal; font-family: Times;&quot; class=&quot;li1&quot;&gt;Factory Manager có thể kiểm tra và duyệt lại nếu cần.&lt;/li&gt;&lt;li style=&quot;margin: 0px; font-variant-numeric: normal; font-variant-east-asian: normal; font-variant-alternates: normal; font-size-adjust: none; font-kerning: auto; font-optical-sizing: auto; font-feature-settings: normal; font-variation-settings: normal; font-variant-position: normal; font-variant-emoji: normal; font-stretch: normal; font-size: 12px; line-height: normal; font-family: Times;&quot; class=&quot;li1&quot;&gt;Hệ thống gửi thông báo xác nhận chấm công (gọi Send Notifications).&lt;/li&gt;&lt;/ol&gt;&lt;li style=&quot;margin: 0px; font-variant-numeric: normal; font-variant-east-asian: normal; font-variant-alternates: normal; font-size-adjust: none; font-kerning: auto; font-optical-sizing: auto; font-feature-settings: normal; font-variation-settings: normal; font-variant-position: normal; font-variant-emoji: normal; font-stretch: normal; font-size: 12px; line-height: normal; font-family: Times;&quot; class=&quot;li1&quot;&gt;&lt;b&gt;Alternative Flow&lt;/b&gt;:&lt;/li&gt;&lt;ol class=&quot;ol3&quot;&gt;&lt;li style=&quot;margin: 0px; font-variant-numeric: normal; font-variant-east-asian: normal; font-variant-alternates: normal; font-size-adjust: none; font-kerning: auto; font-optical-sizing: auto; font-feature-settings: normal; font-variation-settings: normal; font-variant-position: normal; font-variant-emoji: normal; font-stretch: normal; font-size: 12px; line-height: normal; font-family: Times;&quot; class=&quot;li1&quot;&gt;A1: Nếu quét khuôn mặt lỗi (không nhận diện), Working nhập thủ công, Leader kiểm tra và xác nhận.&lt;/li&gt;&lt;li style=&quot;margin: 0px; font-variant-numeric: normal; font-variant-east-asian: normal; font-variant-alternates: normal; font-size-adjust: none; font-kerning: auto; font-optical-sizing: auto; font-feature-settings: normal; font-variation-settings: normal; font-variant-position: normal; font-variant-emoji: normal; font-stretch: normal; font-size: 12px; line-height: normal; font-family: Times;&quot; class=&quot;li1&quot;&gt;A2: Nếu Manager từ chối duyệt, Leader phải giải thích và chỉnh sửa.&lt;/li&gt;&lt;/ol&gt;&lt;li style=&quot;margin: 0px; font-variant-numeric: normal; font-variant-east-asian: normal; font-variant-alternates: normal; font-size-adjust: none; font-kerning: auto; font-optical-sizing: auto; font-feature-settings: normal; font-variation-settings: normal; font-variant-position: normal; font-variant-emoji: normal; font-stretch: normal; font-size: 12px; line-height: normal; font-family: Times;&quot; class=&quot;li1&quot;&gt;&lt;b&gt;Postconditions&lt;/b&gt;: Dữ liệu chấm công được lưu, trạng thái &quot;approved&quot; để tính lương.&lt;/li&gt;&lt;li style=&quot;margin: 0px; font-variant-numeric: normal; font-variant-east-asian: normal; font-variant-alternates: normal; font-size-adjust: none; font-kerning: auto; font-optical-sizing: auto; font-feature-settings: normal; font-variation-settings: normal; font-variant-position: normal; font-variant-emoji: normal; font-stretch: normal; font-size: 12px; line-height: normal; font-family: Times;&quot; class=&quot;li1&quot;&gt;&lt;b&gt;Interactions&lt;/b&gt;:&lt;/li&gt;&lt;ol class=&quot;ol3&quot;&gt;&lt;li style=&quot;margin: 0px; font-variant-numeric: normal; font-variant-east-asian: normal; font-variant-alternates: normal; font-size-adjust: none; font-kerning: auto; font-optical-sizing: auto; font-feature-settings: normal; font-variation-settings: normal; font-variant-position: normal; font-variant-emoji: normal; font-stretch: normal; font-size: 12px; line-height: normal; font-family: Times;&quot; class=&quot;li1&quot;&gt;Working &lt;span style=&quot;font-variant-numeric: normal; font-variant-east-asian: normal; font-variant-alternates: normal; font-size-adjust: none; font-kerning: auto; font-optical-sizing: auto; font-feature-settings: normal; font-variation-settings: normal; font-variant-position: normal; font-variant-emoji: normal; font-stretch: normal; line-height: normal; font-family: &amp;quot;Times New Roman&amp;quot;;&quot; class=&quot;s1&quot;&gt;→&lt;/span&gt; Hệ thống: Quét khuôn mặt.&lt;/li&gt;&lt;li style=&quot;margin: 0px; font-variant-numeric: normal; font-variant-east-asian: normal; font-variant-alternates: normal; font-size-adjust: none; font-kerning: auto; font-optical-sizing: auto; font-feature-settings: normal; font-variation-settings: normal; font-variant-position: normal; font-variant-emoji: normal; font-stretch: normal; font-size: 12px; line-height: normal; font-family: Times;&quot; class=&quot;li1&quot;&gt;Leader &lt;span style=&quot;font-variant-numeric: normal; font-variant-east-asian: normal; font-variant-alternates: normal; font-size-adjust: none; font-kerning: auto; font-optical-sizing: auto; font-feature-settings: normal; font-variation-settings: normal; font-variant-position: normal; font-variant-emoji: normal; font-stretch: normal; line-height: normal; font-family: &amp;quot;Times New Roman&amp;quot;;&quot; class=&quot;s1&quot;&gt;→&lt;/span&gt; Hệ thống: Xác nhận chấm công.&lt;/li&gt;&lt;li style=&quot;margin: 0px; font-variant-numeric: normal; font-variant-east-asian: normal; font-variant-alternates: normal; font-size-adjust: none; font-kerning: auto; font-optical-sizing: auto; font-feature-settings: normal; font-variation-settings: normal; font-variant-position: normal; font-variant-emoji: normal; font-stretch: normal; font-size: 12px; line-height: normal; font-family: Times;&quot; class=&quot;li1&quot;&gt;Manager &lt;span style=&quot;font-variant-numeric: normal; font-variant-east-asian: normal; font-variant-alternates: normal; font-size-adjust: none; font-kerning: auto; font-optical-sizing: auto; font-feature-settings: normal; font-variation-settings: normal; font-variant-position: normal; font-variant-emoji: normal; font-stretch: normal; line-height: normal; font-family: &amp;quot;Times New Roman&amp;quot;;&quot; class=&quot;s1&quot;&gt;→&lt;/span&gt; Hệ thống: Duyệt chấm công.&lt;/li&gt;&lt;li style=&quot;margin: 0px; font-variant-numeric: normal; font-variant-east-asian: normal; font-variant-alternates: normal; font-size-adjust: none; font-kerning: auto; font-optical-sizing: auto; font-feature-settings: normal; font-variation-settings: normal; font-variant-position: normal; font-variant-emoji: normal; font-stretch: normal; font-size: 12px; line-height: normal; font-family: Times;&quot; class=&quot;li1&quot;&gt;Factory Manager &lt;span style=&quot;font-variant-numeric: normal; font-variant-east-asian: normal; font-variant-alternates: normal; font-size-adjust: none; font-kerning: auto; font-optical-sizing: auto; font-feature-settings: normal; font-variation-settings: normal; font-variant-position: normal; font-variant-emoji: normal; font-stretch: normal; line-height: normal; font-family: &amp;quot;Times New Roman&amp;quot;;&quot; class=&quot;s1&quot;&gt;→&lt;/span&gt; Hệ thống: Duyệt lại nếu cần.&lt;/li&gt;&lt;/ol&gt;&lt;/ol&gt;&lt;li style=&quot;margin: 0px; font-variant-numeric: normal; font-variant-east-asian: normal; font-variant-alternates: normal; font-size-adjust: none; font-kerning: auto; font-optical-sizing: auto; font-feature-settings: normal; font-variation-settings: normal; font-variant-position: normal; font-variant-emoji: normal; font-stretch: normal; font-size: 12px; line-height: normal; font-family: Times;&quot; class=&quot;li1&quot;&gt;&lt;b&gt;Use Case: Payroll Management (tính lương)&lt;/b&gt;&lt;b&gt;&lt;/b&gt;&lt;/li&gt;&lt;ol style=&quot;list-style-type: lower-alpha;&quot; class=&quot;ol4&quot;&gt;&lt;li style=&quot;margin: 0px; font-variant-numeric: normal; font-variant-east-asian: normal; font-variant-alternates: normal; font-size-adjust: none; font-kerning: auto; font-optical-sizing: auto; font-feature-settings: normal; font-variation-settings: normal; font-variant-position: normal; font-variant-emoji: normal; font-stretch: normal; font-size: 12px; line-height: normal; font-family: Times;&quot; class=&quot;li1&quot;&gt;&lt;b&gt;Description&lt;/b&gt;: Tính lương dựa trên chấm công, sản lượng, và chế độ thưởng/phạt.&lt;/li&gt;&lt;li style=&quot;margin: 0px; font-variant-numeric: normal; font-variant-east-asian: normal; font-variant-alternates: normal; font-size-adjust: none; font-kerning: auto; font-optical-sizing: auto; font-feature-settings: normal; font-variation-settings: normal; font-variant-position: normal; font-variant-emoji: normal; font-stretch: normal; font-size: 12px; line-height: normal; font-family: Times;&quot; class=&quot;li1&quot;&gt;&lt;b&gt;Actors&lt;/b&gt;: Manager, Factory Manager, Factory Director.&lt;/li&gt;&lt;li style=&quot;margin: 0px; font-variant-numeric: normal; font-variant-east-asian: normal; font-variant-alternates: normal; font-size-adjust: none; font-kerning: auto; font-optical-sizing: auto; font-feature-settings: normal; font-variation-settings: normal; font-variant-position: normal; font-variant-emoji: normal; font-stretch: normal; font-size: 12px; line-height: normal; font-family: Times;&quot; class=&quot;li1&quot;&gt;&lt;b&gt;Preconditions&lt;/b&gt;: Chấm công đã được duyệt (Time Attendance), dữ liệu hiệu suất (Performance Evaluation).&lt;/li&gt;&lt;li style=&quot;margin: 0px; font-variant-numeric: normal; font-variant-east-asian: normal; font-variant-alternates: normal; font-size-adjust: none; font-kerning: auto; font-optical-sizing: auto; font-feature-settings: normal; font-variation-settings: normal; font-variant-position: normal; font-variant-emoji: normal; font-stretch: normal; font-size: 12px; line-height: normal; font-family: Times;&quot; class=&quot;li1&quot;&gt;&lt;b&gt;Main Flow&lt;/b&gt;:&lt;/li&gt;&lt;ol class=&quot;ol3&quot;&gt;&lt;li style=&quot;margin: 0px; font-variant-numeric: normal; font-variant-east-asian: normal; font-variant-alternates: normal; font-size-adjust: none; font-kerning: auto; font-optical-sizing: auto; font-feature-settings: normal; font-variation-settings: normal; font-variant-position: normal; font-variant-emoji: normal; font-stretch: normal; font-size: 12px; line-height: normal; font-family: Times;&quot; class=&quot;li1&quot;&gt;Manager truy cập hệ thống, lấy dữ liệu chấm công từ bảng Attendance (trạng thái &quot;approved&quot;).&lt;/li&gt;&lt;li style=&quot;margin: 0px; font-variant-numeric: normal; font-variant-east-asian: normal; font-variant-alternates: normal; font-size-adjust: none; font-kerning: auto; font-optical-sizing: auto; font-feature-settings: normal; font-variation-settings: normal; font-variant-position: normal; font-variant-emoji: normal; font-stretch: normal; font-size: 12px; line-height: normal; font-family: Times;&quot; class=&quot;li1&quot;&gt;Manager lấy dữ liệu hiệu suất từ bảng Performance (sản lượng, chất lượng).&lt;/li&gt;&lt;li style=&quot;margin: 0px; font-variant-numeric: normal; font-variant-east-asian: normal; font-variant-alternates: normal; font-size-adjust: none; font-kerning: auto; font-optical-sizing: auto; font-feature-settings: normal; font-variation-settings: normal; font-variant-position: normal; font-variant-emoji: normal; font-stretch: normal; font-size: 12px; line-height: normal; font-family: Times;&quot; class=&quot;li1&quot;&gt;Hệ thống tính lương dựa trên lương cơ bản, giờ làm (chấm công), sản lượng, và chế độ thưởng/phạt.&lt;/li&gt;&lt;li style=&quot;margin: 0px; font-variant-numeric: normal; font-variant-east-asian: normal; font-variant-alternates: normal; font-size-adjust: none; font-kerning: auto; font-optical-sizing: auto; font-feature-settings: normal; font-variation-settings: normal; font-variant-position: normal; font-variant-emoji: normal; font-stretch: normal; font-size: 12px; line-height: normal; font-family: Times;&quot; class=&quot;li1&quot;&gt;Manager lập bảng lương, lưu vào bảng Payroll (trạng thái: &quot;pending&quot;).&lt;/li&gt;&lt;li style=&quot;margin: 0px; font-variant-numeric: normal; font-variant-east-asian: normal; font-variant-alternates: normal; font-size-adjust: none; font-kerning: auto; font-optical-sizing: auto; font-feature-settings: normal; font-variation-settings: normal; font-variant-position: normal; font-variant-emoji: normal; font-stretch: normal; font-size: 12px; line-height: normal; font-family: Times;&quot; class=&quot;li1&quot;&gt;Factory Manager xem xét và duyệt bảng lương (trạng thái: &quot;approved&quot;).&lt;/li&gt;&lt;li style=&quot;margin: 0px; font-variant-numeric: normal; font-variant-east-asian: normal; font-variant-alternates: normal; font-size-adjust: none; font-kerning: auto; font-optical-sizing: auto; font-feature-settings: normal; font-variation-settings: normal; font-variant-position: normal; font-variant-emoji: normal; font-stretch: normal; font-size: 12px; line-height: normal; font-family: Times;&quot; class=&quot;li1&quot;&gt;Factory Director duyệt cuối cùng cho các bảng lương.&lt;/li&gt;&lt;li style=&quot;margin: 0px; font-variant-numeric: normal; font-variant-east-asian: normal; font-variant-alternates: normal; font-size-adjust: none; font-kerning: auto; font-optical-sizing: auto; font-feature-settings: normal; font-variation-settings: normal; font-variant-position: normal; font-variant-emoji: normal; font-stretch: normal; font-size: 12px; line-height: normal; font-family: Times;&quot; class=&quot;li1&quot;&gt;Hệ thống gửi thông báo lương đến Working (gọi Send Notifications).&lt;/li&gt;&lt;/ol&gt;&lt;li style=&quot;margin: 0px; font-variant-numeric: normal; font-variant-east-asian: normal; font-variant-alternates: normal; font-size-adjust: none; font-kerning: auto; font-optical-sizing: auto; font-feature-settings: normal; font-variation-settings: normal; font-variant-position: normal; font-variant-emoji: normal; font-stretch: normal; font-size: 12px; line-height: normal; font-family: Times;&quot; class=&quot;li1&quot;&gt;&lt;b&gt;Alternative Flow&lt;/b&gt;:&lt;/li&gt;&lt;ol class=&quot;ol3&quot;&gt;&lt;li style=&quot;margin: 0px; font-variant-numeric: normal; font-variant-east-asian: normal; font-variant-alternates: normal; font-size-adjust: none; font-kerning: auto; font-optical-sizing: auto; font-feature-settings: normal; font-variation-settings: normal; font-variant-position: normal; font-variant-emoji: normal; font-stretch: normal; font-size: 12px; line-height: normal; font-family: Times;&quot; class=&quot;li1&quot;&gt;A1: Nếu dữ liệu chấm công thiếu, Manager yêu cầu Leader bổ sung.&lt;/li&gt;&lt;li style=&quot;margin: 0px; font-variant-numeric: normal; font-variant-east-asian: normal; font-variant-alternates: normal; font-size-adjust: none; font-kerning: auto; font-optical-sizing: auto; font-feature-settings: normal; font-variation-settings: normal; font-variant-position: normal; font-variant-emoji: normal; font-stretch: normal; font-size: 12px; line-height: normal; font-family: Times;&quot; class=&quot;li1&quot;&gt;A2: Nếu Factory Director từ chối duyệt, Factory Manager chỉnh sửa và trình lại.&lt;/li&gt;&lt;/ol&gt;&lt;li style=&quot;margin: 0px; font-variant-numeric: normal; font-variant-east-asian: normal; font-variant-alternates: normal; font-size-adjust: none; font-kerning: auto; font-optical-sizing: auto; font-feature-settings: normal; font-variation-settings: normal; font-variant-position: normal; font-variant-emoji: normal; font-stretch: normal; font-size: 12px; line-height: normal; font-family: Times;&quot; class=&quot;li1&quot;&gt;&lt;b&gt;Postconditions&lt;/b&gt;: Bảng lương được duyệt, lưu vào database, thông báo gửi đến nhân viên.&lt;/li&gt;&lt;li style=&quot;margin: 0px; font-variant-numeric: normal; font-variant-east-asian: normal; font-variant-alternates: normal; font-size-adjust: none; font-kerning: auto; font-optical-sizing: auto; font-feature-settings: normal; font-variation-settings: normal; font-variant-position: normal; font-variant-emoji: normal; font-stretch: normal; font-size: 12px; line-height: normal; font-family: Times;&quot; class=&quot;li1&quot;&gt;&lt;b&gt;Interactions&lt;/b&gt;:&lt;/li&gt;&lt;ol class=&quot;ol3&quot;&gt;&lt;li style=&quot;margin: 0px; font-variant-numeric: normal; font-variant-east-asian: normal; font-variant-alternates: normal; font-size-adjust: none; font-kerning: auto; font-optical-sizing: auto; font-feature-settings: normal; font-variation-settings: normal; font-variant-position: normal; font-variant-emoji: normal; font-stretch: normal; font-size: 12px; line-height: normal; font-family: Times;&quot; class=&quot;li1&quot;&gt;Manager &lt;span style=&quot;font-variant-numeric: normal; font-variant-east-asian: normal; font-variant-alternates: normal; font-size-adjust: none; font-kerning: auto; font-optical-sizing: auto; font-feature-settings: normal; font-variation-settings: normal; font-variant-position: normal; font-variant-emoji: normal; font-stretch: normal; line-height: normal; font-family: &amp;quot;Times New Roman&amp;quot;;&quot; class=&quot;s1&quot;&gt;→&lt;/span&gt; Hệ thống: Lập và tính lương.&lt;/li&gt;&lt;li style=&quot;margin: 0px; font-variant-numeric: normal; font-variant-east-asian: normal; font-variant-alternates: normal; font-size-adjust: none; font-kerning: auto; font-optical-sizing: auto; font-feature-settings: normal; font-variation-settings: normal; font-variant-position: normal; font-variant-emoji: normal; font-stretch: normal; font-size: 12px; line-height: normal; font-family: Times;&quot; class=&quot;li1&quot;&gt;Factory Manager &lt;span style=&quot;font-variant-numeric: normal; font-variant-east-asian: normal; font-variant-alternates: normal; font-size-adjust: none; font-kerning: auto; font-optical-sizing: auto; font-feature-settings: normal; font-variation-settings: normal; font-variant-position: normal; font-variant-emoji: normal; font-stretch: normal; line-height: normal; font-family: &amp;quot;Times New Roman&amp;quot;;&quot; class=&quot;s1&quot;&gt;→&lt;/span&gt; Hệ thống: Duyệt bảng lương.&lt;/li&gt;&lt;li style=&quot;margin: 0px; font-variant-numeric: normal; font-variant-east-asian: normal; font-variant-alternates: normal; font-size-adjust: none; font-kerning: auto; font-optical-sizing: auto; font-feature-settings: normal; font-variation-settings: normal; font-variant-position: normal; font-variant-emoji: normal; font-stretch: normal; font-size: 12px; line-height: normal; font-family: Times;&quot; class=&quot;li1&quot;&gt;Factory Director &lt;span style=&quot;font-variant-numeric: normal; font-variant-east-asian: normal; font-variant-alternates: normal; font-size-adjust: none; font-kerning: auto; font-optical-sizing: auto; font-feature-settings: normal; font-variation-settings: normal; font-variant-position: normal; font-variant-emoji: normal; font-stretch: normal; line-height: normal; font-family: &amp;quot;Times New Roman&amp;quot;;&quot; class=&quot;s1&quot;&gt;→&lt;/span&gt; Hệ thống: Duyệt cuối (nếu cần).&lt;/li&gt;&lt;li style=&quot;margin: 0px; font-variant-numeric: normal; font-variant-east-asian: normal; font-variant-alternates: normal; font-size-adjust: none; font-kerning: auto; font-optical-sizing: auto; font-feature-settings: normal; font-variation-settings: normal; font-variant-position: normal; font-variant-emoji: normal; font-stretch: normal; font-size: 12px; line-height: normal; font-family: Times;&quot; class=&quot;li1&quot;&gt;Hệ thống &lt;span style=&quot;font-variant-numeric: normal; font-variant-east-asian: normal; font-variant-alternates: normal; font-size-adjust: none; font-kerning: auto; font-optical-sizing: auto; font-feature-settings: normal; font-variation-settings: normal; font-variant-position: normal; font-variant-emoji: normal; font-stretch: normal; line-height: normal; font-family: &amp;quot;Times New Roman&amp;quot;;&quot; class=&quot;s1&quot;&gt;→&lt;/span&gt; Working: Gửi thông báo lương.&lt;/li&gt;&lt;/ol&gt;&lt;/ol&gt;&lt;li style=&quot;margin: 0px; font-variant-numeric: normal; font-variant-east-asian: normal; font-variant-alternates: normal; font-size-adjust: none; font-kerning: auto; font-optical-sizing: auto; font-feature-settings: normal; font-variation-settings: normal; font-variant-position: normal; font-variant-emoji: normal; font-stretch: normal; font-size: 12px; line-height: normal; font-family: Times;&quot; class=&quot;li1&quot;&gt;&lt;b&gt;Use Case: Performance Evaluation&lt;/b&gt;&lt;b&gt;&lt;/b&gt;&lt;/li&gt;&lt;ol style=&quot;list-style-type: lower-alpha;&quot; class=&quot;ol4&quot;&gt;&lt;li style=&quot;margin: 0px; font-variant-numeric: normal; font-variant-east-asian: normal; font-variant-alternates: normal; font-size-adjust: none; font-kerning: auto; font-optical-sizing: auto; font-feature-settings: normal; font-variation-settings: normal; font-variant-position: normal; font-variant-emoji: normal; font-stretch: normal; font-size: 12px; line-height: normal; font-family: Times;&quot; class=&quot;li1&quot;&gt;&lt;b&gt;Description&lt;/b&gt;: Đánh giá hiệu suất công nhân dựa trên sản lượng và chất lượng để hỗ trợ tính lương.&lt;/li&gt;&lt;li style=&quot;margin: 0px; font-variant-numeric: normal; font-variant-east-asian: normal; font-variant-alternates: normal; font-size-adjust: none; font-kerning: auto; font-optical-sizing: auto; font-feature-settings: normal; font-variation-settings: normal; font-variant-position: normal; font-variant-emoji: normal; font-stretch: normal; font-size: 12px; line-height: normal; font-family: Times;&quot; class=&quot;li1&quot;&gt;&lt;b&gt;Actors&lt;/b&gt;: Manager, Factory Manager.&lt;/li&gt;&lt;li style=&quot;margin: 0px; font-variant-numeric: normal; font-variant-east-asian: normal; font-variant-alternates: normal; font-size-adjust: none; font-kerning: auto; font-optical-sizing: auto; font-feature-settings: normal; font-variation-settings: normal; font-variant-position: normal; font-variant-emoji: normal; font-stretch: normal; font-size: 12px; line-height: normal; font-family: Times;&quot; class=&quot;li1&quot;&gt;&lt;b&gt;Preconditions&lt;/b&gt;: Dữ liệu sản lượng chuyền có sẵn, Working đã chấm công.&lt;/li&gt;&lt;li style=&quot;margin: 0px; font-variant-numeric: normal; font-variant-east-asian: normal; font-variant-alternates: normal; font-size-adjust: none; font-kerning: auto; font-optical-sizing: auto; font-feature-settings: normal; font-variation-settings: normal; font-variant-position: normal; font-variant-emoji: normal; font-stretch: normal; font-size: 12px; line-height: normal; font-family: Times;&quot; class=&quot;li1&quot;&gt;&lt;b&gt;Main Flow&lt;/b&gt;:&lt;/li&gt;&lt;ol class=&quot;ol3&quot;&gt;&lt;li style=&quot;margin: 0px; font-variant-numeric: normal; font-variant-east-asian: normal; font-variant-alternates: normal; font-size-adjust: none; font-kerning: auto; font-optical-sizing: auto; font-feature-settings: normal; font-variation-settings: normal; font-variant-position: normal; font-variant-emoji: normal; font-stretch: normal; font-size: 12px; line-height: normal; font-family: Times;&quot; class=&quot;li1&quot;&gt;Manager truy cập hệ thống, nhập dữ liệu sản lượng và chất lượng của Working trong chuyền (lấy từ bảng Line).&lt;/li&gt;&lt;li style=&quot;margin: 0px; font-variant-numeric: normal; font-variant-east-asian: normal; font-variant-alternates: normal; font-size-adjust: none; font-kerning: auto; font-optical-sizing: auto; font-feature-settings: normal; font-variation-settings: normal; font-variant-position: normal; font-variant-emoji: normal; font-stretch: normal; font-size: 12px; line-height: normal; font-family: Times;&quot; class=&quot;li1&quot;&gt;Hệ thống lưu đánh giá vào bảng Performance (productivity, quality_score).&lt;/li&gt;&lt;li style=&quot;margin: 0px; font-variant-numeric: normal; font-variant-east-asian: normal; font-variant-alternates: normal; font-size-adjust: none; font-kerning: auto; font-optical-sizing: auto; font-feature-settings: normal; font-variation-settings: normal; font-variant-position: normal; font-variant-emoji: normal; font-stretch: normal; font-size: 12px; line-height: normal; font-family: Times;&quot; class=&quot;li1&quot;&gt;Factory Manager xem xét và duyệt đánh giá nếu cần.&lt;/li&gt;&lt;li style=&quot;margin: 0px; font-variant-numeric: normal; font-variant-east-asian: normal; font-variant-alternates: normal; font-size-adjust: none; font-kerning: auto; font-optical-sizing: auto; font-feature-settings: normal; font-variation-settings: normal; font-variant-position: normal; font-variant-emoji: normal; font-stretch: normal; font-size: 12px; line-height: normal; font-family: Times;&quot; class=&quot;li1&quot;&gt;Dữ liệu đánh giá được sử dụng trong Payroll Management.&lt;/li&gt;&lt;/ol&gt;&lt;li style=&quot;margin: 0px; font-variant-numeric: normal; font-variant-east-asian: normal; font-variant-alternates: normal; font-size-adjust: none; font-kerning: auto; font-optical-sizing: auto; font-feature-settings: normal; font-variation-settings: normal; font-variant-position: normal; font-variant-emoji: normal; font-stretch: normal; font-size: 12px; line-height: normal; font-family: Times;&quot; class=&quot;li1&quot;&gt;&lt;b&gt;Alternative Flow&lt;/b&gt;:&lt;/li&gt;&lt;ol class=&quot;ol3&quot;&gt;&lt;li style=&quot;margin: 0px; font-variant-numeric: normal; font-variant-east-asian: normal; font-variant-alternates: normal; font-size-adjust: none; font-kerning: auto; font-optical-sizing: auto; font-feature-settings: normal; font-variation-settings: normal; font-variant-position: normal; font-variant-emoji: normal; font-stretch: normal; font-size: 12px; line-height: normal; font-family: Times;&quot; class=&quot;li1&quot;&gt;A1: Nếu dữ liệu sản lượng không chính xác, Manager yêu cầu Leader xác minh lại.&lt;/li&gt;&lt;/ol&gt;&lt;li style=&quot;margin: 0px; font-variant-numeric: normal; font-variant-east-asian: normal; font-variant-alternates: normal; font-size-adjust: none; font-kerning: auto; font-optical-sizing: auto; font-feature-settings: normal; font-variation-settings: normal; font-variant-position: normal; font-variant-emoji: normal; font-stretch: normal; font-size: 12px; line-height: normal; font-family: Times;&quot; class=&quot;li1&quot;&gt;&lt;b&gt;Postconditions&lt;/b&gt;: Đánh giá hiệu suất được lưu, sẵn sàng cho tính lương.&lt;/li&gt;&lt;li style=&quot;margin: 0px; font-variant-numeric: normal; font-variant-east-asian: normal; font-variant-alternates: normal; font-size-adjust: none; font-kerning: auto; font-optical-sizing: auto; font-feature-settings: normal; font-variation-settings: normal; font-variant-position: normal; font-variant-emoji: normal; font-stretch: normal; font-size: 12px; line-height: normal; font-family: Times;&quot; class=&quot;li1&quot;&gt;&lt;b&gt;Interactions&lt;/b&gt;:&lt;/li&gt;&lt;ol class=&quot;ol3&quot;&gt;&lt;li style=&quot;margin: 0px; font-variant-numeric: normal; font-variant-east-asian: normal; font-variant-alternates: normal; font-size-adjust: none; font-kerning: auto; font-optical-sizing: auto; font-feature-settings: normal; font-variation-settings: normal; font-variant-position: normal; font-variant-emoji: normal; font-stretch: normal; font-size: 12px; line-height: normal; font-family: Times;&quot; class=&quot;li1&quot;&gt;Manager &lt;span style=&quot;font-variant-numeric: normal; font-variant-east-asian: normal; font-variant-alternates: normal; font-size-adjust: none; font-kerning: auto; font-optical-sizing: auto; font-feature-settings: normal; font-variation-settings: normal; font-variant-position: normal; font-variant-emoji: normal; font-stretch: normal; line-height: normal; font-family: &amp;quot;Times New Roman&amp;quot;;&quot; class=&quot;s1&quot;&gt;→&lt;/span&gt; Hệ thống: Nhập và đánh giá hiệu suất.&lt;/li&gt;&lt;li style=&quot;margin: 0px; font-variant-numeric: normal; font-variant-east-asian: normal; font-variant-alternates: normal; font-size-adjust: none; font-kerning: auto; font-optical-sizing: auto; font-feature-settings: normal; font-variation-settings: normal; font-variant-position: normal; font-variant-emoji: normal; font-stretch: normal; font-size: 12px; line-height: normal; font-family: Times;&quot; class=&quot;li1&quot;&gt;Factory Manager &lt;span style=&quot;font-variant-numeric: normal; font-variant-east-asian: normal; font-variant-alternates: normal; font-size-adjust: none; font-kerning: auto; font-optical-sizing: auto; font-feature-settings: normal; font-variation-settings: normal; font-variant-position: normal; font-variant-emoji: normal; font-stretch: normal; line-height: normal; font-family: &amp;quot;Times New Roman&amp;quot;;&quot; class=&quot;s1&quot;&gt;→&lt;/span&gt; Hệ thống: Duyệt đánh giá.&lt;/li&gt;&lt;/ol&gt;&lt;/ol&gt;&lt;/ol&gt;&lt;/ol&gt;&lt;/ol&gt;&lt;/h1&gt;" style="text;html=1;whiteSpace=wrap;overflow=hidden;rounded=0;" vertex="1" parent="1">
          <mxGeometry x="10" y="470" width="750" height="930" as="geometry" />
        </mxCell>
        <mxCell id="58W5N2cCdCU6qjsc6LSd-12" value="" style="endArrow=classic;html=1;rounded=0;entryX=0;entryY=0;entryDx=0;entryDy=0;exitX=1;exitY=0.3333333333333333;exitDx=0;exitDy=0;exitPerimeter=0;" edge="1" parent="1" source="tMKc-CelzGZNNdJW9Dln-1" target="tMKc-CelzGZNNdJW9Dln-2">
          <mxGeometry width="50" height="50" relative="1" as="geometry">
            <mxPoint x="190" y="80" as="sourcePoint" />
            <mxPoint x="720" y="240" as="targetPoint" />
          </mxGeometry>
        </mxCell>
        <mxCell id="58W5N2cCdCU6qjsc6LSd-13" value="" style="endArrow=classic;html=1;rounded=0;exitX=1;exitY=0.3333333333333333;exitDx=0;exitDy=0;exitPerimeter=0;entryX=0.5;entryY=0;entryDx=0;entryDy=0;" edge="1" parent="1" source="tMKc-CelzGZNNdJW9Dln-3" target="tMKc-CelzGZNNdJW9Dln-2">
          <mxGeometry width="50" height="50" relative="1" as="geometry">
            <mxPoint x="670" y="290" as="sourcePoint" />
            <mxPoint x="720" y="240" as="targetPoint" />
          </mxGeometry>
        </mxCell>
        <mxCell id="58W5N2cCdCU6qjsc6LSd-14" value="" style="endArrow=classic;html=1;rounded=0;exitX=0;exitY=0.3333333333333333;exitDx=0;exitDy=0;exitPerimeter=0;entryX=1;entryY=0;entryDx=0;entryDy=0;" edge="1" parent="1" source="tMKc-CelzGZNNdJW9Dln-6" target="tMKc-CelzGZNNdJW9Dln-2">
          <mxGeometry width="50" height="50" relative="1" as="geometry">
            <mxPoint x="670" y="290" as="sourcePoint" />
            <mxPoint x="720" y="240" as="targetPoint" />
          </mxGeometry>
        </mxCell>
        <mxCell id="58W5N2cCdCU6qjsc6LSd-15" value="" style="endArrow=classic;html=1;rounded=0;exitX=0;exitY=0.3333333333333333;exitDx=0;exitDy=0;exitPerimeter=0;entryX=0.5;entryY=0;entryDx=0;entryDy=0;" edge="1" parent="1" source="tMKc-CelzGZNNdJW9Dln-4" target="tMKc-CelzGZNNdJW9Dln-2">
          <mxGeometry width="50" height="50" relative="1" as="geometry">
            <mxPoint x="370" y="110" as="sourcePoint" />
            <mxPoint x="720" y="240" as="targetPoint" />
          </mxGeometry>
        </mxCell>
        <mxCell id="58W5N2cCdCU6qjsc6LSd-16" value="" style="endArrow=classic;html=1;rounded=0;exitX=1;exitY=0.3333333333333333;exitDx=0;exitDy=0;exitPerimeter=0;entryX=0.5;entryY=1;entryDx=0;entryDy=0;" edge="1" parent="1" source="tMKc-CelzGZNNdJW9Dln-8" target="tMKc-CelzGZNNdJW9Dln-7">
          <mxGeometry width="50" height="50" relative="1" as="geometry">
            <mxPoint x="670" y="290" as="sourcePoint" />
            <mxPoint x="720" y="240" as="targetPoint" />
          </mxGeometry>
        </mxCell>
        <mxCell id="58W5N2cCdCU6qjsc6LSd-17" value="" style="endArrow=classic;html=1;rounded=0;exitX=0;exitY=0.3333333333333333;exitDx=0;exitDy=0;exitPerimeter=0;entryX=0.5;entryY=1;entryDx=0;entryDy=0;" edge="1" parent="1" source="tMKc-CelzGZNNdJW9Dln-9" target="tMKc-CelzGZNNdJW9Dln-7">
          <mxGeometry width="50" height="50" relative="1" as="geometry">
            <mxPoint x="670" y="290" as="sourcePoint" />
            <mxPoint x="720" y="240" as="targetPoint" />
          </mxGeometry>
        </mxCell>
        <mxCell id="58W5N2cCdCU6qjsc6LSd-18" value="" style="endArrow=classic;html=1;rounded=0;exitX=1;exitY=0.3333333333333333;exitDx=0;exitDy=0;exitPerimeter=0;entryX=0.5;entryY=0;entryDx=0;entryDy=0;" edge="1" parent="1" source="tMKc-CelzGZNNdJW9Dln-6" target="tMKc-CelzGZNNdJW9Dln-5">
          <mxGeometry width="50" height="50" relative="1" as="geometry">
            <mxPoint x="670" y="290" as="sourcePoint" />
            <mxPoint x="720" y="240" as="targetPoint" />
          </mxGeometry>
        </mxCell>
        <mxCell id="58W5N2cCdCU6qjsc6LSd-20" value="Use" style="endArrow=open;endSize=12;dashed=1;html=1;rounded=0;exitX=0.5;exitY=1;exitDx=0;exitDy=0;entryX=0.5;entryY=0;entryDx=0;entryDy=0;" edge="1" parent="1" source="tMKc-CelzGZNNdJW9Dln-2" target="tMKc-CelzGZNNdJW9Dln-5">
          <mxGeometry width="160" relative="1" as="geometry">
            <mxPoint x="620" y="260" as="sourcePoint" />
            <mxPoint x="780" y="260" as="targetPoint" />
          </mxGeometry>
        </mxCell>
        <mxCell id="58W5N2cCdCU6qjsc6LSd-21" value="Use" style="endArrow=open;endSize=12;dashed=1;html=1;rounded=0;exitX=0.5;exitY=1;exitDx=0;exitDy=0;entryX=0.5;entryY=0;entryDx=0;entryDy=0;" edge="1" parent="1" source="tMKc-CelzGZNNdJW9Dln-2" target="tMKc-CelzGZNNdJW9Dln-7">
          <mxGeometry width="160" relative="1" as="geometry">
            <mxPoint x="620" y="260" as="sourcePoint" />
            <mxPoint x="780" y="260" as="targetPoint" />
          </mxGeometry>
        </mxCell>
      </root>
    </mxGraphModel>
  </diagram>
  <diagram id="Nm9QfRCuKNhS5H2ShQkc" name="Module du tru kinh phi">
    <mxGraphModel dx="946" dy="530" grid="1" gridSize="10" guides="1" tooltips="1" connect="1" arrows="1" fold="1" page="1" pageScale="1" pageWidth="827" pageHeight="1169" math="0" shadow="0">
      <root>
        <mxCell id="0" />
        <mxCell id="1" parent="0" />
        <mxCell id="xS4nnFd5l0bnOy1Df-cs-1" value="Admin" style="shape=umlActor;verticalLabelPosition=bottom;verticalAlign=top;html=1;outlineConnect=0;strokeColor=#CC0000;" vertex="1" parent="1">
          <mxGeometry x="320" y="30" width="30" height="60" as="geometry" />
        </mxCell>
        <mxCell id="xS4nnFd5l0bnOy1Df-cs-2" value="&lt;p style=&quot;white-space-collapse: preserve;&quot; dir=&quot;auto&quot;&gt;Generate HR Reports&lt;/p&gt;" style="ellipse;whiteSpace=wrap;html=1;" vertex="1" parent="1">
          <mxGeometry x="450" y="170" width="180" height="50" as="geometry" />
        </mxCell>
        <mxCell id="xS4nnFd5l0bnOy1Df-cs-3" value="Factory Director" style="shape=umlActor;verticalLabelPosition=bottom;verticalAlign=top;html=1;outlineConnect=0;strokeColor=#000099;" vertex="1" parent="1">
          <mxGeometry x="150" y="30" width="30" height="60" as="geometry" />
        </mxCell>
        <mxCell id="xS4nnFd5l0bnOy1Df-cs-4" value="&lt;p style=&quot;white-space: pre-wrap;&quot; dir=&quot;auto&quot;&gt;Factory Manager&lt;/p&gt;" style="shape=umlActor;verticalLabelPosition=bottom;verticalAlign=top;html=1;outlineConnect=0;" vertex="1" parent="1">
          <mxGeometry x="450" y="30" width="30" height="60" as="geometry" />
        </mxCell>
        <mxCell id="xS4nnFd5l0bnOy1Df-cs-5" value="&lt;p style=&quot;white-space: pre-wrap;&quot; dir=&quot;auto&quot;&gt;Manager&lt;/p&gt;" style="shape=umlActor;verticalLabelPosition=bottom;verticalAlign=top;html=1;outlineConnect=0;" vertex="1" parent="1">
          <mxGeometry x="564" y="30" width="30" height="60" as="geometry" />
        </mxCell>
        <mxCell id="xS4nnFd5l0bnOy1Df-cs-6" value="&lt;p style=&quot;white-space-collapse: preserve;&quot; dir=&quot;auto&quot;&gt;Forecast HR Budget&lt;/p&gt;" style="ellipse;whiteSpace=wrap;html=1;" vertex="1" parent="1">
          <mxGeometry x="140" y="170" width="180" height="50" as="geometry" />
        </mxCell>
        <mxCell id="xS4nnFd5l0bnOy1Df-cs-20" value="" style="endArrow=classic;html=1;rounded=0;exitX=1;exitY=0.3333333333333333;exitDx=0;exitDy=0;exitPerimeter=0;entryX=0.5;entryY=0;entryDx=0;entryDy=0;" edge="1" parent="1" source="xS4nnFd5l0bnOy1Df-cs-3" target="xS4nnFd5l0bnOy1Df-cs-6">
          <mxGeometry width="50" height="50" relative="1" as="geometry">
            <mxPoint x="390" y="220" as="sourcePoint" />
            <mxPoint x="440" y="170" as="targetPoint" />
          </mxGeometry>
        </mxCell>
        <mxCell id="xS4nnFd5l0bnOy1Df-cs-22" value="" style="endArrow=classic;html=1;rounded=0;exitX=0;exitY=0.3333333333333333;exitDx=0;exitDy=0;exitPerimeter=0;entryX=0.5;entryY=0;entryDx=0;entryDy=0;" edge="1" parent="1" source="xS4nnFd5l0bnOy1Df-cs-5" target="xS4nnFd5l0bnOy1Df-cs-2">
          <mxGeometry width="50" height="50" relative="1" as="geometry">
            <mxPoint x="390" y="220" as="sourcePoint" />
            <mxPoint x="440" y="170" as="targetPoint" />
          </mxGeometry>
        </mxCell>
        <mxCell id="xS4nnFd5l0bnOy1Df-cs-23" value="" style="endArrow=classic;html=1;rounded=0;exitX=1;exitY=0.3333333333333333;exitDx=0;exitDy=0;exitPerimeter=0;entryX=0.5;entryY=0;entryDx=0;entryDy=0;" edge="1" parent="1" source="xS4nnFd5l0bnOy1Df-cs-4" target="xS4nnFd5l0bnOy1Df-cs-2">
          <mxGeometry width="50" height="50" relative="1" as="geometry">
            <mxPoint x="390" y="220" as="sourcePoint" />
            <mxPoint x="440" y="170" as="targetPoint" />
          </mxGeometry>
        </mxCell>
        <mxCell id="xS4nnFd5l0bnOy1Df-cs-24" value="" style="endArrow=classic;html=1;rounded=0;exitX=0;exitY=0.3333333333333333;exitDx=0;exitDy=0;exitPerimeter=0;entryX=1;entryY=0.5;entryDx=0;entryDy=0;" edge="1" parent="1" source="xS4nnFd5l0bnOy1Df-cs-4" target="xS4nnFd5l0bnOy1Df-cs-6">
          <mxGeometry width="50" height="50" relative="1" as="geometry">
            <mxPoint x="390" y="220" as="sourcePoint" />
            <mxPoint x="440" y="170" as="targetPoint" />
          </mxGeometry>
        </mxCell>
        <mxCell id="xS4nnFd5l0bnOy1Df-cs-25" value="" style="endArrow=classic;html=1;rounded=0;exitX=1;exitY=0.3333333333333333;exitDx=0;exitDy=0;exitPerimeter=0;entryX=0;entryY=0.5;entryDx=0;entryDy=0;" edge="1" parent="1" source="xS4nnFd5l0bnOy1Df-cs-1" target="xS4nnFd5l0bnOy1Df-cs-2">
          <mxGeometry width="50" height="50" relative="1" as="geometry">
            <mxPoint x="390" y="220" as="sourcePoint" />
            <mxPoint x="440" y="170" as="targetPoint" />
          </mxGeometry>
        </mxCell>
        <mxCell id="xS4nnFd5l0bnOy1Df-cs-26" value="" style="endArrow=classic;html=1;rounded=0;exitX=0;exitY=0.3333333333333333;exitDx=0;exitDy=0;exitPerimeter=0;entryX=0.5;entryY=0;entryDx=0;entryDy=0;" edge="1" parent="1" source="xS4nnFd5l0bnOy1Df-cs-1" target="xS4nnFd5l0bnOy1Df-cs-6">
          <mxGeometry width="50" height="50" relative="1" as="geometry">
            <mxPoint x="390" y="220" as="sourcePoint" />
            <mxPoint x="440" y="170" as="targetPoint" />
          </mxGeometry>
        </mxCell>
        <mxCell id="xS4nnFd5l0bnOy1Df-cs-27" value="" style="endArrow=classic;html=1;rounded=0;exitX=1;exitY=0.3333333333333333;exitDx=0;exitDy=0;exitPerimeter=0;entryX=0;entryY=0.5;entryDx=0;entryDy=0;" edge="1" parent="1" source="xS4nnFd5l0bnOy1Df-cs-3" target="xS4nnFd5l0bnOy1Df-cs-2">
          <mxGeometry width="50" height="50" relative="1" as="geometry">
            <mxPoint x="390" y="220" as="sourcePoint" />
            <mxPoint x="440" y="170" as="targetPoint" />
          </mxGeometry>
        </mxCell>
        <mxCell id="xS4nnFd5l0bnOy1Df-cs-28" value="" style="endArrow=classic;html=1;rounded=0;entryX=0;entryY=0.5;entryDx=0;entryDy=0;" edge="1" parent="1" source="xS4nnFd5l0bnOy1Df-cs-6" target="xS4nnFd5l0bnOy1Df-cs-2">
          <mxGeometry relative="1" as="geometry">
            <mxPoint x="230" y="220" as="sourcePoint" />
            <mxPoint x="230" y="320" as="targetPoint" />
          </mxGeometry>
        </mxCell>
        <mxCell id="xS4nnFd5l0bnOy1Df-cs-29" value="use" style="edgeLabel;resizable=0;html=1;;align=center;verticalAlign=middle;" connectable="0" vertex="1" parent="xS4nnFd5l0bnOy1Df-cs-28">
          <mxGeometry relative="1" as="geometry" />
        </mxCell>
        <mxCell id="xS4nnFd5l0bnOy1Df-cs-30" value="&lt;h1 style=&quot;margin-top: 0px;&quot;&gt;&lt;ol style=&quot;list-style-type: upper-roman; font-size: medium; font-weight: 400;&quot; class=&quot;ol1&quot;&gt;&lt;ol style=&quot;list-style-type: upper-alpha;&quot; class=&quot;ol2&quot;&gt;&lt;li style=&quot;margin: 0px; font-variant-numeric: normal; font-variant-east-asian: normal; font-variant-alternates: normal; font-size-adjust: none; font-kerning: auto; font-optical-sizing: auto; font-feature-settings: normal; font-variation-settings: normal; font-variant-position: normal; font-variant-emoji: normal; font-stretch: normal; font-size: 16px; line-height: normal; font-family: Times;&quot; class=&quot;li1&quot;&gt;&lt;b&gt;Module Dự trù kinh phí&lt;span class=&quot;Apple-converted-space&quot;&gt;&amp;nbsp;&lt;/span&gt;&lt;/b&gt;&lt;/li&gt;&lt;ol class=&quot;ol3&quot;&gt;&lt;li style=&quot;margin: 0px; font-variant-numeric: normal; font-variant-east-asian: normal; font-variant-alternates: normal; font-size-adjust: none; font-kerning: auto; font-optical-sizing: auto; font-feature-settings: normal; font-variation-settings: normal; font-variant-position: normal; font-variant-emoji: normal; font-stretch: normal; font-size: 12px; line-height: normal; font-family: Times;&quot; class=&quot;li2&quot;&gt;&lt;b&gt;Use Case: Forecast HR Budget&lt;/b&gt;&lt;b&gt;&lt;/b&gt;&lt;/li&gt;&lt;ol style=&quot;list-style-type: lower-alpha;&quot; class=&quot;ol4&quot;&gt;&lt;li style=&quot;margin: 0px; font-variant-numeric: normal; font-variant-east-asian: normal; font-variant-alternates: normal; font-size-adjust: none; font-kerning: auto; font-optical-sizing: auto; font-feature-settings: normal; font-variation-settings: normal; font-variant-position: normal; font-variant-emoji: normal; font-stretch: normal; font-size: 12px; line-height: normal; font-family: Times;&quot; class=&quot;li2&quot;&gt;&lt;b&gt;Description&lt;/b&gt;: Dự báo chi phí nhân sự và nhu cầu lao động theo mùa vụ/đơn hàng.&lt;/li&gt;&lt;li style=&quot;margin: 0px; font-variant-numeric: normal; font-variant-east-asian: normal; font-variant-alternates: normal; font-size-adjust: none; font-kerning: auto; font-optical-sizing: auto; font-feature-settings: normal; font-variation-settings: normal; font-variant-position: normal; font-variant-emoji: normal; font-stretch: normal; font-size: 12px; line-height: normal; font-family: Times;&quot; class=&quot;li2&quot;&gt;&lt;b&gt;Actors&lt;/b&gt;: Factory Manager, Factory Director, Admin.&lt;/li&gt;&lt;li style=&quot;margin: 0px; font-variant-numeric: normal; font-variant-east-asian: normal; font-variant-alternates: normal; font-size-adjust: none; font-kerning: auto; font-optical-sizing: auto; font-feature-settings: normal; font-variation-settings: normal; font-variant-position: normal; font-variant-emoji: normal; font-stretch: normal; font-size: 12px; line-height: normal; font-family: Times;&quot; class=&quot;li2&quot;&gt;&lt;b&gt;Preconditions&lt;/b&gt;: Dữ liệu báo cáo nhân sự (Generate HR Reports)&lt;/li&gt;&lt;li style=&quot;margin: 0px; font-variant-numeric: normal; font-variant-east-asian: normal; font-variant-alternates: normal; font-size-adjust: none; font-kerning: auto; font-optical-sizing: auto; font-feature-settings: normal; font-variation-settings: normal; font-variant-position: normal; font-variant-emoji: normal; font-stretch: normal; font-size: 12px; line-height: normal; font-family: Times;&quot; class=&quot;li2&quot;&gt;&lt;b&gt;Main Flow&lt;/b&gt;:&lt;/li&gt;&lt;ol class=&quot;ol3&quot;&gt;&lt;li style=&quot;margin: 0px; font-variant-numeric: normal; font-variant-east-asian: normal; font-variant-alternates: normal; font-size-adjust: none; font-kerning: auto; font-optical-sizing: auto; font-feature-settings: normal; font-variation-settings: normal; font-variant-position: normal; font-variant-emoji: normal; font-stretch: normal; font-size: 12px; line-height: normal; font-family: Times;&quot; class=&quot;li2&quot;&gt;Factory Manager truy cập hệ thống, nhập dữ liệu dự báo (chi phí, số lượng công nhân cần) dựa trên đơn hàng/mùa vụ.&lt;/li&gt;&lt;li style=&quot;margin: 0px; font-variant-numeric: normal; font-variant-east-asian: normal; font-variant-alternates: normal; font-size-adjust: none; font-kerning: auto; font-optical-sizing: auto; font-feature-settings: normal; font-variation-settings: normal; font-variant-position: normal; font-variant-emoji: normal; font-stretch: normal; font-size: 12px; line-height: normal; font-family: Times;&quot; class=&quot;li2&quot;&gt;Hệ thống lưu dự báo vào bảng BudgetForecast (trạng thái: &quot;pending&quot;).&lt;/li&gt;&lt;li style=&quot;margin: 0px; font-variant-numeric: normal; font-variant-east-asian: normal; font-variant-alternates: normal; font-size-adjust: none; font-kerning: auto; font-optical-sizing: auto; font-feature-settings: normal; font-variation-settings: normal; font-variant-position: normal; font-variant-emoji: normal; font-stretch: normal; font-size: 12px; line-height: normal; font-family: Times;&quot; class=&quot;li2&quot;&gt;Factory Director xem xét và duyệt dự báo (trạng thái: &quot;approved&quot;).&lt;/li&gt;&lt;li style=&quot;margin: 0px; font-variant-numeric: normal; font-variant-east-asian: normal; font-variant-alternates: normal; font-size-adjust: none; font-kerning: auto; font-optical-sizing: auto; font-feature-settings: normal; font-variation-settings: normal; font-variant-position: normal; font-variant-emoji: normal; font-stretch: normal; font-size: 12px; line-height: normal; font-family: Times;&quot; class=&quot;li2&quot;&gt;Admin có thể chỉnh sửa hoặc duyệt lại nếu cần.&lt;/li&gt;&lt;li style=&quot;margin: 0px; font-variant-numeric: normal; font-variant-east-asian: normal; font-variant-alternates: normal; font-size-adjust: none; font-kerning: auto; font-optical-sizing: auto; font-feature-settings: normal; font-variation-settings: normal; font-variant-position: normal; font-variant-emoji: normal; font-stretch: normal; font-size: 12px; line-height: normal; font-family: Times;&quot; class=&quot;li2&quot;&gt;Hệ thống gửi thông báo về kết quả duyệt (gọi Send Notifications).&lt;/li&gt;&lt;/ol&gt;&lt;li style=&quot;margin: 0px; font-variant-numeric: normal; font-variant-east-asian: normal; font-variant-alternates: normal; font-size-adjust: none; font-kerning: auto; font-optical-sizing: auto; font-feature-settings: normal; font-variation-settings: normal; font-variant-position: normal; font-variant-emoji: normal; font-stretch: normal; font-size: 12px; line-height: normal; font-family: Times;&quot; class=&quot;li2&quot;&gt;&lt;b&gt;Alternative Flow&lt;/b&gt;:&lt;/li&gt;&lt;ol class=&quot;ol3&quot;&gt;&lt;li style=&quot;margin: 0px; font-variant-numeric: normal; font-variant-east-asian: normal; font-variant-alternates: normal; font-size-adjust: none; font-kerning: auto; font-optical-sizing: auto; font-feature-settings: normal; font-variation-settings: normal; font-variant-position: normal; font-variant-emoji: normal; font-stretch: normal; font-size: 12px; line-height: normal; font-family: Times;&quot; class=&quot;li2&quot;&gt;A1: Nếu dự báo không hợp lý, Factory Director yêu cầu Factory Manager chỉnh sửa.&lt;/li&gt;&lt;/ol&gt;&lt;li style=&quot;margin: 0px; font-variant-numeric: normal; font-variant-east-asian: normal; font-variant-alternates: normal; font-size-adjust: none; font-kerning: auto; font-optical-sizing: auto; font-feature-settings: normal; font-variation-settings: normal; font-variant-position: normal; font-variant-emoji: normal; font-stretch: normal; font-size: 12px; line-height: normal; font-family: Times;&quot; class=&quot;li2&quot;&gt;&lt;b&gt;Postconditions&lt;/b&gt;: Dự báo được duyệt, lưu vào database.&lt;/li&gt;&lt;li style=&quot;margin: 0px; font-variant-numeric: normal; font-variant-east-asian: normal; font-variant-alternates: normal; font-size-adjust: none; font-kerning: auto; font-optical-sizing: auto; font-feature-settings: normal; font-variation-settings: normal; font-variant-position: normal; font-variant-emoji: normal; font-stretch: normal; font-size: 12px; line-height: normal; font-family: Times;&quot; class=&quot;li2&quot;&gt;&lt;b&gt;Interactions&lt;/b&gt;:&lt;/li&gt;&lt;ol class=&quot;ol3&quot;&gt;&lt;li style=&quot;margin: 0px; font-variant-numeric: normal; font-variant-east-asian: normal; font-variant-alternates: normal; font-size-adjust: none; font-kerning: auto; font-optical-sizing: auto; font-feature-settings: normal; font-variation-settings: normal; font-variant-position: normal; font-variant-emoji: normal; font-stretch: normal; font-size: 12px; line-height: normal; font-family: Times;&quot; class=&quot;li2&quot;&gt;Factory Manager &lt;span style=&quot;font-variant-numeric: normal; font-variant-east-asian: normal; font-variant-alternates: normal; font-size-adjust: none; font-kerning: auto; font-optical-sizing: auto; font-feature-settings: normal; font-variation-settings: normal; font-variant-position: normal; font-variant-emoji: normal; font-stretch: normal; line-height: normal; font-family: &amp;quot;Times New Roman&amp;quot;;&quot; class=&quot;s1&quot;&gt;→&lt;/span&gt; Hệ thống: Nhập dự báo.&lt;/li&gt;&lt;li style=&quot;margin: 0px; font-variant-numeric: normal; font-variant-east-asian: normal; font-variant-alternates: normal; font-size-adjust: none; font-kerning: auto; font-optical-sizing: auto; font-feature-settings: normal; font-variation-settings: normal; font-variant-position: normal; font-variant-emoji: normal; font-stretch: normal; font-size: 12px; line-height: normal; font-family: Times;&quot; class=&quot;li2&quot;&gt;Factory Director &lt;span style=&quot;font-variant-numeric: normal; font-variant-east-asian: normal; font-variant-alternates: normal; font-size-adjust: none; font-kerning: auto; font-optical-sizing: auto; font-feature-settings: normal; font-variation-settings: normal; font-variant-position: normal; font-variant-emoji: normal; font-stretch: normal; line-height: normal; font-family: &amp;quot;Times New Roman&amp;quot;;&quot; class=&quot;s1&quot;&gt;→&lt;/span&gt; Hệ thống: Duyệt dự báo.&lt;/li&gt;&lt;li style=&quot;margin: 0px; font-variant-numeric: normal; font-variant-east-asian: normal; font-variant-alternates: normal; font-size-adjust: none; font-kerning: auto; font-optical-sizing: auto; font-feature-settings: normal; font-variation-settings: normal; font-variant-position: normal; font-variant-emoji: normal; font-stretch: normal; font-size: 12px; line-height: normal; font-family: Times;&quot; class=&quot;li2&quot;&gt;Admin &lt;span style=&quot;font-variant-numeric: normal; font-variant-east-asian: normal; font-variant-alternates: normal; font-size-adjust: none; font-kerning: auto; font-optical-sizing: auto; font-feature-settings: normal; font-variation-settings: normal; font-variant-position: normal; font-variant-emoji: normal; font-stretch: normal; line-height: normal; font-family: &amp;quot;Times New Roman&amp;quot;;&quot; class=&quot;s1&quot;&gt;→&lt;/span&gt; Hệ thống: Can thiệp nếu cần.&lt;/li&gt;&lt;/ol&gt;&lt;/ol&gt;&lt;li style=&quot;margin: 0px; font-variant-numeric: normal; font-variant-east-asian: normal; font-variant-alternates: normal; font-size-adjust: none; font-kerning: auto; font-optical-sizing: auto; font-feature-settings: normal; font-variation-settings: normal; font-variant-position: normal; font-variant-emoji: normal; font-stretch: normal; font-size: 12px; line-height: normal; font-family: Times;&quot; class=&quot;li2&quot;&gt;&lt;b&gt;Use Case: Generate HR Reports (Bảng báo cáo nhân sự)&lt;/b&gt;&lt;b&gt;&lt;/b&gt;&lt;/li&gt;&lt;ol style=&quot;list-style-type: lower-alpha;&quot; class=&quot;ol4&quot;&gt;&lt;li style=&quot;margin: 0px; font-variant-numeric: normal; font-variant-east-asian: normal; font-variant-alternates: normal; font-size-adjust: none; font-kerning: auto; font-optical-sizing: auto; font-feature-settings: normal; font-variation-settings: normal; font-variant-position: normal; font-variant-emoji: normal; font-stretch: normal; font-size: 12px; line-height: normal; font-family: Times;&quot; class=&quot;li2&quot;&gt;&lt;b&gt;Description&lt;/b&gt;: Tạo báo cáo nhân sự về số lượng công nhân, tỷ lệ nghỉ việc, chi phí lương.&lt;/li&gt;&lt;li style=&quot;margin: 0px; font-variant-numeric: normal; font-variant-east-asian: normal; font-variant-alternates: normal; font-size-adjust: none; font-kerning: auto; font-optical-sizing: auto; font-feature-settings: normal; font-variation-settings: normal; font-variant-position: normal; font-variant-emoji: normal; font-stretch: normal; font-size: 12px; line-height: normal; font-family: Times;&quot; class=&quot;li2&quot;&gt;&lt;b&gt;Actors&lt;/b&gt;: Factory Manager, Factory Director, Manager, Admin.&lt;/li&gt;&lt;li style=&quot;margin: 0px; font-variant-numeric: normal; font-variant-east-asian: normal; font-variant-alternates: normal; font-size-adjust: none; font-kerning: auto; font-optical-sizing: auto; font-feature-settings: normal; font-variation-settings: normal; font-variant-position: normal; font-variant-emoji: normal; font-stretch: normal; font-size: 12px; line-height: normal; font-family: Times;&quot; class=&quot;li2&quot;&gt;&lt;b&gt;Preconditions&lt;/b&gt;: Dữ liệu chấm công, lương, và hiệu suất.&lt;/li&gt;&lt;li style=&quot;margin: 0px; font-variant-numeric: normal; font-variant-east-asian: normal; font-variant-alternates: normal; font-size-adjust: none; font-kerning: auto; font-optical-sizing: auto; font-feature-settings: normal; font-variation-settings: normal; font-variant-position: normal; font-variant-emoji: normal; font-stretch: normal; font-size: 12px; line-height: normal; font-family: Times;&quot; class=&quot;li2&quot;&gt;&lt;b&gt;Main Flow&lt;/b&gt;:&lt;/li&gt;&lt;ol class=&quot;ol3&quot;&gt;&lt;li style=&quot;margin: 0px; font-variant-numeric: normal; font-variant-east-asian: normal; font-variant-alternates: normal; font-size-adjust: none; font-kerning: auto; font-optical-sizing: auto; font-feature-settings: normal; font-variation-settings: normal; font-variant-position: normal; font-variant-emoji: normal; font-stretch: normal; font-size: 12px; line-height: normal; font-family: Times;&quot; class=&quot;li2&quot;&gt;Manager tạo báo cáo cơ bản từ chuyền (số công nhân, hiệu suất).&lt;/li&gt;&lt;li style=&quot;margin: 0px; font-variant-numeric: normal; font-variant-east-asian: normal; font-variant-alternates: normal; font-size-adjust: none; font-kerning: auto; font-optical-sizing: auto; font-feature-settings: normal; font-variation-settings: normal; font-variant-position: normal; font-variant-emoji: normal; font-stretch: normal; font-size: 12px; line-height: normal; font-family: Times;&quot; class=&quot;li2&quot;&gt;Factory Manager tổng hợp báo cáo từ các chuyền, tạo báo cáo cấp xí nghiệp (số lượng công nhân, tỷ lệ nghỉ việc).&lt;/li&gt;&lt;li style=&quot;margin: 0px; font-variant-numeric: normal; font-variant-east-asian: normal; font-variant-alternates: normal; font-size-adjust: none; font-kerning: auto; font-optical-sizing: auto; font-feature-settings: normal; font-variation-settings: normal; font-variant-position: normal; font-variant-emoji: normal; font-stretch: normal; font-size: 12px; line-height: normal; font-family: Times;&quot; class=&quot;li2&quot;&gt;Hệ thống lưu báo cáo vào bảng Report (trạng thái: &quot;pending&quot;).&lt;/li&gt;&lt;li style=&quot;margin: 0px; font-variant-numeric: normal; font-variant-east-asian: normal; font-variant-alternates: normal; font-size-adjust: none; font-kerning: auto; font-optical-sizing: auto; font-feature-settings: normal; font-variation-settings: normal; font-variant-position: normal; font-variant-emoji: normal; font-stretch: normal; font-size: 12px; line-height: normal; font-family: Times;&quot; class=&quot;li2&quot;&gt;Factory Director duyệt báo cáo (trạng thái: &quot;approved&quot;).&lt;/li&gt;&lt;li style=&quot;margin: 0px; font-variant-numeric: normal; font-variant-east-asian: normal; font-variant-alternates: normal; font-size-adjust: none; font-kerning: auto; font-optical-sizing: auto; font-feature-settings: normal; font-variation-settings: normal; font-variant-position: normal; font-variant-emoji: normal; font-stretch: normal; font-size: 12px; line-height: normal; font-family: Times;&quot; class=&quot;li2&quot;&gt;Admin có thể xem hoặc chỉnh sửa báo cáo.&lt;/li&gt;&lt;li style=&quot;margin: 0px; font-variant-numeric: normal; font-variant-east-asian: normal; font-variant-alternates: normal; font-size-adjust: none; font-kerning: auto; font-optical-sizing: auto; font-feature-settings: normal; font-variation-settings: normal; font-variant-position: normal; font-variant-emoji: normal; font-stretch: normal; font-size: 12px; line-height: normal; font-family: Times;&quot; class=&quot;li2&quot;&gt;Báo cáo được sử dụng cho Forecast HR Budget.&lt;/li&gt;&lt;/ol&gt;&lt;li style=&quot;margin: 0px; font-variant-numeric: normal; font-variant-east-asian: normal; font-variant-alternates: normal; font-size-adjust: none; font-kerning: auto; font-optical-sizing: auto; font-feature-settings: normal; font-variation-settings: normal; font-variant-position: normal; font-variant-emoji: normal; font-stretch: normal; font-size: 12px; line-height: normal; font-family: Times;&quot; class=&quot;li2&quot;&gt;&lt;b&gt;Alternative Flow&lt;/b&gt;:&lt;/li&gt;&lt;ol class=&quot;ol3&quot;&gt;&lt;li style=&quot;margin: 0px; font-variant-numeric: normal; font-variant-east-asian: normal; font-variant-alternates: normal; font-size-adjust: none; font-kerning: auto; font-optical-sizing: auto; font-feature-settings: normal; font-variation-settings: normal; font-variant-position: normal; font-variant-emoji: normal; font-stretch: normal; font-size: 12px; line-height: normal; font-family: Times;&quot; class=&quot;li2&quot;&gt;A1: Nếu báo cáo có lỗi, Factory Director yêu cầu Factory Manager chỉnh sửa.&lt;/li&gt;&lt;/ol&gt;&lt;li style=&quot;margin: 0px; font-variant-numeric: normal; font-variant-east-asian: normal; font-variant-alternates: normal; font-size-adjust: none; font-kerning: auto; font-optical-sizing: auto; font-feature-settings: normal; font-variation-settings: normal; font-variant-position: normal; font-variant-emoji: normal; font-stretch: normal; font-size: 12px; line-height: normal; font-family: Times;&quot; class=&quot;li2&quot;&gt;&lt;b&gt;Interactions&lt;/b&gt;:&lt;/li&gt;&lt;ol class=&quot;ol3&quot;&gt;&lt;li style=&quot;margin: 0px; font-variant-numeric: normal; font-variant-east-asian: normal; font-variant-alternates: normal; font-size-adjust: none; font-kerning: auto; font-optical-sizing: auto; font-feature-settings: normal; font-variation-settings: normal; font-variant-position: normal; font-variant-emoji: normal; font-stretch: normal; font-size: 12px; line-height: normal; font-family: Times;&quot; class=&quot;li2&quot;&gt;Manager &lt;span style=&quot;font-variant-numeric: normal; font-variant-east-asian: normal; font-variant-alternates: normal; font-size-adjust: none; font-kerning: auto; font-optical-sizing: auto; font-feature-settings: normal; font-variation-settings: normal; font-variant-position: normal; font-variant-emoji: normal; font-stretch: normal; line-height: normal; font-family: &amp;quot;Times New Roman&amp;quot;;&quot; class=&quot;s1&quot;&gt;→&lt;/span&gt; Hệ thống: Tạo báo cáo cơ bản.&lt;/li&gt;&lt;li style=&quot;margin: 0px; font-variant-numeric: normal; font-variant-east-asian: normal; font-variant-alternates: normal; font-size-adjust: none; font-kerning: auto; font-optical-sizing: auto; font-feature-settings: normal; font-variation-settings: normal; font-variant-position: normal; font-variant-emoji: normal; font-stretch: normal; font-size: 12px; line-height: normal; font-family: Times;&quot; class=&quot;li2&quot;&gt;Factory Manager &lt;span style=&quot;font-variant-numeric: normal; font-variant-east-asian: normal; font-variant-alternates: normal; font-size-adjust: none; font-kerning: auto; font-optical-sizing: auto; font-feature-settings: normal; font-variation-settings: normal; font-variant-position: normal; font-variant-emoji: normal; font-stretch: normal; line-height: normal; font-family: &amp;quot;Times New Roman&amp;quot;;&quot; class=&quot;s1&quot;&gt;→&lt;/span&gt; Hệ thống: Tổng hợp báo cáo.&lt;/li&gt;&lt;li style=&quot;margin: 0px; font-variant-numeric: normal; font-variant-east-asian: normal; font-variant-alternates: normal; font-size-adjust: none; font-kerning: auto; font-optical-sizing: auto; font-feature-settings: normal; font-variation-settings: normal; font-variant-position: normal; font-variant-emoji: normal; font-stretch: normal; font-size: 12px; line-height: normal; font-family: Times;&quot; class=&quot;li2&quot;&gt;Factory Director &lt;span style=&quot;font-variant-numeric: normal; font-variant-east-asian: normal; font-variant-alternates: normal; font-size-adjust: none; font-kerning: auto; font-optical-sizing: auto; font-feature-settings: normal; font-variation-settings: normal; font-variant-position: normal; font-variant-emoji: normal; font-stretch: normal; line-height: normal; font-family: &amp;quot;Times New Roman&amp;quot;;&quot; class=&quot;s1&quot;&gt;→&lt;/span&gt; Hệ thống: Duyệt báo cáo.&lt;/li&gt;&lt;li style=&quot;margin: 0px; font-variant-numeric: normal; font-variant-east-asian: normal; font-variant-alternates: normal; font-size-adjust: none; font-kerning: auto; font-optical-sizing: auto; font-feature-settings: normal; font-variation-settings: normal; font-variant-position: normal; font-variant-emoji: normal; font-stretch: normal; font-size: 12px; line-height: normal; font-family: Times;&quot; class=&quot;li2&quot;&gt;Admin &lt;span style=&quot;font-variant-numeric: normal; font-variant-east-asian: normal; font-variant-alternates: normal; font-size-adjust: none; font-kerning: auto; font-optical-sizing: auto; font-feature-settings: normal; font-variation-settings: normal; font-variant-position: normal; font-variant-emoji: normal; font-stretch: normal; line-height: normal; font-family: &amp;quot;Times New Roman&amp;quot;;&quot; class=&quot;s1&quot;&gt;→&lt;/span&gt; Hệ thống: Xem/chỉnh sửa.&lt;/li&gt;&lt;/ol&gt;&lt;/ol&gt;&lt;/ol&gt;&lt;/ol&gt;&lt;/ol&gt;&lt;/h1&gt;" style="text;html=1;whiteSpace=wrap;overflow=hidden;rounded=0;" vertex="1" parent="1">
          <mxGeometry x="10" y="250" width="790" height="560" as="geometry" />
        </mxCell>
      </root>
    </mxGraphModel>
  </diagram>
  <diagram id="_khL2LjHI88Lu-52ive3" name="Module quan tri nhan su">
    <mxGraphModel dx="1351" dy="757" grid="1" gridSize="10" guides="1" tooltips="1" connect="1" arrows="1" fold="1" page="1" pageScale="1" pageWidth="827" pageHeight="1169" math="0" shadow="0">
      <root>
        <mxCell id="0" />
        <mxCell id="1" parent="0" />
        <mxCell id="7MQv_6eaz1CNt6une2rL-1" value="Admin" style="shape=umlActor;verticalLabelPosition=bottom;verticalAlign=top;html=1;outlineConnect=0;strokeColor=#CC0000;" vertex="1" parent="1">
          <mxGeometry x="210" y="130" width="30" height="60" as="geometry" />
        </mxCell>
        <mxCell id="7MQv_6eaz1CNt6une2rL-2" value="&lt;p style=&quot;white-space-collapse: preserve;&quot; dir=&quot;auto&quot;&gt;Manage Employee Profiles&lt;/p&gt;" style="ellipse;whiteSpace=wrap;html=1;" vertex="1" parent="1">
          <mxGeometry x="220" y="280" width="180" height="50" as="geometry" />
        </mxCell>
        <mxCell id="7MQv_6eaz1CNt6une2rL-3" value="Factory Director" style="shape=umlActor;verticalLabelPosition=bottom;verticalAlign=top;html=1;outlineConnect=0;strokeColor=#000099;" vertex="1" parent="1">
          <mxGeometry x="70" y="130" width="30" height="60" as="geometry" />
        </mxCell>
        <mxCell id="7MQv_6eaz1CNt6une2rL-4" value="&lt;p style=&quot;white-space-collapse: preserve;&quot; dir=&quot;auto&quot;&gt;Manage leave Request&lt;/p&gt;" style="ellipse;whiteSpace=wrap;html=1;" vertex="1" parent="1">
          <mxGeometry x="460" y="280" width="180" height="50" as="geometry" />
        </mxCell>
        <mxCell id="7MQv_6eaz1CNt6une2rL-5" value="&lt;p style=&quot;white-space: pre-wrap;&quot; dir=&quot;auto&quot;&gt;Factory Manager&lt;/p&gt;" style="shape=umlActor;verticalLabelPosition=bottom;verticalAlign=top;html=1;outlineConnect=0;" vertex="1" parent="1">
          <mxGeometry x="380" y="130" width="30" height="60" as="geometry" />
        </mxCell>
        <mxCell id="7MQv_6eaz1CNt6une2rL-6" value="&lt;p style=&quot;white-space-collapse: preserve;&quot; dir=&quot;auto&quot;&gt;Manage Line Assignment&lt;/p&gt;" style="ellipse;whiteSpace=wrap;html=1;" vertex="1" parent="1">
          <mxGeometry x="50" y="350" width="180" height="50" as="geometry" />
        </mxCell>
        <mxCell id="7MQv_6eaz1CNt6une2rL-7" value="&lt;p style=&quot;white-space: pre-wrap;&quot; dir=&quot;auto&quot;&gt;Manager&lt;/p&gt;" style="shape=umlActor;verticalLabelPosition=bottom;verticalAlign=top;html=1;outlineConnect=0;" vertex="1" parent="1">
          <mxGeometry x="600" y="130" width="30" height="60" as="geometry" />
        </mxCell>
        <mxCell id="7MQv_6eaz1CNt6une2rL-8" value="&lt;p style=&quot;white-space: pre-wrap;&quot; dir=&quot;auto&quot;&gt;Leader&lt;/p&gt;" style="shape=umlActor;verticalLabelPosition=bottom;verticalAlign=top;html=1;outlineConnect=0;" vertex="1" parent="1">
          <mxGeometry x="500" y="130" width="30" height="60" as="geometry" />
        </mxCell>
        <mxCell id="7MQv_6eaz1CNt6une2rL-9" value="&lt;p style=&quot;white-space-collapse: preserve;&quot; dir=&quot;auto&quot;&gt;View Personal Info&lt;/p&gt;" style="ellipse;whiteSpace=wrap;html=1;" vertex="1" parent="1">
          <mxGeometry x="600" y="350" width="180" height="50" as="geometry" />
        </mxCell>
        <mxCell id="7MQv_6eaz1CNt6une2rL-10" value="&lt;p style=&quot;white-space: pre-wrap;&quot; dir=&quot;auto&quot;&gt;Working&lt;/p&gt;" style="shape=umlActor;verticalLabelPosition=bottom;verticalAlign=top;html=1;outlineConnect=0;" vertex="1" parent="1">
          <mxGeometry x="700" y="130" width="30" height="60" as="geometry" />
        </mxCell>
        <mxCell id="7MQv_6eaz1CNt6une2rL-11" value="&lt;p style=&quot;white-space-collapse: preserve;&quot; dir=&quot;auto&quot;&gt;Login/Logout&lt;/p&gt;" style="ellipse;whiteSpace=wrap;html=1;" vertex="1" parent="1">
          <mxGeometry x="370" y="20" width="180" height="50" as="geometry" />
        </mxCell>
        <mxCell id="7MQv_6eaz1CNt6une2rL-12" style="edgeStyle=orthogonalEdgeStyle;rounded=0;orthogonalLoop=1;jettySize=auto;html=1;exitX=0.5;exitY=1;exitDx=0;exitDy=0;entryX=0.5;entryY=0;entryDx=0;entryDy=0;entryPerimeter=0;" edge="1" parent="1" source="7MQv_6eaz1CNt6une2rL-11" target="7MQv_6eaz1CNt6une2rL-3">
          <mxGeometry relative="1" as="geometry" />
        </mxCell>
        <mxCell id="7MQv_6eaz1CNt6une2rL-13" style="edgeStyle=orthogonalEdgeStyle;rounded=0;orthogonalLoop=1;jettySize=auto;html=1;exitX=0.5;exitY=1;exitDx=0;exitDy=0;entryX=0.5;entryY=0;entryDx=0;entryDy=0;entryPerimeter=0;" edge="1" parent="1" source="7MQv_6eaz1CNt6une2rL-11" target="7MQv_6eaz1CNt6une2rL-1">
          <mxGeometry relative="1" as="geometry" />
        </mxCell>
        <mxCell id="7MQv_6eaz1CNt6une2rL-14" style="edgeStyle=orthogonalEdgeStyle;rounded=0;orthogonalLoop=1;jettySize=auto;html=1;exitX=0.5;exitY=1;exitDx=0;exitDy=0;entryX=0.5;entryY=0;entryDx=0;entryDy=0;entryPerimeter=0;" edge="1" parent="1" source="7MQv_6eaz1CNt6une2rL-11" target="7MQv_6eaz1CNt6une2rL-5">
          <mxGeometry relative="1" as="geometry" />
        </mxCell>
        <mxCell id="7MQv_6eaz1CNt6une2rL-15" style="edgeStyle=orthogonalEdgeStyle;rounded=0;orthogonalLoop=1;jettySize=auto;html=1;exitX=0.5;exitY=1;exitDx=0;exitDy=0;entryX=0.5;entryY=0;entryDx=0;entryDy=0;entryPerimeter=0;" edge="1" parent="1" source="7MQv_6eaz1CNt6une2rL-11" target="7MQv_6eaz1CNt6une2rL-8">
          <mxGeometry relative="1" as="geometry" />
        </mxCell>
        <mxCell id="7MQv_6eaz1CNt6une2rL-16" style="edgeStyle=orthogonalEdgeStyle;rounded=0;orthogonalLoop=1;jettySize=auto;html=1;exitX=0.5;exitY=1;exitDx=0;exitDy=0;entryX=0.5;entryY=0;entryDx=0;entryDy=0;entryPerimeter=0;" edge="1" parent="1" source="7MQv_6eaz1CNt6une2rL-11" target="7MQv_6eaz1CNt6une2rL-7">
          <mxGeometry relative="1" as="geometry" />
        </mxCell>
        <mxCell id="7MQv_6eaz1CNt6une2rL-17" style="edgeStyle=orthogonalEdgeStyle;rounded=0;orthogonalLoop=1;jettySize=auto;html=1;exitX=0.5;exitY=1;exitDx=0;exitDy=0;entryX=0.5;entryY=0;entryDx=0;entryDy=0;entryPerimeter=0;" edge="1" parent="1" source="7MQv_6eaz1CNt6une2rL-11" target="7MQv_6eaz1CNt6une2rL-10">
          <mxGeometry relative="1" as="geometry" />
        </mxCell>
        <mxCell id="7MQv_6eaz1CNt6une2rL-19" value="" style="endArrow=classic;html=1;rounded=0;exitX=1;exitY=0.3333333333333333;exitDx=0;exitDy=0;exitPerimeter=0;entryX=0.5;entryY=0;entryDx=0;entryDy=0;" edge="1" parent="1" source="7MQv_6eaz1CNt6une2rL-3" target="7MQv_6eaz1CNt6une2rL-6">
          <mxGeometry width="50" height="50" relative="1" as="geometry">
            <mxPoint x="480" y="330" as="sourcePoint" />
            <mxPoint x="530" y="280" as="targetPoint" />
          </mxGeometry>
        </mxCell>
        <mxCell id="7MQv_6eaz1CNt6une2rL-20" value="" style="endArrow=classic;html=1;rounded=0;exitX=1;exitY=0.3333333333333333;exitDx=0;exitDy=0;exitPerimeter=0;entryX=0.5;entryY=0;entryDx=0;entryDy=0;" edge="1" parent="1" source="7MQv_6eaz1CNt6une2rL-3" target="7MQv_6eaz1CNt6une2rL-2">
          <mxGeometry width="50" height="50" relative="1" as="geometry">
            <mxPoint x="480" y="330" as="sourcePoint" />
            <mxPoint x="530" y="280" as="targetPoint" />
          </mxGeometry>
        </mxCell>
        <mxCell id="7MQv_6eaz1CNt6une2rL-21" value="" style="endArrow=classic;html=1;rounded=0;exitX=1;exitY=0.3333333333333333;exitDx=0;exitDy=0;exitPerimeter=0;entryX=0.5;entryY=0;entryDx=0;entryDy=0;" edge="1" parent="1" source="7MQv_6eaz1CNt6une2rL-1" target="7MQv_6eaz1CNt6une2rL-2">
          <mxGeometry width="50" height="50" relative="1" as="geometry">
            <mxPoint x="480" y="330" as="sourcePoint" />
            <mxPoint x="530" y="280" as="targetPoint" />
          </mxGeometry>
        </mxCell>
        <mxCell id="7MQv_6eaz1CNt6une2rL-22" value="" style="endArrow=classic;html=1;rounded=0;exitX=0;exitY=0.3333333333333333;exitDx=0;exitDy=0;exitPerimeter=0;entryX=0.5;entryY=0;entryDx=0;entryDy=0;" edge="1" parent="1" source="7MQv_6eaz1CNt6une2rL-1" target="7MQv_6eaz1CNt6une2rL-6">
          <mxGeometry width="50" height="50" relative="1" as="geometry">
            <mxPoint x="480" y="330" as="sourcePoint" />
            <mxPoint x="530" y="280" as="targetPoint" />
          </mxGeometry>
        </mxCell>
        <mxCell id="7MQv_6eaz1CNt6une2rL-24" value="" style="endArrow=classic;html=1;rounded=0;exitX=0;exitY=0.3333333333333333;exitDx=0;exitDy=0;exitPerimeter=0;entryX=0.5;entryY=0;entryDx=0;entryDy=0;" edge="1" parent="1" source="7MQv_6eaz1CNt6une2rL-10" target="7MQv_6eaz1CNt6une2rL-9">
          <mxGeometry width="50" height="50" relative="1" as="geometry">
            <mxPoint x="480" y="330" as="sourcePoint" />
            <mxPoint x="530" y="280" as="targetPoint" />
          </mxGeometry>
        </mxCell>
        <mxCell id="7MQv_6eaz1CNt6une2rL-25" value="" style="endArrow=classic;html=1;rounded=0;exitX=0;exitY=0.3333333333333333;exitDx=0;exitDy=0;exitPerimeter=0;entryX=0.5;entryY=0;entryDx=0;entryDy=0;" edge="1" parent="1" source="7MQv_6eaz1CNt6une2rL-7" target="7MQv_6eaz1CNt6une2rL-4">
          <mxGeometry width="50" height="50" relative="1" as="geometry">
            <mxPoint x="480" y="330" as="sourcePoint" />
            <mxPoint x="530" y="280" as="targetPoint" />
          </mxGeometry>
        </mxCell>
        <mxCell id="7MQv_6eaz1CNt6une2rL-26" value="" style="endArrow=classic;html=1;rounded=0;exitX=1;exitY=0.3333333333333333;exitDx=0;exitDy=0;exitPerimeter=0;entryX=0.5;entryY=0;entryDx=0;entryDy=0;" edge="1" parent="1" source="7MQv_6eaz1CNt6une2rL-8" target="7MQv_6eaz1CNt6une2rL-4">
          <mxGeometry width="50" height="50" relative="1" as="geometry">
            <mxPoint x="480" y="330" as="sourcePoint" />
            <mxPoint x="530" y="280" as="targetPoint" />
          </mxGeometry>
        </mxCell>
        <mxCell id="7MQv_6eaz1CNt6une2rL-27" value="" style="endArrow=classic;html=1;rounded=0;exitX=1;exitY=0.3333333333333333;exitDx=0;exitDy=0;exitPerimeter=0;entryX=0.5;entryY=0;entryDx=0;entryDy=0;" edge="1" parent="1" source="7MQv_6eaz1CNt6une2rL-5" target="7MQv_6eaz1CNt6une2rL-4">
          <mxGeometry width="50" height="50" relative="1" as="geometry">
            <mxPoint x="480" y="330" as="sourcePoint" />
            <mxPoint x="530" y="280" as="targetPoint" />
          </mxGeometry>
        </mxCell>
        <mxCell id="7MQv_6eaz1CNt6une2rL-28" value="" style="endArrow=classic;html=1;rounded=0;exitX=0;exitY=0.3333333333333333;exitDx=0;exitDy=0;exitPerimeter=0;entryX=0.5;entryY=0;entryDx=0;entryDy=0;" edge="1" parent="1" source="7MQv_6eaz1CNt6une2rL-5" target="7MQv_6eaz1CNt6une2rL-2">
          <mxGeometry width="50" height="50" relative="1" as="geometry">
            <mxPoint x="480" y="330" as="sourcePoint" />
            <mxPoint x="530" y="280" as="targetPoint" />
          </mxGeometry>
        </mxCell>
        <mxCell id="7MQv_6eaz1CNt6une2rL-29" value="" style="endArrow=classic;html=1;rounded=0;exitX=0;exitY=0.3333333333333333;exitDx=0;exitDy=0;exitPerimeter=0;entryX=0.5;entryY=0;entryDx=0;entryDy=0;" edge="1" parent="1" source="7MQv_6eaz1CNt6une2rL-5" target="7MQv_6eaz1CNt6une2rL-6">
          <mxGeometry width="50" height="50" relative="1" as="geometry">
            <mxPoint x="480" y="330" as="sourcePoint" />
            <mxPoint x="530" y="280" as="targetPoint" />
          </mxGeometry>
        </mxCell>
        <mxCell id="7MQv_6eaz1CNt6une2rL-30" value="&lt;h1 style=&quot;margin-top: 0px;&quot;&gt;&lt;ol style=&quot;list-style-type: upper-roman; font-size: medium; font-weight: 400;&quot; class=&quot;ol1&quot;&gt;&lt;ol style=&quot;list-style-type: upper-alpha;&quot; class=&quot;ol2&quot;&gt;&lt;ol class=&quot;ol3&quot;&gt;&lt;li style=&quot;margin: 0px; font-variant-numeric: normal; font-variant-east-asian: normal; font-variant-alternates: normal; font-size-adjust: none; font-kerning: auto; font-optical-sizing: auto; font-feature-settings: normal; font-variation-settings: normal; font-variant-position: normal; font-variant-emoji: normal; font-stretch: normal; font-size: 12px; line-height: normal; font-family: Times;&quot; class=&quot;li1&quot;&gt;&lt;b&gt;Use Case: Login/Logout&lt;/b&gt;&lt;b&gt;&lt;/b&gt;&lt;/li&gt;&lt;ol style=&quot;list-style-type: lower-alpha;&quot; class=&quot;ol4&quot;&gt;&lt;li style=&quot;margin: 0px; font-variant-numeric: normal; font-variant-east-asian: normal; font-variant-alternates: normal; font-size-adjust: none; font-kerning: auto; font-optical-sizing: auto; font-feature-settings: normal; font-variation-settings: normal; font-variant-position: normal; font-variant-emoji: normal; font-stretch: normal; font-size: 12px; line-height: normal; font-family: Times;&quot; class=&quot;li1&quot;&gt;&lt;b&gt;Description&lt;/b&gt;: Xác thực người dùng để truy cập hệ thống.&lt;/li&gt;&lt;li style=&quot;margin: 0px; font-variant-numeric: normal; font-variant-east-asian: normal; font-variant-alternates: normal; font-size-adjust: none; font-kerning: auto; font-optical-sizing: auto; font-feature-settings: normal; font-variation-settings: normal; font-variant-position: normal; font-variant-emoji: normal; font-stretch: normal; font-size: 12px; line-height: normal; font-family: Times;&quot; class=&quot;li1&quot;&gt;&lt;b&gt;Actors&lt;/b&gt;: Admin, Factory Director, Factory Manager, Manager, Leader, Working.&lt;/li&gt;&lt;li style=&quot;margin: 0px; font-variant-numeric: normal; font-variant-east-asian: normal; font-variant-alternates: normal; font-size-adjust: none; font-kerning: auto; font-optical-sizing: auto; font-feature-settings: normal; font-variation-settings: normal; font-variant-position: normal; font-variant-emoji: normal; font-stretch: normal; font-size: 12px; line-height: normal; font-family: Times;&quot; class=&quot;li1&quot;&gt;&lt;b&gt;Preconditions&lt;/b&gt;: User có tài khoản hợp lệ trong bảng User.&lt;/li&gt;&lt;li style=&quot;margin: 0px; font-variant-numeric: normal; font-variant-east-asian: normal; font-variant-alternates: normal; font-size-adjust: none; font-kerning: auto; font-optical-sizing: auto; font-feature-settings: normal; font-variation-settings: normal; font-variant-position: normal; font-variant-emoji: normal; font-stretch: normal; font-size: 12px; line-height: normal; font-family: Times;&quot; class=&quot;li1&quot;&gt;&lt;b&gt;Main Flow&lt;/b&gt;:&lt;/li&gt;&lt;ol class=&quot;ol3&quot;&gt;&lt;li style=&quot;margin: 0px; font-variant-numeric: normal; font-variant-east-asian: normal; font-variant-alternates: normal; font-size-adjust: none; font-kerning: auto; font-optical-sizing: auto; font-feature-settings: normal; font-variation-settings: normal; font-variant-position: normal; font-variant-emoji: normal; font-stretch: normal; font-size: 12px; line-height: normal; font-family: Times;&quot; class=&quot;li1&quot;&gt;Actor nhập username và password (qua React web hoặc Flutter app).&lt;/li&gt;&lt;li style=&quot;margin: 0px; font-variant-numeric: normal; font-variant-east-asian: normal; font-variant-alternates: normal; font-size-adjust: none; font-kerning: auto; font-optical-sizing: auto; font-feature-settings: normal; font-variation-settings: normal; font-variant-position: normal; font-variant-emoji: normal; font-stretch: normal; font-size: 12px; line-height: normal; font-family: Times;&quot; class=&quot;li1&quot;&gt;Hệ thống kiểm tra thông tin trong bảng User, xác thực role.&lt;/li&gt;&lt;li style=&quot;margin: 0px; font-variant-numeric: normal; font-variant-east-asian: normal; font-variant-alternates: normal; font-size-adjust: none; font-kerning: auto; font-optical-sizing: auto; font-feature-settings: normal; font-variation-settings: normal; font-variant-position: normal; font-variant-emoji: normal; font-stretch: normal; font-size: 12px; line-height: normal; font-family: Times;&quot; class=&quot;li1&quot;&gt;Nếu hợp lệ, hệ thống cấp quyền truy cập theo role (Admin toàn quyền, Working chỉ xem thông tin cá nhân).&lt;/li&gt;&lt;li style=&quot;margin: 0px; font-variant-numeric: normal; font-variant-east-asian: normal; font-variant-alternates: normal; font-size-adjust: none; font-kerning: auto; font-optical-sizing: auto; font-feature-settings: normal; font-variation-settings: normal; font-variant-position: normal; font-variant-emoji: normal; font-stretch: normal; font-size: 12px; line-height: normal; font-family: Times;&quot; class=&quot;li1&quot;&gt;Actor đăng xuất khi hoàn thành phiên làm việc.&lt;/li&gt;&lt;/ol&gt;&lt;li style=&quot;margin: 0px; font-variant-numeric: normal; font-variant-east-asian: normal; font-variant-alternates: normal; font-size-adjust: none; font-kerning: auto; font-optical-sizing: auto; font-feature-settings: normal; font-variation-settings: normal; font-variant-position: normal; font-variant-emoji: normal; font-stretch: normal; font-size: 12px; line-height: normal; font-family: Times;&quot; class=&quot;li1&quot;&gt;&lt;b&gt;Alternative Flow&lt;/b&gt;:&lt;/li&gt;&lt;ol class=&quot;ol3&quot;&gt;&lt;li style=&quot;margin: 0px; font-variant-numeric: normal; font-variant-east-asian: normal; font-variant-alternates: normal; font-size-adjust: none; font-kerning: auto; font-optical-sizing: auto; font-feature-settings: normal; font-variation-settings: normal; font-variant-position: normal; font-variant-emoji: normal; font-stretch: normal; font-size: 12px; line-height: normal; font-family: Times;&quot; class=&quot;li1&quot;&gt;A1: Nếu thông tin đăng nhập sai, hệ thống thông báo lỗi và yêu cầu nhập lại.&lt;/li&gt;&lt;/ol&gt;&lt;li style=&quot;margin: 0px; font-variant-numeric: normal; font-variant-east-asian: normal; font-variant-alternates: normal; font-size-adjust: none; font-kerning: auto; font-optical-sizing: auto; font-feature-settings: normal; font-variation-settings: normal; font-variant-position: normal; font-variant-emoji: normal; font-stretch: normal; font-size: 12px; line-height: normal; font-family: Times;&quot; class=&quot;li1&quot;&gt;&lt;b&gt;Interactions&lt;/b&gt;:&lt;/li&gt;&lt;ol class=&quot;ol3&quot;&gt;&lt;li style=&quot;margin: 0px; font-variant-numeric: normal; font-variant-east-asian: normal; font-variant-alternates: normal; font-size-adjust: none; font-kerning: auto; font-optical-sizing: auto; font-feature-settings: normal; font-variation-settings: normal; font-variant-position: normal; font-variant-emoji: normal; font-stretch: normal; font-size: 12px; line-height: normal; font-family: Times;&quot; class=&quot;li1&quot;&gt;Actor &lt;span style=&quot;font-variant-numeric: normal; font-variant-east-asian: normal; font-variant-alternates: normal; font-size-adjust: none; font-kerning: auto; font-optical-sizing: auto; font-feature-settings: normal; font-variation-settings: normal; font-variant-position: normal; font-variant-emoji: normal; font-stretch: normal; line-height: normal; font-family: &amp;quot;Times New Roman&amp;quot;;&quot; class=&quot;s1&quot;&gt;→&lt;/span&gt; Hệ thống: Nhập thông tin đăng nhập.&lt;/li&gt;&lt;li style=&quot;margin: 0px; font-variant-numeric: normal; font-variant-east-asian: normal; font-variant-alternates: normal; font-size-adjust: none; font-kerning: auto; font-optical-sizing: auto; font-feature-settings: normal; font-variation-settings: normal; font-variant-position: normal; font-variant-emoji: normal; font-stretch: normal; font-size: 12px; line-height: normal; font-family: Times;&quot; class=&quot;li1&quot;&gt;Hệ thống &lt;span style=&quot;font-variant-numeric: normal; font-variant-east-asian: normal; font-variant-alternates: normal; font-size-adjust: none; font-kerning: auto; font-optical-sizing: auto; font-feature-settings: normal; font-variation-settings: normal; font-variant-position: normal; font-variant-emoji: normal; font-stretch: normal; line-height: normal; font-family: &amp;quot;Times New Roman&amp;quot;;&quot; class=&quot;s1&quot;&gt;→&lt;/span&gt; Actor: Cấp quyền hoặc từ chối.&lt;/li&gt;&lt;/ol&gt;&lt;/ol&gt;&lt;li style=&quot;margin: 0px; font-variant-numeric: normal; font-variant-east-asian: normal; font-variant-alternates: normal; font-size-adjust: none; font-kerning: auto; font-optical-sizing: auto; font-feature-settings: normal; font-variation-settings: normal; font-variant-position: normal; font-variant-emoji: normal; font-stretch: normal; font-size: 12px; line-height: normal; font-family: Times;&quot; class=&quot;li1&quot;&gt;&lt;b&gt;Use Case: Manage Employee Profiles (quản lý hso nhân viên)&lt;/b&gt;&lt;b&gt;&lt;/b&gt;&lt;/li&gt;&lt;ol style=&quot;list-style-type: lower-alpha;&quot; class=&quot;ol4&quot;&gt;&lt;li style=&quot;margin: 0px; font-variant-numeric: normal; font-variant-east-asian: normal; font-variant-alternates: normal; font-size-adjust: none; font-kerning: auto; font-optical-sizing: auto; font-feature-settings: normal; font-variation-settings: normal; font-variant-position: normal; font-variant-emoji: normal; font-stretch: normal; font-size: 12px; line-height: normal; font-family: Times;&quot; class=&quot;li1&quot;&gt;&lt;b&gt;Description&lt;/b&gt;: Thêm, sửa, xóa hồ sơ nhân viên, bao gồm thông tin chuyền và bộ phận.&lt;/li&gt;&lt;li style=&quot;margin: 0px; font-variant-numeric: normal; font-variant-east-asian: normal; font-variant-alternates: normal; font-size-adjust: none; font-kerning: auto; font-optical-sizing: auto; font-feature-settings: normal; font-variation-settings: normal; font-variant-position: normal; font-variant-emoji: normal; font-stretch: normal; font-size: 12px; line-height: normal; font-family: Times;&quot; class=&quot;li1&quot;&gt;&lt;b&gt;Actors&lt;/b&gt;: Admin, Factory Director, Factory Manager.&lt;/li&gt;&lt;li style=&quot;margin: 0px; font-variant-numeric: normal; font-variant-east-asian: normal; font-variant-alternates: normal; font-size-adjust: none; font-kerning: auto; font-optical-sizing: auto; font-feature-settings: normal; font-variation-settings: normal; font-variant-position: normal; font-variant-emoji: normal; font-stretch: normal; font-size: 12px; line-height: normal; font-family: Times;&quot; class=&quot;li1&quot;&gt;&lt;b&gt;Preconditions&lt;/b&gt;: Hệ thống có quyền truy cập bảng Employee, Department, Line.&lt;/li&gt;&lt;li style=&quot;margin: 0px; font-variant-numeric: normal; font-variant-east-asian: normal; font-variant-alternates: normal; font-size-adjust: none; font-kerning: auto; font-optical-sizing: auto; font-feature-settings: normal; font-variation-settings: normal; font-variant-position: normal; font-variant-emoji: normal; font-stretch: normal; font-size: 12px; line-height: normal; font-family: Times;&quot; class=&quot;li1&quot;&gt;&lt;b&gt;Main Flow&lt;/b&gt;:&lt;/li&gt;&lt;ol class=&quot;ol3&quot;&gt;&lt;li style=&quot;margin: 0px; font-variant-numeric: normal; font-variant-east-asian: normal; font-variant-alternates: normal; font-size-adjust: none; font-kerning: auto; font-optical-sizing: auto; font-feature-settings: normal; font-variation-settings: normal; font-variant-position: normal; font-variant-emoji: normal; font-stretch: normal; font-size: 12px; line-height: normal; font-family: Times;&quot; class=&quot;li1&quot;&gt;Factory Manager tạo/sửa hồ sơ nhân viên (họ tên, bộ phận, chuyền, vị trí).&lt;/li&gt;&lt;li style=&quot;margin: 0px; font-variant-numeric: normal; font-variant-east-asian: normal; font-variant-alternates: normal; font-size-adjust: none; font-kerning: auto; font-optical-sizing: auto; font-feature-settings: normal; font-variation-settings: normal; font-variant-position: normal; font-variant-emoji: normal; font-stretch: normal; font-size: 12px; line-height: normal; font-family: Times;&quot; class=&quot;li1&quot;&gt;Hệ thống lưu vào bảng Employee, liên kết với Department và Line.&lt;/li&gt;&lt;li style=&quot;margin: 0px; font-variant-numeric: normal; font-variant-east-asian: normal; font-variant-alternates: normal; font-size-adjust: none; font-kerning: auto; font-optical-sizing: auto; font-feature-settings: normal; font-variation-settings: normal; font-variant-position: normal; font-variant-emoji: normal; font-stretch: normal; font-size: 12px; line-height: normal; font-family: Times;&quot; class=&quot;li1&quot;&gt;Factory Director xem xét và duyệt hồ sơ mới&lt;/li&gt;&lt;li style=&quot;margin: 0px; font-variant-numeric: normal; font-variant-east-asian: normal; font-variant-alternates: normal; font-size-adjust: none; font-kerning: auto; font-optical-sizing: auto; font-feature-settings: normal; font-variation-settings: normal; font-variant-position: normal; font-variant-emoji: normal; font-stretch: normal; font-size: 12px; line-height: normal; font-family: Times;&quot; class=&quot;li1&quot;&gt;Admin có thể chỉnh sửa hoặc xóa hồ sơ.&lt;/li&gt;&lt;li style=&quot;margin: 0px; font-variant-numeric: normal; font-variant-east-asian: normal; font-variant-alternates: normal; font-size-adjust: none; font-kerning: auto; font-optical-sizing: auto; font-feature-settings: normal; font-variation-settings: normal; font-variant-position: normal; font-variant-emoji: normal; font-stretch: normal; font-size: 12px; line-height: normal; font-family: Times;&quot; class=&quot;li1&quot;&gt;Luân chuyển công nhân được thực hiện qua Manage Line Assignment.&lt;/li&gt;&lt;/ol&gt;&lt;li style=&quot;margin: 0px; font-variant-numeric: normal; font-variant-east-asian: normal; font-variant-alternates: normal; font-size-adjust: none; font-kerning: auto; font-optical-sizing: auto; font-feature-settings: normal; font-variation-settings: normal; font-variant-position: normal; font-variant-emoji: normal; font-stretch: normal; font-size: 12px; line-height: normal; font-family: Times;&quot; class=&quot;li1&quot;&gt;&lt;b&gt;Alternative Flow&lt;/b&gt;:&lt;/li&gt;&lt;ol class=&quot;ol3&quot;&gt;&lt;li style=&quot;margin: 0px; font-variant-numeric: normal; font-variant-east-asian: normal; font-variant-alternates: normal; font-size-adjust: none; font-kerning: auto; font-optical-sizing: auto; font-feature-settings: normal; font-variation-settings: normal; font-variant-position: normal; font-variant-emoji: normal; font-stretch: normal; font-size: 12px; line-height: normal; font-family: Times;&quot; class=&quot;li1&quot;&gt;A1: Nếu hồ sơ thiếu thông tin, hệ thống yêu cầu bổ sung.&lt;/li&gt;&lt;/ol&gt;&lt;li style=&quot;margin: 0px; font-variant-numeric: normal; font-variant-east-asian: normal; font-variant-alternates: normal; font-size-adjust: none; font-kerning: auto; font-optical-sizing: auto; font-feature-settings: normal; font-variation-settings: normal; font-variant-position: normal; font-variant-emoji: normal; font-stretch: normal; font-size: 12px; line-height: normal; font-family: Times;&quot; class=&quot;li1&quot;&gt;&lt;b&gt;Postconditions&lt;/b&gt;: Hồ sơ nhân viên được cập nhật trong database.&lt;/li&gt;&lt;li style=&quot;margin: 0px; font-variant-numeric: normal; font-variant-east-asian: normal; font-variant-alternates: normal; font-size-adjust: none; font-kerning: auto; font-optical-sizing: auto; font-feature-settings: normal; font-variation-settings: normal; font-variant-position: normal; font-variant-emoji: normal; font-stretch: normal; font-size: 12px; line-height: normal; font-family: Times;&quot; class=&quot;li1&quot;&gt;&lt;b&gt;Interactions&lt;/b&gt;:&lt;/li&gt;&lt;ol class=&quot;ol3&quot;&gt;&lt;li style=&quot;margin: 0px; font-variant-numeric: normal; font-variant-east-asian: normal; font-variant-alternates: normal; font-size-adjust: none; font-kerning: auto; font-optical-sizing: auto; font-feature-settings: normal; font-variation-settings: normal; font-variant-position: normal; font-variant-emoji: normal; font-stretch: normal; font-size: 12px; line-height: normal; font-family: Times;&quot; class=&quot;li1&quot;&gt;Factory Manager &lt;span style=&quot;font-variant-numeric: normal; font-variant-east-asian: normal; font-variant-alternates: normal; font-size-adjust: none; font-kerning: auto; font-optical-sizing: auto; font-feature-settings: normal; font-variation-settings: normal; font-variant-position: normal; font-variant-emoji: normal; font-stretch: normal; line-height: normal; font-family: &amp;quot;Times New Roman&amp;quot;;&quot; class=&quot;s1&quot;&gt;→&lt;/span&gt; Hệ thống: Tạo/sửa hồ sơ.&lt;/li&gt;&lt;li style=&quot;margin: 0px; font-variant-numeric: normal; font-variant-east-asian: normal; font-variant-alternates: normal; font-size-adjust: none; font-kerning: auto; font-optical-sizing: auto; font-feature-settings: normal; font-variation-settings: normal; font-variant-position: normal; font-variant-emoji: normal; font-stretch: normal; font-size: 12px; line-height: normal; font-family: Times;&quot; class=&quot;li1&quot;&gt;Factory Director &lt;span style=&quot;font-variant-numeric: normal; font-variant-east-asian: normal; font-variant-alternates: normal; font-size-adjust: none; font-kerning: auto; font-optical-sizing: auto; font-feature-settings: normal; font-variation-settings: normal; font-variant-position: normal; font-variant-emoji: normal; font-stretch: normal; line-height: normal; font-family: &amp;quot;Times New Roman&amp;quot;;&quot; class=&quot;s1&quot;&gt;→&lt;/span&gt; Hệ thống: Duyệt hồ sơ.&lt;/li&gt;&lt;li style=&quot;margin: 0px; font-variant-numeric: normal; font-variant-east-asian: normal; font-variant-alternates: normal; font-size-adjust: none; font-kerning: auto; font-optical-sizing: auto; font-feature-settings: normal; font-variation-settings: normal; font-variant-position: normal; font-variant-emoji: normal; font-stretch: normal; font-size: 12px; line-height: normal; font-family: Times;&quot; class=&quot;li1&quot;&gt;Admin &lt;span style=&quot;font-variant-numeric: normal; font-variant-east-asian: normal; font-variant-alternates: normal; font-size-adjust: none; font-kerning: auto; font-optical-sizing: auto; font-feature-settings: normal; font-variation-settings: normal; font-variant-position: normal; font-variant-emoji: normal; font-stretch: normal; line-height: normal; font-family: &amp;quot;Times New Roman&amp;quot;;&quot; class=&quot;s1&quot;&gt;→&lt;/span&gt; Hệ thống: Chỉnh sửa/xóa.&lt;/li&gt;&lt;/ol&gt;&lt;/ol&gt;&lt;li style=&quot;margin: 0px; font-variant-numeric: normal; font-variant-east-asian: normal; font-variant-alternates: normal; font-size-adjust: none; font-kerning: auto; font-optical-sizing: auto; font-feature-settings: normal; font-variation-settings: normal; font-variant-position: normal; font-variant-emoji: normal; font-stretch: normal; font-size: 12px; line-height: normal; font-family: Times;&quot; class=&quot;li1&quot;&gt;&lt;b&gt;Use Case: Manage Line Assignment&lt;/b&gt;&lt;b&gt;&lt;/b&gt;&lt;/li&gt;&lt;ol style=&quot;list-style-type: lower-alpha;&quot; class=&quot;ol4&quot;&gt;&lt;li style=&quot;margin: 0px; font-variant-numeric: normal; font-variant-east-asian: normal; font-variant-alternates: normal; font-size-adjust: none; font-kerning: auto; font-optical-sizing: auto; font-feature-settings: normal; font-variation-settings: normal; font-variant-position: normal; font-variant-emoji: normal; font-stretch: normal; font-size: 12px; line-height: normal; font-family: Times;&quot; class=&quot;li1&quot;&gt;&lt;b&gt;Description&lt;/b&gt;: Luân chuyển công nhân giữa các chuyền hoặc các cấp.&lt;/li&gt;&lt;li style=&quot;margin: 0px; font-variant-numeric: normal; font-variant-east-asian: normal; font-variant-alternates: normal; font-size-adjust: none; font-kerning: auto; font-optical-sizing: auto; font-feature-settings: normal; font-variation-settings: normal; font-variant-position: normal; font-variant-emoji: normal; font-stretch: normal; font-size: 12px; line-height: normal; font-family: Times;&quot; class=&quot;li1&quot;&gt;&lt;b&gt;Actors&lt;/b&gt;: Admin, Factory Director, Factory Manager.&lt;/li&gt;&lt;li style=&quot;margin: 0px; font-variant-numeric: normal; font-variant-east-asian: normal; font-variant-alternates: normal; font-size-adjust: none; font-kerning: auto; font-optical-sizing: auto; font-feature-settings: normal; font-variation-settings: normal; font-variant-position: normal; font-variant-emoji: normal; font-stretch: normal; font-size: 12px; line-height: normal; font-family: Times;&quot; class=&quot;li1&quot;&gt;&lt;b&gt;Preconditions&lt;/b&gt;: Hồ sơ nhân viên và chuyền có sẵn trong bảng Employee và Line.&lt;/li&gt;&lt;li style=&quot;margin: 0px; font-variant-numeric: normal; font-variant-east-asian: normal; font-variant-alternates: normal; font-size-adjust: none; font-kerning: auto; font-optical-sizing: auto; font-feature-settings: normal; font-variation-settings: normal; font-variant-position: normal; font-variant-emoji: normal; font-stretch: normal; font-size: 12px; line-height: normal; font-family: Times;&quot; class=&quot;li1&quot;&gt;&lt;b&gt;Main Flow&lt;/b&gt;:&lt;/li&gt;&lt;ol class=&quot;ol3&quot;&gt;&lt;li style=&quot;margin: 0px; font-variant-numeric: normal; font-variant-east-asian: normal; font-variant-alternates: normal; font-size-adjust: none; font-kerning: auto; font-optical-sizing: auto; font-feature-settings: normal; font-variation-settings: normal; font-variant-position: normal; font-variant-emoji: normal; font-stretch: normal; font-size: 12px; line-height: normal; font-family: Times;&quot; class=&quot;li1&quot;&gt;Factory Manager đề xuất luân chuyển công nhân (từ chuyền này sang chuyền khác hoặc thay đổi vị trí trong chuyền).&lt;/li&gt;&lt;li style=&quot;margin: 0px; font-variant-numeric: normal; font-variant-east-asian: normal; font-variant-alternates: normal; font-size-adjust: none; font-kerning: auto; font-optical-sizing: auto; font-feature-settings: normal; font-variation-settings: normal; font-variant-position: normal; font-variant-emoji: normal; font-stretch: normal; font-size: 12px; line-height: normal; font-family: Times;&quot; class=&quot;li1&quot;&gt;Hệ thống cập nhật line_id trong bảng Employee.&lt;/li&gt;&lt;li style=&quot;margin: 0px; font-variant-numeric: normal; font-variant-east-asian: normal; font-variant-alternates: normal; font-size-adjust: none; font-kerning: auto; font-optical-sizing: auto; font-feature-settings: normal; font-variation-settings: normal; font-variant-position: normal; font-variant-emoji: normal; font-stretch: normal; font-size: 12px; line-height: normal; font-family: Times;&quot; class=&quot;li1&quot;&gt;Factory Director duyệt luân chuyển nếu liên quan đến cấp Manager.&lt;/li&gt;&lt;li style=&quot;margin: 0px; font-variant-numeric: normal; font-variant-east-asian: normal; font-variant-alternates: normal; font-size-adjust: none; font-kerning: auto; font-optical-sizing: auto; font-feature-settings: normal; font-variation-settings: normal; font-variant-position: normal; font-variant-emoji: normal; font-stretch: normal; font-size: 12px; line-height: normal; font-family: Times;&quot; class=&quot;li1&quot;&gt;Admin có thể can thiệp hoặc thực hiện luân chuyển bất kỳ.&lt;/li&gt;&lt;li style=&quot;margin: 0px; font-variant-numeric: normal; font-variant-east-asian: normal; font-variant-alternates: normal; font-size-adjust: none; font-kerning: auto; font-optical-sizing: auto; font-feature-settings: normal; font-variation-settings: normal; font-variant-position: normal; font-variant-emoji: normal; font-stretch: normal; font-size: 12px; line-height: normal; font-family: Times;&quot; class=&quot;li1&quot;&gt;Hệ thống gửi thông báo về luân chuyển (gọi Send Notifications).&lt;/li&gt;&lt;li style=&quot;margin: 0px; font-variant-numeric: normal; font-variant-east-asian: normal; font-variant-alternates: normal; font-size-adjust: none; font-kerning: auto; font-optical-sizing: auto; font-feature-settings: normal; font-variation-settings: normal; font-variant-position: normal; font-variant-emoji: normal; font-stretch: normal; font-size: 12px; line-height: normal; font-family: Times;&quot; class=&quot;li1&quot;&gt;&lt;/li&gt;&lt;/ol&gt;&lt;li style=&quot;margin: 0px; font-variant-numeric: normal; font-variant-east-asian: normal; font-variant-alternates: normal; font-size-adjust: none; font-kerning: auto; font-optical-sizing: auto; font-feature-settings: normal; font-variation-settings: normal; font-variant-position: normal; font-variant-emoji: normal; font-stretch: normal; font-size: 12px; line-height: normal; font-family: Times;&quot; class=&quot;li1&quot;&gt;&lt;b&gt;Postconditions&lt;/b&gt;: Thông tin chuyền của nhân viên được cập nhật.&lt;/li&gt;&lt;li style=&quot;margin: 0px; font-variant-numeric: normal; font-variant-east-asian: normal; font-variant-alternates: normal; font-size-adjust: none; font-kerning: auto; font-optical-sizing: auto; font-feature-settings: normal; font-variation-settings: normal; font-variant-position: normal; font-variant-emoji: normal; font-stretch: normal; font-size: 12px; line-height: normal; font-family: Times;&quot; class=&quot;li1&quot;&gt;&lt;b&gt;Interactions&lt;/b&gt;:&lt;/li&gt;&lt;ol class=&quot;ol3&quot;&gt;&lt;li style=&quot;margin: 0px; font-variant-numeric: normal; font-variant-east-asian: normal; font-variant-alternates: normal; font-size-adjust: none; font-kerning: auto; font-optical-sizing: auto; font-feature-settings: normal; font-variation-settings: normal; font-variant-position: normal; font-variant-emoji: normal; font-stretch: normal; font-size: 12px; line-height: normal; font-family: Times;&quot; class=&quot;li1&quot;&gt;Factory Manager &lt;span style=&quot;font-variant-numeric: normal; font-variant-east-asian: normal; font-variant-alternates: normal; font-size-adjust: none; font-kerning: auto; font-optical-sizing: auto; font-feature-settings: normal; font-variation-settings: normal; font-variant-position: normal; font-variant-emoji: normal; font-stretch: normal; line-height: normal; font-family: &amp;quot;Times New Roman&amp;quot;;&quot; class=&quot;s1&quot;&gt;→&lt;/span&gt; Hệ thống: Đề xuất luân chuyển.&lt;/li&gt;&lt;li style=&quot;margin: 0px; font-variant-numeric: normal; font-variant-east-asian: normal; font-variant-alternates: normal; font-size-adjust: none; font-kerning: auto; font-optical-sizing: auto; font-feature-settings: normal; font-variation-settings: normal; font-variant-position: normal; font-variant-emoji: normal; font-stretch: normal; font-size: 12px; line-height: normal; font-family: Times;&quot; class=&quot;li1&quot;&gt;Factory Director &lt;span style=&quot;font-variant-numeric: normal; font-variant-east-asian: normal; font-variant-alternates: normal; font-size-adjust: none; font-kerning: auto; font-optical-sizing: auto; font-feature-settings: normal; font-variation-settings: normal; font-variant-position: normal; font-variant-emoji: normal; font-stretch: normal; line-height: normal; font-family: &amp;quot;Times New Roman&amp;quot;;&quot; class=&quot;s1&quot;&gt;→&lt;/span&gt; Hệ thống: Duyệt luân chuyển cấp cao.&lt;/li&gt;&lt;li style=&quot;margin: 0px; font-variant-numeric: normal; font-variant-east-asian: normal; font-variant-alternates: normal; font-size-adjust: none; font-kerning: auto; font-optical-sizing: auto; font-feature-settings: normal; font-variation-settings: normal; font-variant-position: normal; font-variant-emoji: normal; font-stretch: normal; font-size: 12px; line-height: normal; font-family: Times;&quot; class=&quot;li1&quot;&gt;Admin &lt;span style=&quot;font-variant-numeric: normal; font-variant-east-asian: normal; font-variant-alternates: normal; font-size-adjust: none; font-kerning: auto; font-optical-sizing: auto; font-feature-settings: normal; font-variation-settings: normal; font-variant-position: normal; font-variant-emoji: normal; font-stretch: normal; line-height: normal; font-family: &amp;quot;Times New Roman&amp;quot;;&quot; class=&quot;s1&quot;&gt;→&lt;/span&gt; Hệ thống: Can thiệp.&lt;/li&gt;&lt;/ol&gt;&lt;/ol&gt;&lt;li style=&quot;margin: 0px; font-variant-numeric: normal; font-variant-east-asian: normal; font-variant-alternates: normal; font-size-adjust: none; font-kerning: auto; font-optical-sizing: auto; font-feature-settings: normal; font-variation-settings: normal; font-variant-position: normal; font-variant-emoji: normal; font-stretch: normal; font-size: 12px; line-height: normal; font-family: Times;&quot; class=&quot;li1&quot;&gt;&lt;b&gt;Use Case: Manage Leave Requests&lt;/b&gt;&lt;b&gt;&lt;/b&gt;&lt;/li&gt;&lt;ol style=&quot;list-style-type: lower-alpha;&quot; class=&quot;ol4&quot;&gt;&lt;li style=&quot;margin: 0px; font-variant-numeric: normal; font-variant-east-asian: normal; font-variant-alternates: normal; font-size-adjust: none; font-kerning: auto; font-optical-sizing: auto; font-feature-settings: normal; font-variation-settings: normal; font-variant-position: normal; font-variant-emoji: normal; font-stretch: normal; font-size: 12px; line-height: normal; font-family: Times;&quot; class=&quot;li1&quot;&gt;&lt;b&gt;Description&lt;/b&gt;: Giám sát và phê duyệt yêu cầu nghỉ phép.&lt;/li&gt;&lt;li style=&quot;margin: 0px; font-variant-numeric: normal; font-variant-east-asian: normal; font-variant-alternates: normal; font-size-adjust: none; font-kerning: auto; font-optical-sizing: auto; font-feature-settings: normal; font-variation-settings: normal; font-variant-position: normal; font-variant-emoji: normal; font-stretch: normal; font-size: 12px; line-height: normal; font-family: Times;&quot; class=&quot;li1&quot;&gt;&lt;b&gt;Actors&lt;/b&gt;: Leader, Manager, Factory Manager.&lt;/li&gt;&lt;li style=&quot;margin: 0px; font-variant-numeric: normal; font-variant-east-asian: normal; font-variant-alternates: normal; font-size-adjust: none; font-kerning: auto; font-optical-sizing: auto; font-feature-settings: normal; font-variation-settings: normal; font-variant-position: normal; font-variant-emoji: normal; font-stretch: normal; font-size: 12px; line-height: normal; font-family: Times;&quot; class=&quot;li1&quot;&gt;&lt;b&gt;Preconditions&lt;/b&gt;: Nhân viên có hồ sơ trong bảng Employee.&lt;/li&gt;&lt;li style=&quot;margin: 0px; font-variant-numeric: normal; font-variant-east-asian: normal; font-variant-alternates: normal; font-size-adjust: none; font-kerning: auto; font-optical-sizing: auto; font-feature-settings: normal; font-variation-settings: normal; font-variant-position: normal; font-variant-emoji: normal; font-stretch: normal; font-size: 12px; line-height: normal; font-family: Times;&quot; class=&quot;li1&quot;&gt;&lt;b&gt;Main Flow&lt;/b&gt;:&lt;/li&gt;&lt;ol class=&quot;ol3&quot;&gt;&lt;li style=&quot;margin: 0px; font-variant-numeric: normal; font-variant-east-asian: normal; font-variant-alternates: normal; font-size-adjust: none; font-kerning: auto; font-optical-sizing: auto; font-feature-settings: normal; font-variation-settings: normal; font-variant-position: normal; font-variant-emoji: normal; font-stretch: normal; font-size: 12px; line-height: normal; font-family: Times;&quot; class=&quot;li1&quot;&gt;Working gửi yêu cầu nghỉ phép qua Flutter app (ngày bắt đầu, kết thúc, lý do).&lt;/li&gt;&lt;li style=&quot;margin: 0px; font-variant-numeric: normal; font-variant-east-asian: normal; font-variant-alternates: normal; font-size-adjust: none; font-kerning: auto; font-optical-sizing: auto; font-feature-settings: normal; font-variation-settings: normal; font-variant-position: normal; font-variant-emoji: normal; font-stretch: normal; font-size: 12px; line-height: normal; font-family: Times;&quot; class=&quot;li1&quot;&gt;Hệ thống lưu vào bảng LeaveRequest (trạng thái: &quot;pending&quot;).&lt;/li&gt;&lt;li style=&quot;margin: 0px; font-variant-numeric: normal; font-variant-east-asian: normal; font-variant-alternates: normal; font-size-adjust: none; font-kerning: auto; font-optical-sizing: auto; font-feature-settings: normal; font-variation-settings: normal; font-variant-position: normal; font-variant-emoji: normal; font-stretch: normal; font-size: 12px; line-height: normal; font-family: Times;&quot; class=&quot;li1&quot;&gt;Leader giám sát và xác nhận yêu cầu (đảm bảo hợp lệ).&lt;/li&gt;&lt;li style=&quot;margin: 0px; font-variant-numeric: normal; font-variant-east-asian: normal; font-variant-alternates: normal; font-size-adjust: none; font-kerning: auto; font-optical-sizing: auto; font-feature-settings: normal; font-variation-settings: normal; font-variant-position: normal; font-variant-emoji: normal; font-stretch: normal; font-size: 12px; line-height: normal; font-family: Times;&quot; class=&quot;li1&quot;&gt;Manager xem xét và duyệt yêu cầu (trạng thái: &quot;approved&quot; hoặc &quot;rejected&quot;).&lt;/li&gt;&lt;li style=&quot;margin: 0px; font-variant-numeric: normal; font-variant-east-asian: normal; font-variant-alternates: normal; font-size-adjust: none; font-kerning: auto; font-optical-sizing: auto; font-feature-settings: normal; font-variation-settings: normal; font-variant-position: normal; font-variant-emoji: normal; font-stretch: normal; font-size: 12px; line-height: normal; font-family: Times;&quot; class=&quot;li1&quot;&gt;Factory Manager duyệt lại nếu cần (ví dụ: nghỉ dài ngày).&lt;/li&gt;&lt;li style=&quot;margin: 0px; font-variant-numeric: normal; font-variant-east-asian: normal; font-variant-alternates: normal; font-size-adjust: none; font-kerning: auto; font-optical-sizing: auto; font-feature-settings: normal; font-variation-settings: normal; font-variant-position: normal; font-variant-emoji: normal; font-stretch: normal; font-size: 12px; line-height: normal; font-family: Times;&quot; class=&quot;li1&quot;&gt;Hệ thống gửi thông báo kết quả (gọi Send Notifications).&lt;/li&gt;&lt;/ol&gt;&lt;li style=&quot;margin: 0px; font-variant-numeric: normal; font-variant-east-asian: normal; font-variant-alternates: normal; font-size-adjust: none; font-kerning: auto; font-optical-sizing: auto; font-feature-settings: normal; font-variation-settings: normal; font-variant-position: normal; font-variant-emoji: normal; font-stretch: normal; font-size: 12px; line-height: normal; font-family: Times;&quot; class=&quot;li1&quot;&gt;&lt;b&gt;Alternative Flow&lt;/b&gt;:&lt;/li&gt;&lt;ol class=&quot;ol3&quot;&gt;&lt;li style=&quot;margin: 0px; font-variant-numeric: normal; font-variant-east-asian: normal; font-variant-alternates: normal; font-size-adjust: none; font-kerning: auto; font-optical-sizing: auto; font-feature-settings: normal; font-variation-settings: normal; font-variant-position: normal; font-variant-emoji: normal; font-stretch: normal; font-size: 12px; line-height: normal; font-family: Times;&quot; class=&quot;li1&quot;&gt;A1: Nếu yêu cầu không hợp lệ, Leader yêu cầu Working chỉnh sửa.&lt;/li&gt;&lt;li style=&quot;margin: 0px; font-variant-numeric: normal; font-variant-east-asian: normal; font-variant-alternates: normal; font-size-adjust: none; font-kerning: auto; font-optical-sizing: auto; font-feature-settings: normal; font-variation-settings: normal; font-variant-position: normal; font-variant-emoji: normal; font-stretch: normal; font-size: 12px; line-height: normal; font-family: Times;&quot; class=&quot;li1&quot;&gt;A2: Nếu Manager từ chối, Working nhận thông báo lý do.&lt;/li&gt;&lt;/ol&gt;&lt;li style=&quot;margin: 0px; font-variant-numeric: normal; font-variant-east-asian: normal; font-variant-alternates: normal; font-size-adjust: none; font-kerning: auto; font-optical-sizing: auto; font-feature-settings: normal; font-variation-settings: normal; font-variant-position: normal; font-variant-emoji: normal; font-stretch: normal; font-size: 12px; line-height: normal; font-family: Times;&quot; class=&quot;li1&quot;&gt;&lt;b&gt;Postconditions&lt;/b&gt;: Yêu cầu nghỉ phép được xử lý, lưu vào database.&lt;/li&gt;&lt;li style=&quot;margin: 0px; font-variant-numeric: normal; font-variant-east-asian: normal; font-variant-alternates: normal; font-size-adjust: none; font-kerning: auto; font-optical-sizing: auto; font-feature-settings: normal; font-variation-settings: normal; font-variant-position: normal; font-variant-emoji: normal; font-stretch: normal; font-size: 12px; line-height: normal; font-family: Times;&quot; class=&quot;li1&quot;&gt;&lt;b&gt;Interactions&lt;/b&gt;:&lt;/li&gt;&lt;ol class=&quot;ol3&quot;&gt;&lt;li style=&quot;margin: 0px; font-variant-numeric: normal; font-variant-east-asian: normal; font-variant-alternates: normal; font-size-adjust: none; font-kerning: auto; font-optical-sizing: auto; font-feature-settings: normal; font-variation-settings: normal; font-variant-position: normal; font-variant-emoji: normal; font-stretch: normal; font-size: 12px; line-height: normal; font-family: Times;&quot; class=&quot;li1&quot;&gt;Working &lt;span style=&quot;font-variant-numeric: normal; font-variant-east-asian: normal; font-variant-alternates: normal; font-size-adjust: none; font-kerning: auto; font-optical-sizing: auto; font-feature-settings: normal; font-variation-settings: normal; font-variant-position: normal; font-variant-emoji: normal; font-stretch: normal; line-height: normal; font-family: &amp;quot;Times New Roman&amp;quot;;&quot; class=&quot;s1&quot;&gt;→&lt;/span&gt; Hệ thống: Gửi yêu cầu nghỉ phép.&lt;/li&gt;&lt;li style=&quot;margin: 0px; font-variant-numeric: normal; font-variant-east-asian: normal; font-variant-alternates: normal; font-size-adjust: none; font-kerning: auto; font-optical-sizing: auto; font-feature-settings: normal; font-variation-settings: normal; font-variant-position: normal; font-variant-emoji: normal; font-stretch: normal; font-size: 12px; line-height: normal; font-family: Times;&quot; class=&quot;li1&quot;&gt;Leader &lt;span style=&quot;font-variant-numeric: normal; font-variant-east-asian: normal; font-variant-alternates: normal; font-size-adjust: none; font-kerning: auto; font-optical-sizing: auto; font-feature-settings: normal; font-variation-settings: normal; font-variant-position: normal; font-variant-emoji: normal; font-stretch: normal; line-height: normal; font-family: &amp;quot;Times New Roman&amp;quot;;&quot; class=&quot;s1&quot;&gt;→&lt;/span&gt; Hệ thống: Xác nhận yêu cầu.&lt;/li&gt;&lt;li style=&quot;margin: 0px; font-variant-numeric: normal; font-variant-east-asian: normal; font-variant-alternates: normal; font-size-adjust: none; font-kerning: auto; font-optical-sizing: auto; font-feature-settings: normal; font-variation-settings: normal; font-variant-position: normal; font-variant-emoji: normal; font-stretch: normal; font-size: 12px; line-height: normal; font-family: Times;&quot; class=&quot;li1&quot;&gt;Manager &lt;span style=&quot;font-variant-numeric: normal; font-variant-east-asian: normal; font-variant-alternates: normal; font-size-adjust: none; font-kerning: auto; font-optical-sizing: auto; font-feature-settings: normal; font-variation-settings: normal; font-variant-position: normal; font-variant-emoji: normal; font-stretch: normal; line-height: normal; font-family: &amp;quot;Times New Roman&amp;quot;;&quot; class=&quot;s1&quot;&gt;→&lt;/span&gt; Hệ thống: Duyệt yêu cầu.&lt;/li&gt;&lt;li style=&quot;margin: 0px; font-variant-numeric: normal; font-variant-east-asian: normal; font-variant-alternates: normal; font-size-adjust: none; font-kerning: auto; font-optical-sizing: auto; font-feature-settings: normal; font-variation-settings: normal; font-variant-position: normal; font-variant-emoji: normal; font-stretch: normal; font-size: 12px; line-height: normal; font-family: Times;&quot; class=&quot;li1&quot;&gt;Factory Manager &lt;span style=&quot;font-variant-numeric: normal; font-variant-east-asian: normal; font-variant-alternates: normal; font-size-adjust: none; font-kerning: auto; font-optical-sizing: auto; font-feature-settings: normal; font-variation-settings: normal; font-variant-position: normal; font-variant-emoji: normal; font-stretch: normal; line-height: normal; font-family: &amp;quot;Times New Roman&amp;quot;;&quot; class=&quot;s1&quot;&gt;→&lt;/span&gt; Hệ thống: Duyệt lại (nếu cần).&lt;/li&gt;&lt;/ol&gt;&lt;/ol&gt;&lt;li style=&quot;margin: 0px; font-variant-numeric: normal; font-variant-east-asian: normal; font-variant-alternates: normal; font-size-adjust: none; font-kerning: auto; font-optical-sizing: auto; font-feature-settings: normal; font-variation-settings: normal; font-variant-position: normal; font-variant-emoji: normal; font-stretch: normal; font-size: 12px; line-height: normal; font-family: Times;&quot; class=&quot;li1&quot;&gt;&lt;b&gt;Use Case: View Personal Info&lt;/b&gt;&lt;b&gt;&lt;/b&gt;&lt;/li&gt;&lt;ol style=&quot;list-style-type: lower-alpha;&quot; class=&quot;ol4&quot;&gt;&lt;li style=&quot;margin: 0px; font-variant-numeric: normal; font-variant-east-asian: normal; font-variant-alternates: normal; font-size-adjust: none; font-kerning: auto; font-optical-sizing: auto; font-feature-settings: normal; font-variation-settings: normal; font-variant-position: normal; font-variant-emoji: normal; font-stretch: normal; font-size: 12px; line-height: normal; font-family: Times;&quot; class=&quot;li1&quot;&gt;&lt;b&gt;Description&lt;/b&gt;: Công nhân xem thông tin cá nhân (lương, ca làm, chuyền).&lt;/li&gt;&lt;li style=&quot;margin: 0px; font-variant-numeric: normal; font-variant-east-asian: normal; font-variant-alternates: normal; font-size-adjust: none; font-kerning: auto; font-optical-sizing: auto; font-feature-settings: normal; font-variation-settings: normal; font-variant-position: normal; font-variant-emoji: normal; font-stretch: normal; font-size: 12px; line-height: normal; font-family: Times;&quot; class=&quot;li1&quot;&gt;&lt;b&gt;Actors&lt;/b&gt;: Working.&lt;/li&gt;&lt;li style=&quot;margin: 0px; font-variant-numeric: normal; font-variant-east-asian: normal; font-variant-alternates: normal; font-size-adjust: none; font-kerning: auto; font-optical-sizing: auto; font-feature-settings: normal; font-variation-settings: normal; font-variant-position: normal; font-variant-emoji: normal; font-stretch: normal; font-size: 12px; line-height: normal; font-family: Times;&quot; class=&quot;li1&quot;&gt;&lt;b&gt;Preconditions&lt;/b&gt;: Working có tài khoản và hồ sơ trong bảng Employee.&lt;/li&gt;&lt;li style=&quot;margin: 0px; font-variant-numeric: normal; font-variant-east-asian: normal; font-variant-alternates: normal; font-size-adjust: none; font-kerning: auto; font-optical-sizing: auto; font-feature-settings: normal; font-variation-settings: normal; font-variant-position: normal; font-variant-emoji: normal; font-stretch: normal; font-size: 12px; line-height: normal; font-family: Times;&quot; class=&quot;li1&quot;&gt;&lt;b&gt;Main Flow&lt;/b&gt;:&lt;/li&gt;&lt;ol class=&quot;ol3&quot;&gt;&lt;li style=&quot;margin: 0px; font-variant-numeric: normal; font-variant-east-asian: normal; font-variant-alternates: normal; font-size-adjust: none; font-kerning: auto; font-optical-sizing: auto; font-feature-settings: normal; font-variation-settings: normal; font-variant-position: normal; font-variant-emoji: normal; font-stretch: normal; font-size: 12px; line-height: normal; font-family: Times;&quot; class=&quot;li1&quot;&gt;Working đăng nhập vào Flutter app.&lt;/li&gt;&lt;li style=&quot;margin: 0px; font-variant-numeric: normal; font-variant-east-asian: normal; font-variant-alternates: normal; font-size-adjust: none; font-kerning: auto; font-optical-sizing: auto; font-feature-settings: normal; font-variation-settings: normal; font-variant-position: normal; font-variant-emoji: normal; font-stretch: normal; font-size: 12px; line-height: normal; font-family: Times;&quot; class=&quot;li1&quot;&gt;Hệ thống hiển thị thông tin từ bảng Employee (lương từ Payroll, ca làm từ Attendance, chuyền từ Line).&lt;/li&gt;&lt;li style=&quot;margin: 0px; font-variant-numeric: normal; font-variant-east-asian: normal; font-variant-alternates: normal; font-size-adjust: none; font-kerning: auto; font-optical-sizing: auto; font-feature-settings: normal; font-variation-settings: normal; font-variant-position: normal; font-variant-emoji: normal; font-stretch: normal; font-size: 12px; line-height: normal; font-family: Times;&quot; class=&quot;li1&quot;&gt;Working xem chi tiết (lịch sử chấm công, bảng lương).&lt;/li&gt;&lt;/ol&gt;&lt;li style=&quot;margin: 0px; font-variant-numeric: normal; font-variant-east-asian: normal; font-variant-alternates: normal; font-size-adjust: none; font-kerning: auto; font-optical-sizing: auto; font-feature-settings: normal; font-variation-settings: normal; font-variant-position: normal; font-variant-emoji: normal; font-stretch: normal; font-size: 12px; line-height: normal; font-family: Times;&quot; class=&quot;li1&quot;&gt;&lt;b&gt;Alternative Flow&lt;/b&gt;:&lt;/li&gt;&lt;ol class=&quot;ol3&quot;&gt;&lt;li style=&quot;margin: 0px; font-variant-numeric: normal; font-variant-east-asian: normal; font-variant-alternates: normal; font-size-adjust: none; font-kerning: auto; font-optical-sizing: auto; font-feature-settings: normal; font-variation-settings: normal; font-variant-position: normal; font-variant-emoji: normal; font-stretch: normal; font-size: 12px; line-height: normal; font-family: Times;&quot; class=&quot;li1&quot;&gt;A1: Nếu thông tin không tải được, hệ thống thông báo lỗi.&lt;/li&gt;&lt;/ol&gt;&lt;li style=&quot;margin: 0px; font-variant-numeric: normal; font-variant-east-asian: normal; font-variant-alternates: normal; font-size-adjust: none; font-kerning: auto; font-optical-sizing: auto; font-feature-settings: normal; font-variation-settings: normal; font-variant-position: normal; font-variant-emoji: normal; font-stretch: normal; font-size: 12px; line-height: normal; font-family: Times;&quot; class=&quot;li1&quot;&gt;&lt;b&gt;Postconditions&lt;/b&gt;: Working xem được thông tin cá nhân.&lt;/li&gt;&lt;li style=&quot;margin: 0px; font-variant-numeric: normal; font-variant-east-asian: normal; font-variant-alternates: normal; font-size-adjust: none; font-kerning: auto; font-optical-sizing: auto; font-feature-settings: normal; font-variation-settings: normal; font-variant-position: normal; font-variant-emoji: normal; font-stretch: normal; font-size: 12px; line-height: normal; font-family: Times;&quot; class=&quot;li1&quot;&gt;&lt;b&gt;Interactions&lt;/b&gt;:&lt;/li&gt;&lt;ol class=&quot;ol3&quot;&gt;&lt;li style=&quot;margin: 0px; font-variant-numeric: normal; font-variant-east-asian: normal; font-variant-alternates: normal; font-size-adjust: none; font-kerning: auto; font-optical-sizing: auto; font-feature-settings: normal; font-variation-settings: normal; font-variant-position: normal; font-variant-emoji: normal; font-stretch: normal; font-size: 12px; line-height: normal; font-family: Times;&quot; class=&quot;li1&quot;&gt;Working &lt;span style=&quot;font-variant-numeric: normal; font-variant-east-asian: normal; font-variant-alternates: normal; font-size-adjust: none; font-kerning: auto; font-optical-sizing: auto; font-feature-settings: normal; font-variation-settings: normal; font-variant-position: normal; font-variant-emoji: normal; font-stretch: normal; line-height: normal; font-family: &amp;quot;Times New Roman&amp;quot;;&quot; class=&quot;s1&quot;&gt;→&lt;/span&gt; Hệ thống: Yêu cầu xem thông tin.&lt;/li&gt;&lt;/ol&gt;&lt;/ol&gt;&lt;/ol&gt;&lt;/ol&gt;&lt;/ol&gt;&lt;/h1&gt;" style="text;html=1;whiteSpace=wrap;overflow=hidden;rounded=0;" vertex="1" parent="1">
          <mxGeometry x="10" y="420" width="790" height="1180" as="geometry" />
        </mxCell>
      </root>
    </mxGraphModel>
  </diagram>
  <diagram id="30lZhYQXWduuLYPYqTl-" name="FDD tuyen dung">
    <mxGraphModel dx="946" dy="530" grid="1" gridSize="10" guides="1" tooltips="1" connect="1" arrows="1" fold="1" page="1" pageScale="1" pageWidth="827" pageHeight="1169" math="0" shadow="0">
      <root>
        <mxCell id="0" />
        <mxCell id="1" parent="0" />
        <mxCell id="Cza8mE09iMlTAYWOkhOS-10" style="edgeStyle=orthogonalEdgeStyle;rounded=0;orthogonalLoop=1;jettySize=auto;html=1;entryX=1;entryY=0.5;entryDx=0;entryDy=0;" edge="1" parent="1" source="Cza8mE09iMlTAYWOkhOS-2" target="Cza8mE09iMlTAYWOkhOS-8">
          <mxGeometry relative="1" as="geometry" />
        </mxCell>
        <mxCell id="Cza8mE09iMlTAYWOkhOS-14" style="edgeStyle=orthogonalEdgeStyle;rounded=0;orthogonalLoop=1;jettySize=auto;html=1;entryX=1;entryY=0.5;entryDx=0;entryDy=0;" edge="1" parent="1" source="Cza8mE09iMlTAYWOkhOS-2" target="Cza8mE09iMlTAYWOkhOS-12">
          <mxGeometry relative="1" as="geometry" />
        </mxCell>
        <mxCell id="Cza8mE09iMlTAYWOkhOS-21" style="edgeStyle=orthogonalEdgeStyle;rounded=0;orthogonalLoop=1;jettySize=auto;html=1;entryX=1;entryY=0.5;entryDx=0;entryDy=0;" edge="1" parent="1" source="Cza8mE09iMlTAYWOkhOS-2" target="Cza8mE09iMlTAYWOkhOS-19">
          <mxGeometry relative="1" as="geometry" />
        </mxCell>
        <mxCell id="Cza8mE09iMlTAYWOkhOS-27" style="edgeStyle=orthogonalEdgeStyle;rounded=0;orthogonalLoop=1;jettySize=auto;html=1;entryX=1;entryY=0.5;entryDx=0;entryDy=0;" edge="1" parent="1" source="Cza8mE09iMlTAYWOkhOS-2" target="Cza8mE09iMlTAYWOkhOS-16">
          <mxGeometry relative="1" as="geometry" />
        </mxCell>
        <mxCell id="Cza8mE09iMlTAYWOkhOS-2" value="Factory Director" style="shape=umlActor;verticalLabelPosition=bottom;verticalAlign=top;html=1;outlineConnect=0;strokeColor=#000099;" vertex="1" parent="1">
          <mxGeometry x="490" y="260" width="30" height="60" as="geometry" />
        </mxCell>
        <mxCell id="Cza8mE09iMlTAYWOkhOS-11" style="edgeStyle=orthogonalEdgeStyle;rounded=0;orthogonalLoop=1;jettySize=auto;html=1;entryX=0;entryY=0.5;entryDx=0;entryDy=0;" edge="1" parent="1" source="Cza8mE09iMlTAYWOkhOS-3" target="Cza8mE09iMlTAYWOkhOS-8">
          <mxGeometry relative="1" as="geometry" />
        </mxCell>
        <mxCell id="Cza8mE09iMlTAYWOkhOS-15" style="edgeStyle=orthogonalEdgeStyle;rounded=0;orthogonalLoop=1;jettySize=auto;html=1;entryX=0;entryY=0.5;entryDx=0;entryDy=0;" edge="1" parent="1" source="Cza8mE09iMlTAYWOkhOS-3" target="Cza8mE09iMlTAYWOkhOS-12">
          <mxGeometry relative="1" as="geometry" />
        </mxCell>
        <mxCell id="Cza8mE09iMlTAYWOkhOS-18" style="edgeStyle=orthogonalEdgeStyle;rounded=0;orthogonalLoop=1;jettySize=auto;html=1;entryX=0;entryY=0.5;entryDx=0;entryDy=0;" edge="1" parent="1" source="Cza8mE09iMlTAYWOkhOS-3" target="Cza8mE09iMlTAYWOkhOS-16">
          <mxGeometry relative="1" as="geometry" />
        </mxCell>
        <mxCell id="Cza8mE09iMlTAYWOkhOS-22" style="edgeStyle=orthogonalEdgeStyle;rounded=0;orthogonalLoop=1;jettySize=auto;html=1;entryX=0;entryY=0.5;entryDx=0;entryDy=0;" edge="1" parent="1" source="Cza8mE09iMlTAYWOkhOS-3" target="Cza8mE09iMlTAYWOkhOS-19">
          <mxGeometry relative="1" as="geometry" />
        </mxCell>
        <mxCell id="Cza8mE09iMlTAYWOkhOS-3" value="&lt;p style=&quot;white-space: pre-wrap;&quot; dir=&quot;auto&quot;&gt;Factory Manager&lt;/p&gt;" style="shape=umlActor;verticalLabelPosition=bottom;verticalAlign=top;html=1;outlineConnect=0;" vertex="1" parent="1">
          <mxGeometry x="90" y="260" width="30" height="60" as="geometry" />
        </mxCell>
        <mxCell id="Cza8mE09iMlTAYWOkhOS-7" value="" style="edgeStyle=orthogonalEdgeStyle;rounded=0;orthogonalLoop=1;jettySize=auto;html=1;" edge="1" parent="1" source="Cza8mE09iMlTAYWOkhOS-4" target="Cza8mE09iMlTAYWOkhOS-6">
          <mxGeometry relative="1" as="geometry" />
        </mxCell>
        <mxCell id="Cza8mE09iMlTAYWOkhOS-4" value="Candidate" style="shape=umlActor;verticalLabelPosition=bottom;verticalAlign=top;html=1;outlineConnect=0;" vertex="1" parent="1">
          <mxGeometry x="295" y="80" width="30" height="60" as="geometry" />
        </mxCell>
        <mxCell id="Cza8mE09iMlTAYWOkhOS-9" value="" style="edgeStyle=orthogonalEdgeStyle;rounded=0;orthogonalLoop=1;jettySize=auto;html=1;" edge="1" parent="1" source="Cza8mE09iMlTAYWOkhOS-6" target="Cza8mE09iMlTAYWOkhOS-8">
          <mxGeometry relative="1" as="geometry" />
        </mxCell>
        <mxCell id="Cza8mE09iMlTAYWOkhOS-6" value="Submit Application" style="rounded=1;whiteSpace=wrap;html=1;" vertex="1" parent="1">
          <mxGeometry x="250" y="190" width="120" height="60" as="geometry" />
        </mxCell>
        <mxCell id="Cza8mE09iMlTAYWOkhOS-13" value="" style="edgeStyle=orthogonalEdgeStyle;rounded=0;orthogonalLoop=1;jettySize=auto;html=1;" edge="1" parent="1" source="Cza8mE09iMlTAYWOkhOS-8" target="Cza8mE09iMlTAYWOkhOS-12">
          <mxGeometry relative="1" as="geometry" />
        </mxCell>
        <mxCell id="Cza8mE09iMlTAYWOkhOS-8" value="Schedule Interview" style="rounded=1;whiteSpace=wrap;html=1;" vertex="1" parent="1">
          <mxGeometry x="250" y="260" width="120" height="60" as="geometry" />
        </mxCell>
        <mxCell id="Cza8mE09iMlTAYWOkhOS-17" value="" style="edgeStyle=orthogonalEdgeStyle;rounded=0;orthogonalLoop=1;jettySize=auto;html=1;" edge="1" parent="1" source="Cza8mE09iMlTAYWOkhOS-12" target="Cza8mE09iMlTAYWOkhOS-16">
          <mxGeometry relative="1" as="geometry" />
        </mxCell>
        <mxCell id="Cza8mE09iMlTAYWOkhOS-12" value="Evaluate Candidate" style="rounded=1;whiteSpace=wrap;html=1;" vertex="1" parent="1">
          <mxGeometry x="250" y="330" width="120" height="60" as="geometry" />
        </mxCell>
        <mxCell id="Cza8mE09iMlTAYWOkhOS-20" value="" style="edgeStyle=orthogonalEdgeStyle;rounded=0;orthogonalLoop=1;jettySize=auto;html=1;" edge="1" parent="1" source="Cza8mE09iMlTAYWOkhOS-16" target="Cza8mE09iMlTAYWOkhOS-19">
          <mxGeometry relative="1" as="geometry" />
        </mxCell>
        <mxCell id="Cza8mE09iMlTAYWOkhOS-16" value="Approve Hire" style="rounded=1;whiteSpace=wrap;html=1;" vertex="1" parent="1">
          <mxGeometry x="250" y="400" width="120" height="60" as="geometry" />
        </mxCell>
        <mxCell id="Cza8mE09iMlTAYWOkhOS-24" value="" style="edgeStyle=orthogonalEdgeStyle;rounded=0;orthogonalLoop=1;jettySize=auto;html=1;" edge="1" parent="1" source="Cza8mE09iMlTAYWOkhOS-19" target="Cza8mE09iMlTAYWOkhOS-23">
          <mxGeometry relative="1" as="geometry" />
        </mxCell>
        <mxCell id="Cza8mE09iMlTAYWOkhOS-19" value="Create Notification" style="rounded=1;whiteSpace=wrap;html=1;" vertex="1" parent="1">
          <mxGeometry x="250" y="470" width="120" height="60" as="geometry" />
        </mxCell>
        <mxCell id="Cza8mE09iMlTAYWOkhOS-23" value="Send Notification" style="rounded=1;whiteSpace=wrap;html=1;" vertex="1" parent="1">
          <mxGeometry x="250" y="560" width="120" height="60" as="geometry" />
        </mxCell>
        <mxCell id="Cza8mE09iMlTAYWOkhOS-26" value="Factory Director" style="shape=umlActor;verticalLabelPosition=bottom;verticalAlign=top;html=1;outlineConnect=0;strokeColor=#000099;" vertex="1" parent="1">
          <mxGeometry x="490" y="400" width="30" height="60" as="geometry" />
        </mxCell>
      </root>
    </mxGraphModel>
  </diagram>
</mxfile>
